<svg xmlns="http://www.w3.org/2000/svg" viewBox="0 0 800 400" width="800" height="400">
  <defs>
    <filter id="glow">
      <feGaussianBlur stdDeviation="0.8" result="coloredBlur"/>
      <feMerge><feMergeNode in="coloredBlur"/><feMergeNode in="SourceGraphic"/></feMerge>
    </filter>
    <clipPath id="traceClip"><rect x="95" y="40" width="700" height="350"/></clipPath>
  </defs>
  <rect width="800" height="400" fill="#1a1a2e"/>
  <rect x="0" y="0" width="800" height="40" fill="#0d0d1a" stroke="#333355" stroke-width="1"/>
  <text x="400" y="27" text-anchor="middle" fill="#00ff88" font-family="Consolas, monospace" font-size="16" font-weight="bold">Burst-Suppression Pattern</text>
  <!-- Channel labels -->
  <g font-family="Consolas, monospace" font-size="11" fill="#aabbcc">
    <text x="88" y="78" text-anchor="end">Fp1</text>
    <text x="88" y="118" text-anchor="end">Fp2</text>
    <text x="88" y="158" text-anchor="end">F3</text>
    <text x="88" y="198" text-anchor="end">F4</text>
    <text x="88" y="238" text-anchor="end">C3</text>
    <text x="88" y="278" text-anchor="end">C4</text>
    <text x="88" y="318" text-anchor="end">O1</text>
    <text x="88" y="358" text-anchor="end">O2</text>
  </g>
  <!-- Baselines -->
  <g stroke="#222244" stroke-width="0.5">
    <line x1="95" y1="75" x2="790" y2="75"/>
    <line x1="95" y1="115" x2="790" y2="115"/>
    <line x1="95" y1="155" x2="790" y2="155"/>
    <line x1="95" y1="195" x2="790" y2="195"/>
    <line x1="95" y1="235" x2="790" y2="235"/>
    <line x1="95" y1="275" x2="790" y2="275"/>
    <line x1="95" y1="315" x2="790" y2="315"/>
    <line x1="95" y1="355" x2="790" y2="355"/>
  </g>
  <!-- Burst/Suppression labels at top -->
  <rect x="95" y="42" width="120" height="14" fill="#ff4444" fill-opacity="0.12" stroke="#ff4444" stroke-width="0.5"/>
  <text x="155" y="53" text-anchor="middle" fill="#ff6666" font-family="Consolas, monospace" font-size="9" font-weight="bold">BURST (1-3s)</text>
  <rect x="215" y="42" width="250" height="14" fill="#334455" fill-opacity="0.3" stroke="#445566" stroke-width="0.5"/>
  <text x="340" y="53" text-anchor="middle" fill="#667788" font-family="Consolas, monospace" font-size="9" font-weight="bold">SUPPRESSION (&lt;10 uV, 3-10s)</text>
  <rect x="465" y="42" width="120" height="14" fill="#ff4444" fill-opacity="0.12" stroke="#ff4444" stroke-width="0.5"/>
  <text x="525" y="53" text-anchor="middle" fill="#ff6666" font-family="Consolas, monospace" font-size="9" font-weight="bold">BURST (1-3s)</text>
  <rect x="585" y="42" width="205" height="14" fill="#334455" fill-opacity="0.3" stroke="#445566" stroke-width="0.5"/>
  <text x="688" y="53" text-anchor="middle" fill="#667788" font-family="Consolas, monospace" font-size="9" font-weight="bold">SUPPRESSION</text>
  <!-- Vertical burst boundaries -->
  <line x1="215" y1="56" x2="215" y2="380" stroke="#445566" stroke-width="0.5" stroke-dasharray="3,5"/>
  <line x1="465" y1="56" x2="465" y2="380" stroke="#445566" stroke-width="0.5" stroke-dasharray="3,5"/>
  <line x1="585" y1="56" x2="585" y2="380" stroke="#445566" stroke-width="0.5" stroke-dasharray="3,5"/>
  <g clip-path="url(#traceClip)" filter="url(#glow)">
    <!-- Fp1: Burst then flat then burst then flat -->
    <polyline fill="none" stroke="#00ff88" stroke-width="1.2" points="
      95,75 100,58 103,92 106,50 109,88 112,60 115,95 117,48 120,90 123,55 126,85 128,48 130,92 133,55 136,88 139,50 142,90 145,60 148,92 151,48 154,88 157,55 160,95 163,50 166,85 169,58 172,92 175,48 178,90 181,55 184,88 187,50 190,92 193,58 196,88 199,50 202,90 205,55 208,92 211,50 214,85
      215,75 218,76 221,74 224,76 227,74 230,75 233,76 236,74 239,76 242,75 245,74 248,76 251,74 254,76 257,75 260,74 263,76 266,75 269,74 272,76 275,74 278,76 281,75 284,74 287,76 290,74 293,76 296,75 299,74 302,76 305,74 308,76 311,75 314,74 317,76 320,75 323,74 326,76 329,74 332,76 335,75 338,74 341,76 344,75 347,74 350,76 353,74 356,75 359,76 362,74 365,76 368,75 371,74 374,76 377,74 380,76 383,75 386,74 389,76 392,75 395,74 398,76 401,74 404,76 407,75 410,74 413,76 416,75 419,74 422,76 425,74 428,76 431,75 434,74 437,76 440,75 443,74 446,76 449,74 452,76 455,75 458,74 461,76 464,75
      465,75 468,58 471,92 474,50 477,88 480,60 483,95 485,48 488,90 491,55 494,85 496,48 499,92 502,55 505,88 508,50 511,90 514,60 517,92 520,48 523,88 526,55 529,95 532,50 535,85 538,58 541,92 544,48 547,90 550,55 553,88 556,50 559,92 562,58 565,88 568,50 571,90 574,55 577,92 580,50 583,85
      585,75 588,76 591,74 594,76 597,75 600,74 603,76 606,74 609,76 612,75 615,74 618,76 621,74 624,76 627,75 630,74 633,76 636,75 639,74 642,76 645,74 648,76 651,75 654,74 657,76 660,75 663,74 666,76 669,74 672,76 675,75 678,74 681,76 684,75 687,74 690,76 693,74 696,76 699,75 702,74 705,76 708,75 711,74 714,76 717,74 720,76 723,75 726,74 729,76 732,75 735,74 738,76 741,74 744,76 747,75 750,74 753,76 756,75 759,74 762,76 765,74 768,76 771,75 774,74 777,76 780,75 783,74 786,76 789,74 790,75"/>
    <!-- Fp2 -->
    <polyline fill="none" stroke="#00ff88" stroke-width="1.2" points="
      95,115 100,98 103,132 106,90 109,128 112,100 115,135 117,88 120,130 123,95 126,125 128,88 130,132 133,95 136,128 139,90 142,130 145,100 148,132 151,88 154,128 157,95 160,135 163,90 166,125 169,98 172,132 175,88 178,130 181,95 184,128 187,90 190,132 193,98 196,128 199,90 202,130 205,95 208,132 211,90 214,125
      215,115 218,116 221,114 224,116 227,114 230,115 233,116 236,114 239,116 242,115 245,114 248,116 251,114 254,116 257,115 260,114 263,116 266,115 269,114 272,116 275,114 278,116 281,115 284,114 287,116 290,114 293,116 296,115 299,114 302,116 305,114 308,116 311,115 314,114 317,116 320,115 323,114 326,116 329,114 332,116 335,115 338,114 341,116 344,115 347,114 350,116 353,114 356,115 359,116 362,114 365,116 368,115 371,114 374,116 377,114 380,116 383,115 386,114 389,116 392,115 395,114 398,116 401,114 404,116 407,115 410,114 413,116 416,115 419,114 422,116 425,114 428,116 431,115 434,114 437,116 440,115 443,114 446,116 449,114 452,116 455,115 458,114 461,116 464,115
      465,115 468,98 471,132 474,90 477,128 480,100 483,135 485,88 488,130 491,95 494,125 496,88 499,132 502,95 505,128 508,90 511,130 514,100 517,132 520,88 523,128 526,95 529,135 532,90 535,125 538,98 541,132 544,88 547,130 550,95 553,128 556,90 559,132 562,98 565,128 568,90 571,130 574,95 577,132 580,90 583,125
      585,115 588,116 591,114 594,116 597,115 600,114 603,116 606,114 609,116 612,115 615,114 618,116 621,114 624,116 627,115 630,114 633,116 636,115 639,114 642,116 645,114 648,116 651,115 654,114 657,116 660,115 663,114 666,116 669,114 672,116 675,115 678,114 681,116 684,115 687,114 690,116 693,114 696,116 699,115 702,114 705,116 708,115 711,114 714,116 717,114 720,116 723,115 726,114 729,116 732,115 735,114 738,116 741,114 744,116 747,115 750,114 753,116 756,115 759,114 762,116 765,114 768,116 771,115 774,114 777,116 780,115 783,114 786,116 789,114 790,115"/>
    <!-- F3 -->
    <polyline fill="none" stroke="#00ff88" stroke-width="1.2" points="
      95,155 100,138 103,172 106,130 109,168 112,140 115,175 117,128 120,170 123,135 126,165 128,128 130,172 133,135 136,168 139,130 142,170 145,140 148,172 151,128 154,168 157,135 160,175 163,130 166,165 169,138 172,172 175,128 178,170 181,135 184,168 187,130 190,172 193,138 196,168 199,130 202,170 205,135 208,172 211,130 214,165
      215,155 218,156 221,154 224,156 227,154 230,155 233,156 236,154 239,156 242,155 245,154 248,156 251,154 254,156 257,155 260,154 263,156 266,155 269,154 272,156 275,154 278,156 281,155 284,154 287,156 290,154 293,156 296,155 299,154 302,156 305,154 308,156 311,155 314,154 317,156 320,155 323,154 326,156 329,154 332,156 335,155 338,154 341,156 344,155 347,154 350,156 353,154 356,155 359,156 362,154 365,156 368,155 371,154 374,156 377,154 380,156 383,155 386,154 389,156 392,155 395,154 398,156 401,154 404,156 407,155 410,154 413,156 416,155 419,154 422,156 425,154 428,156 431,155 434,154 437,156 440,155 443,154 446,156 449,154 452,156 455,155 458,154 461,156 464,155
      465,155 468,138 471,172 474,130 477,168 480,140 483,175 485,128 488,170 491,135 494,165 496,128 499,172 502,135 505,168 508,130 511,170 514,140 517,172 520,128 523,168 526,135 529,175 532,130 535,165 538,138 541,172 544,128 547,170 550,135 553,168 556,130 559,172 562,138 565,168 568,130 571,170 574,135 577,172 580,130 583,165
      585,155 588,156 591,154 594,156 597,155 600,154 603,156 606,154 609,156 612,155 615,154 618,156 621,154 624,156 627,155 630,154 633,156 636,155 639,154 642,156 645,154 648,156 651,155 654,154 657,156 660,155 663,154 666,156 669,154 672,156 675,155 678,154 681,156 684,155 687,154 690,156 693,154 696,156 699,155 702,154 705,156 708,155 711,154 714,156 717,154 720,156 723,155 726,154 729,156 732,155 735,154 738,156 741,154 744,156 747,155 750,154 753,156 756,155 759,154 762,156 765,154 768,156 771,155 774,154 777,156 780,155 783,154 786,156 789,154 790,155"/>
    <!-- F4 -->
    <polyline fill="none" stroke="#00ff88" stroke-width="1.2" points="
      95,195 100,178 103,212 106,170 109,208 112,180 115,215 117,168 120,210 123,175 126,205 128,168 130,212 133,175 136,208 139,170 142,210 145,180 148,212 151,168 154,208 157,175 160,215 163,170 166,205 169,178 172,212 175,168 178,210 181,175 184,208 187,170 190,212 193,178 196,208 199,170 202,210 205,175 208,212 211,170 214,205
      215,195 218,196 221,194 224,196 227,194 230,195 233,196 236,194 239,196 242,195 245,194 248,196 251,194 254,196 257,195 260,194 263,196 266,195 269,194 272,196 275,194 278,196 281,195 284,194 287,196 290,194 293,196 296,195 299,194 302,196 305,194 308,196 311,195 314,194 317,196 320,195 323,194 326,196 329,194 332,196 335,195 338,194 341,196 344,195 347,194 350,196 353,194 356,195 359,196 362,194 365,196 368,195 371,194 374,196 377,194 380,196 383,195 386,194 389,196 392,195 395,194 398,196 401,194 404,196 407,195 410,194 413,196 416,195 419,194 422,196 425,194 428,196 431,195 434,194 437,196 440,195 443,194 446,196 449,194 452,196 455,195 458,194 461,196 464,195
      465,195 468,178 471,212 474,170 477,208 480,180 483,215 485,168 488,210 491,175 494,205 496,168 499,212 502,175 505,208 508,170 511,210 514,180 517,212 520,168 523,208 526,175 529,215 532,170 535,205 538,178 541,212 544,168 547,210 550,175 553,208 556,170 559,212 562,178 565,208 568,170 571,210 574,175 577,212 580,170 583,205
      585,195 588,196 591,194 594,196 597,195 600,194 603,196 606,194 609,196 612,195 615,194 618,196 621,194 624,196 627,195 630,194 633,196 636,195 639,194 642,196 645,194 648,196 651,195 654,194 657,196 660,195 663,194 666,196 669,194 672,196 675,195 678,194 681,196 684,195 687,194 690,196 693,194 696,196 699,195 702,194 705,196 708,195 711,194 714,196 717,194 720,196 723,195 726,194 729,196 732,195 735,194 738,196 741,194 744,196 747,195 750,194 753,196 756,195 759,194 762,196 765,194 768,196 771,195 774,194 777,196 780,195 783,194 786,196 789,194 790,195"/>
    <!-- C3 -->
    <polyline fill="none" stroke="#00ff88" stroke-width="1.2" points="
      95,235 100,218 103,252 106,210 109,248 112,220 115,255 117,208 120,250 123,215 126,245 128,208 130,252 133,215 136,248 139,210 142,250 145,220 148,252 151,208 154,248 157,215 160,255 163,210 166,245 169,218 172,252 175,208 178,250 181,215 184,248 187,210 190,252 193,218 196,248 199,210 202,250 205,215 208,252 211,210 214,245
      215,235 218,236 221,234 224,236 227,234 230,235 233,236 236,234 239,236 242,235 245,234 248,236 251,234 254,236 257,235 260,234 263,236 266,235 269,234 272,236 275,234 278,236 281,235 284,234 287,236 290,234 293,236 296,235 299,234 302,236 305,234 308,236 311,235 314,234 317,236 320,235 323,234 326,236 329,234 332,236 335,235 338,234 341,236 344,235 347,234 350,236 353,234 356,235 359,236 362,234 365,236 368,235 371,234 374,236 377,234 380,236 383,235 386,234 389,236 392,235 395,234 398,236 401,234 404,236 407,235 410,234 413,236 416,235 419,234 422,236 425,234 428,236 431,235 434,234 437,236 440,235 443,234 446,236 449,234 452,236 455,235 458,234 461,236 464,235
      465,235 468,218 471,252 474,210 477,248 480,220 483,255 485,208 488,250 491,215 494,245 496,208 499,252 502,215 505,248 508,210 511,250 514,220 517,252 520,208 523,248 526,215 529,255 532,210 535,245 538,218 541,252 544,208 547,250 550,215 553,248 556,210 559,252 562,218 565,248 568,210 571,250 574,215 577,252 580,210 583,245
      585,235 588,236 591,234 594,236 597,235 600,234 603,236 606,234 609,236 612,235 615,234 618,236 621,234 624,236 627,235 630,234 633,236 636,235 639,234 642,236 645,234 648,236 651,235 654,234 657,236 660,235 663,234 666,236 669,234 672,236 675,235 678,234 681,236 684,235 687,234 690,236 693,234 696,236 699,235 702,234 705,236 708,235 711,234 714,236 717,234 720,236 723,235 726,234 729,236 732,235 735,234 738,236 741,234 744,236 747,235 750,234 753,236 756,235 759,234 762,236 765,234 768,236 771,235 774,234 777,236 780,235 783,234 786,236 789,234 790,235"/>
    <!-- C4 -->
    <polyline fill="none" stroke="#00ff88" stroke-width="1.2" points="
      95,275 100,258 103,292 106,250 109,288 112,260 115,295 117,248 120,290 123,255 126,285 128,248 130,292 133,255 136,288 139,250 142,290 145,260 148,292 151,248 154,288 157,255 160,295 163,250 166,285 169,258 172,292 175,248 178,290 181,255 184,288 187,250 190,292 193,258 196,288 199,250 202,290 205,255 208,292 211,250 214,285
      215,275 218,276 221,274 224,276 227,274 230,275 233,276 236,274 239,276 242,275 245,274 248,276 251,274 254,276 257,275 260,274 263,276 266,275 269,274 272,276 275,274 278,276 281,275 284,274 287,276 290,274 293,276 296,275 299,274 302,276 305,274 308,276 311,275 314,274 317,276 320,275 323,274 326,276 329,274 332,276 335,275 338,274 341,276 344,275 347,274 350,276 353,274 356,275 359,276 362,274 365,276 368,275 371,274 374,276 377,274 380,276 383,275 386,274 389,276 392,275 395,274 398,276 401,274 404,276 407,275 410,274 413,276 416,275 419,274 422,276 425,274 428,276 431,275 434,274 437,276 440,275 443,274 446,276 449,274 452,276 455,275 458,274 461,276 464,275
      465,275 468,258 471,292 474,250 477,288 480,260 483,295 485,248 488,290 491,255 494,285 496,248 499,292 502,255 505,288 508,250 511,290 514,260 517,292 520,248 523,288 526,255 529,295 532,250 535,285 538,258 541,292 544,248 547,290 550,255 553,288 556,250 559,292 562,258 565,288 568,250 571,290 574,255 577,292 580,250 583,285
      585,275 588,276 591,274 594,276 597,275 600,274 603,276 606,274 609,276 612,275 615,274 618,276 621,274 624,276 627,275 630,274 633,276 636,275 639,274 642,276 645,274 648,276 651,275 654,274 657,276 660,275 663,274 666,276 669,274 672,276 675,275 678,274 681,276 684,275 687,274 690,276 693,274 696,276 699,275 702,274 705,276 708,275 711,274 714,276 717,274 720,276 723,275 726,274 729,276 732,275 735,274 738,276 741,274 744,276 747,275 750,274 753,276 756,275 759,274 762,276 765,274 768,276 771,275 774,274 777,276 780,275 783,274 786,276 789,274 790,275"/>
    <!-- O1 -->
    <polyline fill="none" stroke="#00ff88" stroke-width="1.2" points="
      95,315 100,298 103,332 106,290 109,328 112,300 115,335 117,288 120,330 123,295 126,325 128,288 130,332 133,295 136,328 139,290 142,330 145,300 148,332 151,288 154,328 157,295 160,335 163,290 166,325 169,298 172,332 175,288 178,330 181,295 184,328 187,290 190,332 193,298 196,328 199,290 202,330 205,295 208,332 211,290 214,325
      215,315 218,316 221,314 224,316 227,314 230,315 233,316 236,314 239,316 242,315 245,314 248,316 251,314 254,316 257,315 260,314 263,316 266,315 269,314 272,316 275,314 278,316 281,315 284,314 287,316 290,314 293,316 296,315 299,314 302,316 305,314 308,316 311,315 314,314 317,316 320,315 323,314 326,316 329,314 332,316 335,315 338,314 341,316 344,315 347,314 350,316 353,314 356,315 359,316 362,314 365,316 368,315 371,314 374,316 377,314 380,316 383,315 386,314 389,316 392,315 395,314 398,316 401,314 404,316 407,315 410,314 413,316 416,315 419,314 422,316 425,314 428,316 431,315 434,314 437,316 440,315 443,314 446,316 449,314 452,316 455,315 458,314 461,316 464,315
      465,315 468,298 471,332 474,290 477,328 480,300 483,335 485,288 488,330 491,295 494,325 496,288 499,332 502,295 505,328 508,290 511,330 514,300 517,332 520,288 523,328 526,295 529,335 532,290 535,325 538,298 541,332 544,288 547,330 550,295 553,328 556,290 559,332 562,298 565,328 568,290 571,330 574,295 577,332 580,290 583,325
      585,315 588,316 591,314 594,316 597,315 600,314 603,316 606,314 609,316 612,315 615,314 618,316 621,314 624,316 627,315 630,314 633,316 636,315 639,314 642,316 645,314 648,316 651,315 654,314 657,316 660,315 663,314 666,316 669,314 672,316 675,315 678,314 681,316 684,315 687,314 690,316 693,314 696,316 699,315 702,314 705,316 708,315 711,314 714,316 717,314 720,316 723,315 726,314 729,316 732,315 735,314 738,316 741,314 744,316 747,315 750,314 753,316 756,315 759,314 762,316 765,314 768,316 771,315 774,314 777,316 780,315 783,314 786,316 789,314 790,315"/>
    <!-- O2 -->
    <polyline fill="none" stroke="#00ff88" stroke-width="1.2" points="
      95,355 100,338 103,372 106,330 109,368 112,340 115,375 117,328 120,370 123,335 126,365 128,328 130,372 133,335 136,368 139,330 142,370 145,340 148,372 151,328 154,368 157,335 160,375 163,330 166,365 169,338 172,372 175,328 178,370 181,335 184,368 187,330 190,372 193,338 196,368 199,330 202,370 205,335 208,372 211,330 214,365
      215,355 218,356 221,354 224,356 227,354 230,355 233,356 236,354 239,356 242,355 245,354 248,356 251,354 254,356 257,355 260,354 263,356 266,355 269,354 272,356 275,354 278,356 281,355 284,354 287,356 290,354 293,356 296,355 299,354 302,356 305,354 308,356 311,355 314,354 317,356 320,355 323,354 326,356 329,354 332,356 335,355 338,354 341,356 344,355 347,354 350,356 353,354 356,355 359,356 362,354 365,356 368,355 371,354 374,356 377,354 380,356 383,355 386,354 389,356 392,355 395,354 398,356 401,354 404,356 407,355 410,354 413,356 416,355 419,354 422,356 425,354 428,356 431,355 434,354 437,356 440,355 443,354 446,356 449,354 452,356 455,355 458,354 461,356 464,355
      465,355 468,338 471,372 474,330 477,368 480,340 483,375 485,328 488,370 491,335 494,365 496,328 499,372 502,335 505,368 508,330 511,370 514,340 517,372 520,328 523,368 526,335 529,375 532,330 535,365 538,338 541,372 544,328 547,370 550,335 553,368 556,330 559,372 562,338 565,368 568,330 571,370 574,335 577,372 580,330 583,365
      585,355 588,356 591,354 594,356 597,355 600,354 603,356 606,354 609,356 612,355 615,354 618,356 621,354 624,356 627,355 630,354 633,356 636,355 639,354 642,356 645,354 648,356 651,355 654,354 657,356 660,355 663,354 666,356 669,354 672,356 675,355 678,354 681,356 684,355 687,354 690,356 693,354 696,356 699,355 702,354 705,356 708,355 711,354 714,356 717,354 720,356 723,355 726,354 729,356 732,355 735,354 738,356 741,354 744,356 747,355 750,354 753,356 756,355 759,354 762,356 765,354 768,356 771,355 774,354 777,356 780,355 783,354 786,356 789,354 790,355"/>
  </g>
  <!-- Scale bars -->
  <line x1="720" y1="396" x2="780" y2="396" stroke="#ffbb33" stroke-width="2"/>
  <text x="750" y="393" text-anchor="middle" fill="#ffbb33" font-family="Consolas, monospace" font-size="9">1 sec</text>
  <line x1="88" y1="55" x2="88" y2="95" stroke="#ffbb33" stroke-width="2"/>
  <line x1="85" y1="55" x2="91" y2="55" stroke="#ffbb33" stroke-width="2"/>
  <line x1="85" y1="95" x2="91" y2="95" stroke="#ffbb33" stroke-width="2"/>
  <text x="78" y="78" text-anchor="end" fill="#ffbb33" font-family="Consolas, monospace" font-size="8">100uV</text>
  <!-- Clinical note -->
  <text x="400" y="396" text-anchor="middle" fill="#667788" font-family="Consolas, monospace" font-size="9">Burst: High-amplitude mixed activity | Suppression: Near-isoelectric (&lt;10 uV)</text>
</svg>