<svg xmlns="http://www.w3.org/2000/svg" viewBox="0 0 800 400" width="800" height="400">
  <defs>
    <filter id="glow">
      <feGaussianBlur stdDeviation="1" result="coloredBlur"/>
      <feMerge><feMergeNode in="coloredBlur"/><feMergeNode in="SourceGraphic"/></feMerge>
    </filter>
    <clipPath id="traceClip"><rect x="95" y="40" width="700" height="355"/></clipPath>
  </defs>
  <rect width="800" height="400" fill="#1a1a2e"/>
  <rect x="0" y="0" width="800" height="40" fill="#0d0d1a" stroke="#333355" stroke-width="1"/>
  <text x="400" y="27" text-anchor="middle" fill="#00ff88" font-family="Consolas, monospace" font-size="14" font-weight="bold">Centrotemporal Spikes (SLECTS / Benign Rolandic Epilepsy)</text>
  <!-- Channel labels -->
  <g font-family="Consolas, monospace" font-size="11" fill="#aabbcc">
    <text x="88" y="78" text-anchor="end">Fp1</text>
    <text x="88" y="118" text-anchor="end">Fp2</text>
    <text x="88" y="158" text-anchor="end">F3</text>
    <text x="88" y="198" text-anchor="end">F4</text>
    <text x="88" y="238" text-anchor="end">C3</text>
    <text x="88" y="278" text-anchor="end">T3</text>
    <text x="88" y="318" text-anchor="end">O1</text>
    <text x="88" y="358" text-anchor="end">O2</text>
  </g>
  <!-- Baselines -->
  <g stroke="#222244" stroke-width="0.5">
    <line x1="95" y1="75" x2="790" y2="75"/>
    <line x1="95" y1="115" x2="790" y2="115"/>
    <line x1="95" y1="155" x2="790" y2="155"/>
    <line x1="95" y1="195" x2="790" y2="195"/>
    <line x1="95" y1="235" x2="790" y2="235"/>
    <line x1="95" y1="275" x2="790" y2="275"/>
    <line x1="95" y1="315" x2="790" y2="315"/>
    <line x1="95" y1="355" x2="790" y2="355"/>
  </g>
  <!-- Spike markers -->
  <line x1="280" y1="45" x2="280" y2="390" stroke="#ff444444" stroke-width="0.5" stroke-dasharray="3,5"/>
  <line x1="500" y1="45" x2="500" y2="390" stroke="#ff444444" stroke-width="0.5" stroke-dasharray="3,5"/>
  <g clip-path="url(#traceClip)" filter="url(#glow)">
    <!-- Fp1: Normal background, low amplitude. Mild positive phase reversal at spike times -->
    <polyline fill="none" stroke="#00ff88" stroke-width="1.2" points="
      95,75 100,73 105,77 110,74 115,76 120,73 125,77 130,74 135,76 140,73 145,77 150,74 155,76 160,73 165,77 170,74 175,76 180,73 185,77 190,74 195,76 200,73 205,77 210,74 215,76 220,73 225,77 230,74 235,76 240,73 245,77 250,74 255,76 260,73 265,77 270,74 275,76
      280,75 283,74 286,76 290,74
      295,73 300,77 305,74 310,76 315,73 320,77 325,74 330,76 335,73 340,77 345,74 350,76 355,73 360,77 365,74 370,76 375,73 380,77 385,74 390,76 395,73 400,77 405,74 410,76 415,73 420,77 425,74 430,76 435,73 440,77 445,74 450,76 455,73 460,77 465,74 470,76 475,73 480,77 485,74 490,76 495,73
      500,75 503,74 506,76 510,74
      515,73 520,77 525,74 530,76 535,73 540,77 545,74 550,76 555,73 560,77 565,74 570,76 575,73 580,77 585,74 590,76 595,73 600,77 605,74 610,76 615,73 620,77 625,74 630,76 635,73 640,77 645,74 650,76 655,73 660,77 665,74 670,76 675,73 680,77 685,74 690,76 695,73 700,77 705,74 710,76 715,73 720,77 725,74 730,76 735,73 740,77 745,74 750,76 755,73 760,77 765,74 770,76 775,73 780,77 785,74 790,75"/>
    <!-- Fp2: Normal background -->
    <polyline fill="none" stroke="#00ff88" stroke-width="1.2" points="
      95,115 100,113 105,117 110,114 115,116 120,113 125,117 130,114 135,116 140,113 145,117 150,114 155,116 160,113 165,117 170,114 175,116 180,113 185,117 190,114 195,116 200,113 205,117 210,114 215,116 220,113 225,117 230,114 235,116 240,113 245,117 250,114 255,116 260,113 265,117 270,114 275,116 280,115 285,114 290,116 295,113 300,117 305,114 310,116 315,113 320,117 325,114 330,116 335,113 340,117 345,114 350,116 355,113 360,117 365,114 370,116 375,113 380,117 385,114 390,116 395,113 400,117 405,114 410,116 415,113 420,117 425,114 430,116 435,113 440,117 445,114 450,116 455,113 460,117 465,114 470,116 475,113 480,117 485,114 490,116 495,113 500,115 505,114 510,116 515,113 520,117 525,114 530,116 535,113 540,117 545,114 550,116 555,113 560,117 565,114 570,116 575,113 580,117 585,114 590,116 595,113 600,117 605,114 610,116 615,113 620,117 625,114 630,116 635,113 640,117 645,114 650,116 655,113 660,117 665,114 670,116 675,113 680,117 685,114 690,116 695,113 700,117 705,114 710,116 715,113 720,117 725,114 730,116 735,113 740,117 745,114 750,116 755,113 760,117 765,114 770,116 775,113 780,117 785,114 790,115"/>
    <!-- F3: Shows POSITIVE phase reversal at spike times (tangential dipole: negative at C3-T3, positive at F3) -->
    <polyline fill="none" stroke="#00ff88" stroke-width="1.2" points="
      95,155 100,153 105,157 110,154 115,156 120,153 125,157 130,154 135,156 140,153 145,157 150,154 155,156 160,153 165,157 170,154 175,156 180,153 185,157 190,154 195,156 200,153 205,157 210,154 215,156 220,153 225,157 230,154 235,156 240,153 245,157 250,154 255,156 260,153 265,157 270,154 275,156
      278,158 280,170 282,168 285,160 290,155
      295,153 300,157 305,154 310,156 315,153 320,157 325,154 330,156 335,153 340,157 345,154 350,156 355,153 360,157 365,154 370,156 375,153 380,157 385,154 390,156 395,153 400,157 405,154 410,156 415,153 420,157 425,154 430,156 435,153 440,157 445,154 450,156 455,153 460,157 465,154 470,156 475,153 480,157 485,154 490,156 495,153
      498,158 500,170 502,168 505,160 510,155
      515,153 520,157 525,154 530,156 535,153 540,157 545,154 550,156 555,153 560,157 565,154 570,156 575,153 580,157 585,154 590,156 595,153 600,157 605,154 610,156 615,153 620,157 625,154 630,156 635,153 640,157 645,154 650,156 655,153 660,157 665,154 670,156 675,153 680,157 685,154 690,156 695,153 700,157 705,154 710,156 715,153 720,157 725,154 730,156 735,153 740,157 745,154 750,156 755,153 760,157 765,154 770,156 775,153 780,157 785,154 790,155"/>
    <!-- F4: Normal -->
    <polyline fill="none" stroke="#00ff88" stroke-width="1.2" points="
      95,195 100,193 105,197 110,194 115,196 120,193 125,197 130,194 135,196 140,193 145,197 150,194 155,196 160,193 165,197 170,194 175,196 180,193 185,197 190,194 195,196 200,193 205,197 210,194 215,196 220,193 225,197 230,194 235,196 240,193 245,197 250,194 255,196 260,193 265,197 270,194 275,196 280,195 285,194 290,196 295,193 300,197 305,194 310,196 315,193 320,197 325,194 330,196 335,193 340,197 345,194 350,196 355,193 360,197 365,194 370,196 375,193 380,197 385,194 390,196 395,193 400,197 405,194 410,196 415,193 420,197 425,194 430,196 435,193 440,197 445,194 450,196 455,193 460,197 465,194 470,196 475,193 480,197 485,194 490,196 495,193 500,195 505,194 510,196 515,193 520,197 525,194 530,196 535,193 540,197 545,194 550,196 555,193 560,197 565,194 570,196 575,193 580,197 585,194 590,196 595,193 600,197 605,194 610,196 615,193 620,197 625,194 630,196 635,193 640,197 645,194 650,196 655,193 660,197 665,194 670,196 675,193 680,197 685,194 690,196 695,193 700,197 705,194 710,196 715,193 720,197 725,194 730,196 735,193 740,197 745,194 750,196 755,193 760,197 765,194 770,196 775,193 780,197 785,194 790,195"/>
    <!-- C3: HIGH AMPLITUDE NEGATIVE SPIKE with slow wave (main focus) -->
    <polyline fill="none" stroke="#00ff88" stroke-width="1.5" points="
      95,235 100,233 105,237 110,234 115,236 120,233 125,237 130,234 135,236 140,233 145,237 150,234 155,236 160,233 165,237 170,234 175,236 180,233 185,237 190,234 195,236 200,233 205,237 210,234 215,236 220,233 225,237 230,234 235,236 240,233 245,237 250,234 255,236 260,233 265,237 270,234 275,236
      277,233 279,210 280,205 281,210 283,255 290,250 300,240 310,235
      315,233 320,237 325,234 330,236 335,233 340,237 345,234 350,236 355,233 360,237 365,234 370,236 375,233 380,237 385,234 390,236 395,233 400,237 405,234 410,236 415,233 420,237 425,234 430,236 435,233 440,237 445,234 450,236 455,233 460,237 465,234 470,236 475,233 480,237 485,234 490,236 495,233
      497,233 499,210 500,205 501,210 503,255 510,250 520,240 530,235
      535,233 540,237 545,234 550,236 555,233 560,237 565,234 570,236 575,233 580,237 585,234 590,236 595,233 600,237 605,234 610,236 615,233 620,237 625,234 630,236 635,233 640,237 645,234 650,236 655,233 660,237 665,234 670,236 675,233 680,237 685,234 690,236 695,233 700,237 705,234 710,236 715,233 720,237 725,234 730,236 735,233 740,237 745,234 750,236 755,233 760,237 765,234 770,236 775,233 780,237 785,234 790,235"/>
    <!-- T3: HIGH AMPLITUDE NEGATIVE SPIKE with slow wave (temporal focus) -->
    <polyline fill="none" stroke="#00ff88" stroke-width="1.5" points="
      95,275 100,273 105,277 110,274 115,276 120,273 125,277 130,274 135,276 140,273 145,277 150,274 155,276 160,273 165,277 170,274 175,276 180,273 185,277 190,274 195,276 200,273 205,277 210,274 215,276 220,273 225,277 230,274 235,276 240,273 245,277 250,274 255,276 260,273 265,277 270,274 275,276
      277,273 279,248 280,243 281,248 283,298 290,293 300,282 310,275
      315,273 320,277 325,274 330,276 335,273 340,277 345,274 350,276 355,273 360,277 365,274 370,276 375,273 380,277 385,274 390,276 395,273 400,277 405,274 410,276 415,273 420,277 425,274 430,276 435,273 440,277 445,274 450,276 455,273 460,277 465,274 470,276 475,273 480,277 485,274 490,276 495,273
      497,273 499,248 500,243 501,248 503,298 510,293 520,282 530,275
      535,273 540,277 545,274 550,276 555,273 560,277 565,274 570,276 575,273 580,277 585,274 590,276 595,273 600,277 605,274 610,276 615,273 620,277 625,274 630,276 635,273 640,277 645,274 650,276 655,273 660,277 665,274 670,276 675,273 680,277 685,274 690,276 695,273 700,277 705,274 710,276 715,273 720,277 725,274 730,276 735,273 740,277 745,274 750,276 755,273 760,277 765,274 770,276 775,273 780,277 785,274 790,275"/>
    <!-- O1: Normal background -->
    <polyline fill="none" stroke="#00ff88" stroke-width="1.2" points="
      95,315 100,313 105,317 110,314 115,316 120,313 125,317 130,314 135,316 140,313 145,317 150,314 155,316 160,313 165,317 170,314 175,316 180,313 185,317 190,314 195,316 200,313 205,317 210,314 215,316 220,313 225,317 230,314 235,316 240,313 245,317 250,314 255,316 260,313 265,317 270,314 275,316 280,315 285,314 290,316 295,313 300,317 305,314 310,316 315,313 320,317 325,314 330,316 335,313 340,317 345,314 350,316 355,313 360,317 365,314 370,316 375,313 380,317 385,314 390,316 395,313 400,317 405,314 410,316 415,313 420,317 425,314 430,316 435,313 440,317 445,314 450,316 455,313 460,317 465,314 470,316 475,313 480,317 485,314 490,316 495,313 500,315 505,314 510,316 515,313 520,317 525,314 530,316 535,313 540,317 545,314 550,316 555,313 560,317 565,314 570,316 575,313 580,317 585,314 590,316 595,313 600,317 605,314 610,316 615,313 620,317 625,314 630,316 635,313 640,317 645,314 650,316 655,313 660,317 665,314 670,316 675,313 680,317 685,314 690,316 695,313 700,317 705,314 710,316 715,313 720,317 725,314 730,316 735,313 740,317 745,314 750,316 755,313 760,317 765,314 770,316 775,313 780,317 785,314 790,315"/>
    <!-- O2: Normal background -->
    <polyline fill="none" stroke="#00ff88" stroke-width="1.2" points="
      95,355 100,353 105,357 110,354 115,356 120,353 125,357 130,354 135,356 140,353 145,357 150,354 155,356 160,353 165,357 170,354 175,356 180,353 185,357 190,354 195,356 200,353 205,357 210,354 215,356 220,353 225,357 230,354 235,356 240,353 245,357 250,354 255,356 260,353 265,357 270,354 275,356 280,355 285,354 290,356 295,353 300,357 305,354 310,356 315,353 320,357 325,354 330,356 335,353 340,357 345,354 350,356 355,353 360,357 365,354 370,356 375,353 380,357 385,354 390,356 395,353 400,357 405,354 410,356 415,353 420,357 425,354 430,356 435,353 440,357 445,354 450,356 455,353 460,357 465,354 470,356 475,353 480,357 485,354 490,356 495,353 500,355 505,354 510,356 515,353 520,357 525,354 530,356 535,353 540,357 545,354 550,356 555,353 560,357 565,354 570,356 575,353 580,357 585,354 590,356 595,353 600,357 605,354 610,356 615,353 620,357 625,354 630,356 635,353 640,357 645,354 650,356 655,353 660,357 665,354 670,356 675,353 680,357 685,354 690,356 695,353 700,357 705,354 710,356 715,353 720,357 725,354 730,356 735,353 740,357 745,354 750,356 755,353 760,357 765,354 770,356 775,353 780,357 785,354 790,355"/>
  </g>
  <!-- Dipole annotation -->
  <rect x="600" y="215" width="185" height="55" fill="#0d0d1a" stroke="#333355" stroke-width="1" rx="4"/>
  <text x="692" y="232" text-anchor="middle" fill="#ffbb33" font-family="Consolas, monospace" font-size="10" font-weight="bold">Horizontal Dipole:</text>
  <text x="692" y="246" text-anchor="middle" fill="#ff6666" font-family="Consolas, monospace" font-size="10">(-) Negative at C3-T3</text>
  <text x="692" y="260" text-anchor="middle" fill="#66bbff" font-family="Consolas, monospace" font-size="10">(+) Positive at F3</text>
  <!-- Spike labels -->
  <text x="280" y="200" text-anchor="middle" fill="#ff6666" font-family="Consolas, monospace" font-size="9">Blunt spike + slow wave</text>
  <text x="500" y="200" text-anchor="middle" fill="#ff6666" font-family="Consolas, monospace" font-size="9">Blunt spike + slow wave</text>
  <!-- Scale bars -->
  <line x1="720" y1="48" x2="780" y2="48" stroke="#ffbb33" stroke-width="2"/>
  <text x="750" y="43" text-anchor="middle" fill="#ffbb33" font-family="Consolas, monospace" font-size="9">1 sec</text>
  <line x1="88" y1="55" x2="88" y2="85" stroke="#ffbb33" stroke-width="2"/>
  <line x1="85" y1="55" x2="91" y2="55" stroke="#ffbb33" stroke-width="2"/>
  <line x1="85" y1="85" x2="91" y2="85" stroke="#ffbb33" stroke-width="2"/>
  <text x="78" y="73" text-anchor="end" fill="#ffbb33" font-family="Consolas, monospace" font-size="8">100uV</text>
  <!-- Clinical note -->
  <text x="400" y="395" text-anchor="middle" fill="#667788" font-family="Consolas, monospace" font-size="9">Normal background | Activated by drowsiness and sleep | Centrotemporal focus (C3-T3)</text>
</svg>