<svg xmlns="http://www.w3.org/2000/svg" viewBox="0 0 800 400" width="800" height="400">
  <defs>
    <filter id="glow">
      <feGaussianBlur stdDeviation="1" result="coloredBlur"/>
      <feMerge><feMergeNode in="coloredBlur"/><feMergeNode in="SourceGraphic"/></feMerge>
    </filter>
    <clipPath id="traceClip"><rect x="95" y="40" width="700" height="355"/></clipPath>
  </defs>
  <rect width="800" height="400" fill="#1a1a2e"/>
  <rect x="0" y="0" width="800" height="40" fill="#0d0d1a" stroke="#333355" stroke-width="1"/>
  <text x="400" y="27" text-anchor="middle" fill="#00ff88" font-family="Consolas, monospace" font-size="15" font-weight="bold">Focal Seizure with Evolution and Spread</text>
  <!-- Channel labels: Fp1, F3, C3, T3(focus), P3, O1, Fp2, F4 -->
  <g font-family="Consolas, monospace" font-size="11" fill="#aabbcc">
    <text x="88" y="78" text-anchor="end">Fp1</text>
    <text x="88" y="118" text-anchor="end">F3</text>
    <text x="88" y="158" text-anchor="end">C3</text>
    <text x="88" y="198" text-anchor="end">T3</text>
    <text x="88" y="238" text-anchor="end">P3</text>
    <text x="88" y="278" text-anchor="end">O1</text>
    <text x="88" y="318" text-anchor="end">Fp2</text>
    <text x="88" y="358" text-anchor="end">F4</text>
  </g>
  <!-- T3 label highlight (seizure focus) -->
  <rect x="60" y="189" width="30" height="16" fill="#ff4444" fill-opacity="0.15" rx="2"/>
  <!-- Baselines -->
  <g stroke="#222244" stroke-width="0.5">
    <line x1="95" y1="75" x2="790" y2="75"/>
    <line x1="95" y1="115" x2="790" y2="115"/>
    <line x1="95" y1="155" x2="790" y2="155"/>
    <line x1="95" y1="195" x2="790" y2="195"/>
    <line x1="95" y1="235" x2="790" y2="235"/>
    <line x1="95" y1="275" x2="790" y2="275"/>
    <line x1="95" y1="315" x2="790" y2="315"/>
    <line x1="95" y1="355" x2="790" y2="355"/>
  </g>

  <!-- Seizure onset marker -->
  <line x1="280" y1="45" x2="280" y2="390" stroke="#ff4444" stroke-width="1" stroke-dasharray="4,4"/>
  <!-- Spread onset marker (F3) -->
  <line x1="440" y1="45" x2="440" y2="170" stroke="#ffbb33" stroke-width="0.8" stroke-dasharray="3,4"/>
  <!-- Spread onset marker (C3) -->
  <line x1="480" y1="140" x2="480" y2="170" stroke="#ffbb33" stroke-width="0.8" stroke-dasharray="3,4"/>

  <!-- Phase labels at top -->
  <rect x="95" y="42" width="183" height="14" fill="#00ff88" fill-opacity="0.05" stroke="#00ff88" stroke-width="0.5" stroke-dasharray="3,3"/>
  <text x="186" y="53" text-anchor="middle" fill="#00aa66" font-family="Consolas, monospace" font-size="9">Normal Background</text>

  <rect x="280" y="42" width="158" height="14" fill="#ff4444" fill-opacity="0.1" stroke="#ff4444" stroke-width="0.5"/>
  <text x="359" y="53" text-anchor="middle" fill="#ff6666" font-family="Consolas, monospace" font-size="9">Seizure Onset (T3)</text>

  <rect x="440" y="42" width="160" height="14" fill="#ffbb33" fill-opacity="0.1" stroke="#ffbb33" stroke-width="0.5"/>
  <text x="520" y="53" text-anchor="middle" fill="#ffbb33" font-family="Consolas, monospace" font-size="9">Evolution + Spread</text>

  <rect x="602" y="42" width="188" height="14" fill="#ff6666" fill-opacity="0.08" stroke="#ff6666" stroke-width="0.5"/>
  <text x="696" y="53" text-anchor="middle" fill="#ff6666" font-family="Consolas, monospace" font-size="9">Generalized Involvement</text>

  <g clip-path="url(#traceClip)" filter="url(#glow)">
    <!-- Fp1: y=75, stays normal throughout -->
    <polyline fill="none" stroke="#00ff88" stroke-width="1.2" points="
      95,75 100,72 105,78 110,73 115,77 120,72 125,78 130,74 135,76 140,73 145,77 150,72 155,78 160,74 165,76 170,73 175,77 180,72 185,78 190,74 195,76 200,73 205,77 210,72 215,78 220,74 225,76 230,73 235,77 240,72 245,78 250,74 255,76 260,73 265,77 270,72 275,78
      280,74 285,76 290,73 295,77 300,72 305,78 310,74 315,76 320,73 325,77 330,72 335,78 340,74 345,76 350,73 355,77 360,72 365,78 370,74 375,76 380,73 385,77 390,72 395,78 400,74 405,76 410,73 415,77 420,72 425,78 430,74 435,76
      440,73 445,77 450,72 455,78 460,74 465,76 470,73 475,77 480,72 485,78 490,74 495,76 500,73 505,77 510,72 515,78 520,74 525,76 530,73 535,77 540,72 545,78 550,74 555,76 560,73 565,77 570,72 575,78 580,74 585,76 590,73 595,77 600,72
      605,74 610,78 615,72 620,76 625,73 630,78 635,72 640,76 645,74 650,78 655,72 660,76 665,73 670,78 675,72 680,76 685,74 690,78 695,72 700,76 705,73 710,78 715,72 720,76 725,74 730,78 735,72 740,76 745,73 750,78 755,72 760,76 765,74 770,78 775,72 780,76 785,74 790,75"/>

    <!-- F3: y=115, normal -> spread begins ~440 with rhythmic sharp activity -->
    <polyline fill="none" stroke="#00ff88" stroke-width="1.2" points="
      95,115 100,112 105,118 110,113 115,117 120,112 125,118 130,114 135,116 140,113 145,117 150,112 155,118 160,114 165,116 170,113 175,117 180,112 185,118 190,114 195,116 200,113 205,117 210,112 215,118 220,114 225,116 230,113 235,117 240,112 245,118 250,114 255,116 260,113 265,117 270,112 275,118
      280,114 285,116 290,113 295,117 300,112 305,118 310,114 315,116 320,113 325,117 330,112 335,118 340,114 345,116 350,113 355,117 360,112 365,118 370,114 375,116 380,113 385,117 390,112 395,118 400,114 405,116 410,113 415,117 420,112 425,118 430,114 435,116
      440,113 442,107 444,120 446,106 448,121 450,108 452,118 454,110 456,116 458,108 460,120 462,106 464,122 466,108 468,118 470,110 472,116 474,106 476,122 478,108 480,118
      482,104 484,124 486,102 488,126 490,104 492,122 494,106 496,120 498,102 500,126 502,104 504,122 506,106 508,120 510,102 512,126 514,106 516,118 518,104 520,124 522,106 524,120 526,104 528,124 530,106 532,120 534,106 536,122 538,104 540,124 542,106 544,120 546,108 548,118 550,106 552,124 554,104 556,122 558,106 560,120 562,106 564,122 566,104 568,124 570,106 572,122 574,108 576,118 578,108 580,120 582,106 584,124 586,104 588,122 590,108 592,118 594,108 596,122 598,106 600,120
      602,104 604,124 606,102 608,126 610,104 612,124 614,106 616,122 618,108 620,120 622,106 624,124 626,104 628,122 630,108 632,120 634,106 636,124 638,104 640,122 642,108 644,118 646,108 648,122 650,106 652,124 654,104 656,122 658,108 660,118 662,108 664,122 666,106 668,122 670,108 672,120 674,108 676,120 678,108 680,120 682,108 684,122 686,106 688,124 690,106 692,122 694,108 696,118 698,110 700,118 702,110 704,120 706,108 708,122 710,108 712,120 714,110 716,118 718,110 720,120 722,108 724,122 726,108 728,120 730,110 732,118 734,110 736,120 738,108 740,122 742,108 744,120 746,110 748,118 750,110 752,120 754,108 756,120 758,110 760,118 762,110 764,118 766,112 768,118 770,112 772,118 774,110 776,120 778,110 780,118 782,112 784,118 786,112 788,116 790,115"/>

    <!-- C3: y=155, normal -> spread begins ~480, slight delay after F3 -->
    <polyline fill="none" stroke="#00ff88" stroke-width="1.2" points="
      95,155 100,152 105,158 110,153 115,157 120,152 125,158 130,154 135,156 140,153 145,157 150,152 155,158 160,154 165,156 170,153 175,157 180,152 185,158 190,154 195,156 200,153 205,157 210,152 215,158 220,154 225,156 230,153 235,157 240,152 245,158 250,154 255,156 260,153 265,157 270,152 275,158
      280,154 285,156 290,153 295,157 300,152 305,158 310,154 315,156 320,153 325,157 330,152 335,158 340,154 345,156 350,153 355,157 360,152 365,158 370,154 375,156 380,153 385,157 390,152 395,158 400,154 405,156 410,153 415,157 420,152 425,158 430,154 435,156 440,153 445,157 450,152 455,158 460,154 465,156 470,153 475,157
      480,153 482,147 484,162 486,146 488,164 490,148 492,160 494,150 496,158 498,146 500,164 502,148 504,160 506,150 508,158 510,146 512,164 514,148 516,160 518,150 520,158 522,146 524,164 526,148 528,160 530,148 532,162 534,146 536,164 538,148 540,162 542,148 544,160 546,150 548,158 550,148 552,162 554,146 556,164 558,148 560,160 562,148 564,162 566,146 568,164 570,148 572,160 574,150 576,158 578,150 580,160 582,148 584,162 586,146 588,164 590,150 592,158 594,150 596,160 598,148 600,160
      602,146 604,164 606,144 608,166 610,146 612,164 614,148 616,162 618,150 620,160 622,148 624,164 626,146 628,162 630,148 632,160 634,148 636,162 638,146 640,164 642,148 644,160 646,150 648,158 650,148 652,162 654,146 656,164 658,148 660,160 662,150 664,158 666,148 668,162 670,150 672,158 674,150 676,160 678,150 680,158 682,150 684,162 686,148 688,162 690,150 692,158 694,150 696,160 698,152 700,158 702,152 704,160 706,150 708,162 710,150 712,158 714,152 716,158 718,152 720,160 722,150 724,162 726,150 728,158 730,152 732,158 734,152 736,160 738,150 740,160 742,152 744,158 746,152 748,158 750,152 752,158 754,152 756,158 758,152 760,158 762,152 764,158 766,152 768,158 770,154 772,158 774,152 776,158 778,152 780,156 782,154 784,158 786,154 788,156 790,155"/>

    <!-- T3: y=195, SEIZURE FOCUS: normal -> onset at 280 -> fast rhythmic sharps -> evolution (freq slows, amplitude grows) -->
    <polyline fill="none" stroke="#ffbb33" stroke-width="1.5" points="
      95,195 100,192 105,198 110,193 115,197 120,192 125,198 130,194 135,196 140,193 145,197 150,192 155,198 160,194 165,196 170,193 175,197 180,192 185,198 190,194 195,196 200,193 205,197 210,192 215,198 220,194 225,196 230,193 235,197 240,192 245,198 250,194 255,196 260,193 265,197 270,192 275,198
      280,190 282,170 284,210 286,168 288,212 290,170 292,208 294,172 296,206 298,168 300,212 302,170 304,208 306,172 308,206 310,168 312,212 314,170 316,208 318,172 320,206 322,168 324,212 326,170 328,208 330,172 332,206 334,168 336,212 338,170 340,210 342,172 344,208 346,170 348,210 350,172 352,206 354,170 356,210
      358,168 360,214 362,170 364,210 366,172 368,208 370,172 372,210 374,172 376,208 378,174 380,206 382,174 384,210 386,172 388,208 390,174 392,206 394,174 396,210 398,174 400,208
      402,172 404,214 406,170 408,212 410,174 412,208 414,176 416,206 418,176 420,210 422,174 424,212 426,172 428,214 430,174 432,208 434,176 436,206
      438,174 440,216 442,172 444,214 446,176 448,208 450,178 452,206 454,178 456,212 458,176 460,214 462,174 464,216 466,176 468,210 470,178 472,208 474,180 476,206 478,180 480,214
      482,176 484,218 486,174 488,216 490,178 492,210 494,180 496,208 498,180 500,216 502,178 504,214 506,176 508,218 510,178 512,212 514,180 516,210
      518,180 520,218 522,178 524,216 526,180 528,212 530,182 532,210 534,182 536,218 538,180 540,216 542,178 544,218 546,180 548,212 550,182 552,210
      554,182 556,220 558,180 560,218 562,182 564,214 566,184 568,212 570,184 572,220 574,182 576,218 578,180 580,220 582,182 584,214 586,184 588,212
      590,184 592,220 594,182 596,218 598,184 600,216
      602,184 604,222 606,182 608,220 610,184 612,216 614,186 616,214 618,186 620,222 622,184 624,218 626,184 628,220 630,186 632,214 634,186 636,216
      638,186 640,222 642,184 644,220 646,186 648,216 650,188 652,214 654,188 656,222 658,186 660,218 662,186 664,220 666,188 668,216 670,188 672,218
      674,188 676,222 678,186 680,220 682,188 684,218 686,188 688,220 690,188 692,218 694,190 696,216 698,190 700,218 702,190 704,216 706,190 708,220 710,188 712,218 714,190 716,216 718,190 720,218 722,190 724,216 726,190 728,218 730,190 732,216 734,192 736,218 738,190 740,216 742,192 744,214 746,192 748,216 750,192 752,214 754,192 756,216 758,192 760,214 762,192 764,216 766,192 768,214 770,192 772,216 774,192 776,214 778,194 780,212 782,194 784,214 786,194 788,212 790,195"/>

    <!-- P3: y=235, stays mostly normal -->
    <polyline fill="none" stroke="#00ff88" stroke-width="1.2" points="
      95,235 100,232 105,238 110,233 115,237 120,232 125,238 130,234 135,236 140,233 145,237 150,232 155,238 160,234 165,236 170,233 175,237 180,232 185,238 190,234 195,236 200,233 205,237 210,232 215,238 220,234 225,236 230,233 235,237 240,232 245,238 250,234 255,236 260,233 265,237 270,232 275,238
      280,234 285,236 290,233 295,237 300,232 305,238 310,234 315,236 320,233 325,237 330,232 335,238 340,234 345,236 350,233 355,237 360,232 365,238 370,234 375,236 380,233 385,237 390,232 395,238 400,234 405,236 410,233 415,237 420,232 425,238 430,234 435,236 440,233 445,237 450,232 455,238 460,234 465,236 470,233 475,237 480,232 485,238 490,234 495,236 500,233 505,237 510,232 515,238 520,234 525,236 530,233 535,237 540,232 545,238 550,234 555,236 560,233 565,237 570,232 575,238 580,234 585,236 590,233 595,237 600,232
      605,234 610,238 615,232 620,236 625,233 630,238 635,232 640,236 645,234 650,238 655,232 660,236 665,233 670,238 675,232 680,236 685,234 690,238 695,232 700,236 705,233 710,238 715,232 720,236 725,234 730,238 735,232 740,236 745,233 750,238 755,232 760,236 765,234 770,238 775,232 780,236 785,234 790,235"/>

    <!-- O1: y=275, normal throughout -->
    <polyline fill="none" stroke="#00ff88" stroke-width="1.2" points="
      95,275 100,272 105,278 110,273 115,277 120,272 125,278 130,274 135,276 140,273 145,277 150,272 155,278 160,274 165,276 170,273 175,277 180,272 185,278 190,274 195,276 200,273 205,277 210,272 215,278 220,274 225,276 230,273 235,277 240,272 245,278 250,274 255,276 260,273 265,277 270,272 275,278
      280,274 285,276 290,273 295,277 300,272 305,278 310,274 315,276 320,273 325,277 330,272 335,278 340,274 345,276 350,273 355,277 360,272 365,278 370,274 375,276 380,273 385,277 390,272 395,278 400,274 405,276 410,273 415,277 420,272 425,278 430,274 435,276 440,273 445,277 450,272 455,278 460,274 465,276 470,273 475,277 480,272 485,278 490,274 495,276 500,273 505,277 510,272 515,278 520,274 525,276 530,273 535,277 540,272 545,278 550,274 555,276 560,273 565,277 570,272 575,278 580,274 585,276 590,273 595,277 600,272
      605,274 610,278 615,272 620,276 625,273 630,278 635,272 640,276 645,274 650,278 655,272 660,276 665,273 670,278 675,272 680,276 685,274 690,278 695,272 700,276 705,273 710,278 715,272 720,276 725,274 730,278 735,272 740,276 745,273 750,278 755,272 760,276 765,274 770,278 775,272 780,276 785,274 790,275"/>

    <!-- Fp2: y=315, normal throughout (contralateral) -->
    <polyline fill="none" stroke="#00ff88" stroke-width="1.2" points="
      95,315 100,312 105,318 110,313 115,317 120,312 125,318 130,314 135,316 140,313 145,317 150,312 155,318 160,314 165,316 170,313 175,317 180,312 185,318 190,314 195,316 200,313 205,317 210,312 215,318 220,314 225,316 230,313 235,317 240,312 245,318 250,314 255,316 260,313 265,317 270,312 275,318
      280,314 285,316 290,313 295,317 300,312 305,318 310,314 315,316 320,313 325,317 330,312 335,318 340,314 345,316 350,313 355,317 360,312 365,318 370,314 375,316 380,313 385,317 390,312 395,318 400,314 405,316 410,313 415,317 420,312 425,318 430,314 435,316 440,313 445,317 450,312 455,318 460,314 465,316 470,313 475,317 480,312 485,318 490,314 495,316 500,313 505,317 510,312 515,318 520,314 525,316 530,313 535,317 540,312 545,318 550,314 555,316 560,313 565,317 570,312 575,318 580,314 585,316 590,313 595,317 600,312
      605,314 610,318 615,312 620,316 625,313 630,318 635,312 640,316 645,314 650,318 655,312 660,316 665,313 670,318 675,312 680,316 685,314 690,318 695,312 700,316 705,313 710,318 715,312 720,316 725,314 730,318 735,312 740,316 745,313 750,318 755,312 760,316 765,314 770,318 775,312 780,316 785,314 790,315"/>

    <!-- F4: y=355, normal throughout (contralateral) -->
    <polyline fill="none" stroke="#00ff88" stroke-width="1.2" points="
      95,355 100,352 105,358 110,353 115,357 120,352 125,358 130,354 135,356 140,353 145,357 150,352 155,358 160,354 165,356 170,353 175,357 180,352 185,358 190,354 195,356 200,353 205,357 210,352 215,358 220,354 225,356 230,353 235,357 240,352 245,358 250,354 255,356 260,353 265,357 270,352 275,358
      280,354 285,356 290,353 295,357 300,352 305,358 310,354 315,356 320,353 325,357 330,352 335,358 340,354 345,356 350,353 355,357 360,352 365,358 370,354 375,356 380,353 385,357 390,352 395,358 400,354 405,356 410,353 415,357 420,352 425,358 430,354 435,356 440,353 445,357 450,352 455,358 460,354 465,356 470,353 475,357 480,352 485,358 490,354 495,356 500,353 505,357 510,352 515,358 520,354 525,356 530,353 535,357 540,352 545,358 550,354 555,356 560,353 565,357 570,352 575,358 580,354 585,356 590,353 595,357 600,352
      605,354 610,358 615,352 620,356 625,353 630,358 635,352 640,356 645,354 650,358 655,352 660,356 665,353 670,358 675,352 680,356 685,354 690,358 695,352 700,356 705,353 710,358 715,352 720,356 725,354 730,358 735,352 740,356 745,353 750,358 755,352 760,356 765,354 770,358 775,352 780,356 785,354 790,355"/>
  </g>

  <!-- Annotations -->
  <!-- Seizure Onset arrow -->
  <line x1="280" y1="182" x2="280" y2="191" stroke="#ff4444" stroke-width="1.5"/>
  <polygon points="280,191 277,185 283,185" fill="#ff4444"/>
  <text x="278" y="178" text-anchor="middle" fill="#ff4444" font-family="Consolas, monospace" font-size="9" font-weight="bold">Seizure Onset</text>

  <!-- Evolution label -->
  <text x="450" y="222" text-anchor="middle" fill="#ffbb33" font-family="Consolas, monospace" font-size="9" font-weight="bold">Evolution (freq slowing)</text>

  <!-- Spread labels -->
  <text x="460" y="108" text-anchor="middle" fill="#ffbb33" font-family="Consolas, monospace" font-size="8">Spread to F3</text>
  <line x1="460" y1="110" x2="460" y2="115" stroke="#ffbb33" stroke-width="0.8"/>
  <text x="500" y="148" text-anchor="middle" fill="#ffbb33" font-family="Consolas, monospace" font-size="8">Spread to C3</text>
  <line x1="500" y1="150" x2="500" y2="155" stroke="#ffbb33" stroke-width="0.8"/>

  <!-- Clinical info box -->
  <rect x="620" y="62" width="168" height="52" fill="#0d0d1a" stroke="#333355" stroke-width="1" rx="4"/>
  <text x="704" y="78" text-anchor="middle" fill="#ff6666" font-family="Consolas, monospace" font-size="10" font-weight="bold">Focal Seizure</text>
  <text x="704" y="90" text-anchor="middle" fill="#667788" font-family="Consolas, monospace" font-size="9">Origin: Left temporal (T3)</text>
  <text x="704" y="100" text-anchor="middle" fill="#667788" font-family="Consolas, monospace" font-size="9">Spread: F3 then C3</text>
  <text x="704" y="110" text-anchor="middle" fill="#667788" font-family="Consolas, monospace" font-size="9">Evolution: Freq decrease</text>

  <!-- Scale bars -->
  <line x1="720" y1="48" x2="780" y2="48" stroke="#ffbb33" stroke-width="2"/>
  <text x="750" y="43" text-anchor="middle" fill="#ffbb33" font-family="Consolas, monospace" font-size="9">1 sec</text>
  <line x1="88" y1="55" x2="88" y2="95" stroke="#ffbb33" stroke-width="2"/>
  <line x1="85" y1="55" x2="91" y2="55" stroke="#ffbb33" stroke-width="2"/>
  <line x1="85" y1="95" x2="91" y2="95" stroke="#ffbb33" stroke-width="2"/>
  <text x="78" y="78" text-anchor="end" fill="#ffbb33" font-family="Consolas, monospace" font-size="8">100uV</text>
</svg>