<svg xmlns="http://www.w3.org/2000/svg" viewBox="0 0 800 400" width="800" height="400">
  <defs>
    <filter id="glow">
      <feGaussianBlur stdDeviation="0.8" result="coloredBlur"/>
      <feMerge><feMergeNode in="coloredBlur"/><feMergeNode in="SourceGraphic"/></feMerge>
    </filter>
    <clipPath id="traceClip"><rect x="95" y="40" width="700" height="355"/></clipPath>
  </defs>
  <rect width="800" height="400" fill="#1a1a2e"/>
  <rect x="0" y="0" width="800" height="40" fill="#0d0d1a" stroke="#333355" stroke-width="1"/>
  <text x="400" y="27" text-anchor="middle" fill="#00ff88" font-family="Consolas, monospace" font-size="16" font-weight="bold">Hypsarrhythmia (West Syndrome / Infantile Spasms)</text>
  <!-- Channel labels -->
  <g font-family="Consolas, monospace" font-size="11" fill="#aabbcc">
    <text x="88" y="78" text-anchor="end">Fp1</text>
    <text x="88" y="118" text-anchor="end">Fp2</text>
    <text x="88" y="158" text-anchor="end">F3</text>
    <text x="88" y="198" text-anchor="end">F4</text>
    <text x="88" y="238" text-anchor="end">C3</text>
    <text x="88" y="278" text-anchor="end">C4</text>
    <text x="88" y="318" text-anchor="end">O1</text>
    <text x="88" y="358" text-anchor="end">O2</text>
  </g>
  <!-- Baselines (barely visible - pattern is so chaotic) -->
  <g stroke="#1a1a30" stroke-width="0.3">
    <line x1="95" y1="75" x2="790" y2="75"/>
    <line x1="95" y1="115" x2="790" y2="115"/>
    <line x1="95" y1="155" x2="790" y2="155"/>
    <line x1="95" y1="195" x2="790" y2="195"/>
    <line x1="95" y1="235" x2="790" y2="235"/>
    <line x1="95" y1="275" x2="790" y2="275"/>
    <line x1="95" y1="315" x2="790" y2="315"/>
    <line x1="95" y1="355" x2="790" y2="355"/>
  </g>
  <g clip-path="url(#traceClip)" filter="url(#glow)">
    <!-- Fp1: Chaotic, very high amplitude, asynchronous. Mix of spikes, sharp waves, slow waves -->
    <polyline fill="none" stroke="#00ff88" stroke-width="1.3" points="
      95,75 100,55 103,90 106,48 109,85 112,65 115,95 117,42 120,88 123,52 126,78 128,95 130,45 133,92 136,55 139,82 141,50 144,90 147,48 150,85 152,55 155,95 158,40 161,88 163,62 166,90 169,50 172,80 175,45 178,92 180,55 183,88 186,48 189,85 191,60 194,92 197,42 200,78 203,95 205,50 208,85 211,45 214,90 216,55 219,88 222,48 225,80 228,95 230,42 233,88 236,55 239,82 241,50 244,95 247,40 250,85 253,60 255,90 258,48 261,82 264,55 266,95 269,42 272,88 275,50 278,80 280,95 283,45 286,85 289,55 291,92 294,48 297,80 300,45 303,92 305,55 308,85 311,42 314,90 316,60 319,88 322,48 325,80 327,95 330,42 333,85 336,55 339,92 341,48 344,82 347,55 350,90 352,40 355,88 358,60 361,92 363,45 366,85 369,50 372,95 374,42 377,80 380,55 383,92 385,48 388,85 391,60 394,90 396,42 399,80 402,95 405,50 407,85 410,42 413,92 416,55 418,88 421,48 424,82 427,55 429,95 432,40 435,85 438,60 440,90 443,48 446,80 449,55 451,92 454,42 457,88 460,55 462,82 465,95 468,42 471,85 473,50 476,90 479,55 482,88 484,48 487,80 490,55 493,95 495,40 498,85 501,60 504,92 506,45 509,88 512,50 515,80 517,95 520,42 523,85 526,55 528,92 531,48 534,80 537,55 539,90 542,42 545,88 548,60 550,82 553,95 556,45 559,85 561,50 564,92 567,42 570,88 572,55 575,82 578,95 580,42 583,80 586,55 589,92 591,48 594,85 597,55 600,90 602,42 605,88 608,60 610,80 613,95 616,42 619,85 621,50 624,92 627,48 630,80 632,55 635,95 638,42 641,85 643,55 646,90 649,48 651,82 654,55 657,95 659,40 662,88 665,60 668,85 670,48 673,92 676,55 678,80 681,95 684,42 687,85 689,50 692,90 695,55 698,88 700,42 703,80 706,95 708,48 711,85 714,55 717,92 719,42 722,80 725,55 727,90 730,48 733,85 736,55 738,92 741,42 744,88 747,60 749,80 752,95 755,45 758,85 760,50 763,92 766,48 769,80 771,55 774,90 777,42 780,85 783,55 786,90 789,48 790,75"/>
    <!-- Fp2: Different chaotic pattern (asynchronous) -->
    <polyline fill="none" stroke="#00ff88" stroke-width="1.3" points="
      95,115 98,135 101,92 104,130 107,95 110,132 112,88 115,128 118,100 121,135 123,90 126,125 129,95 132,138 134,88 137,130 140,95 143,128 145,92 148,135 151,88 154,125 156,100 159,135 162,88 165,130 167,95 170,132 173,90 176,128 178,100 181,138 184,88 187,130 189,95 192,135 195,88 198,125 200,100 203,132 206,90 209,128 211,95 214,138 217,88 220,130 222,100 225,135 228,90 231,125 233,95 236,132 239,90 242,128 244,100 247,138 250,85 253,130 256,95 258,135 261,90 264,128 267,95 269,138 272,88 275,125 278,100 280,132 283,90 286,128 289,100 291,138 294,85 297,130 300,95 302,135 305,88 308,128 311,95 313,138 316,88 319,130 322,95 324,135 327,90 330,128 333,100 335,138 338,85 341,130 344,95 346,132 349,90 352,128 355,100 357,138 360,88 363,125 366,95 368,135 371,90 374,130 376,95 379,138 382,88 385,130 387,95 390,132 393,90 396,128 398,100 401,138 404,85 407,130 409,95 412,135 415,88 418,128 420,100 423,132 426,90 429,128 431,95 434,138 437,85 440,130 442,100 445,135 448,90 451,128 453,95 456,132 459,90 462,128 464,100 467,138 470,85 473,125 476,100 478,135 481,88 484,130 486,95 489,138 492,85 495,130 497,100 500,135 503,88 506,125 509,95 511,138 514,88 517,130 519,95 522,132 525,90 528,128 530,100 533,138 536,85 539,130 541,95 544,135 547,90 550,128 552,100 555,132 558,88 561,128 563,100 566,138 569,85 572,130 574,95 577,135 580,88 583,128 585,100 588,135 591,88 594,130 596,95 599,138 602,88 605,125 607,100 610,135 613,88 616,128 618,95 621,138 624,85 627,130 629,100 632,135 635,88 638,128 640,95 643,138 646,85 649,130 651,95 654,135 657,88 660,128 662,100 665,132 668,90 671,128 673,95 676,138 679,85 682,130 684,100 687,135 690,88 693,125 695,100 698,132 701,90 704,128 706,100 709,138 712,88 715,130 717,95 720,135 723,88 726,128 728,100 731,135 734,88 737,130 739,95 742,138 745,88 748,125 750,100 753,132 756,90 759,128 761,100 764,138 767,85 770,130 772,95 775,132 778,90 781,128 783,100 786,135 789,88 790,115"/>
    <!-- F3: Chaotic high amplitude -->
    <polyline fill="none" stroke="#00ff88" stroke-width="1.3" points="
      95,155 98,140 101,175 104,130 107,170 110,140 113,178 115,128 118,168 121,142 124,172 126,135 129,175 132,130 135,165 137,145 140,178 143,128 146,170 148,140 151,172 154,132 157,178 159,135 162,168 165,140 168,175 170,130 173,170 176,140 178,178 181,128 184,165 187,145 189,175 192,130 195,168 198,140 200,178 203,128 206,172 209,140 211,170 214,132 217,178 220,135 222,168 225,140 228,178 230,128 233,165 236,145 238,172 241,130 244,170 247,140 249,178 252,128 255,168 258,142 260,175 263,130 266,172 269,138 271,178 274,130 277,165 280,145 282,175 285,132 288,170 291,140 293,178 296,128 299,168 302,140 304,175 307,130 310,172 313,138 315,178 318,128 321,168 324,142 326,175 329,130 332,170 335,140 337,178 340,128 343,165 346,145 348,175 351,130 354,168 357,140 359,178 362,128 365,172 368,138 370,175 373,130 376,168 379,142 381,178 384,128 387,165 390,145 392,172 395,130 398,170 401,140 403,178 406,128 409,168 412,142 414,175 417,130 420,170 423,138 425,178 428,128 431,165 434,145 436,175 439,130 442,168 445,140 447,178 450,128 453,172 456,138 458,175 461,130 464,168 467,142 469,178 472,128 475,165 478,140 480,175 483,130 486,170 489,138 491,178 494,128 497,165 500,145 502,172 505,130 508,170 511,140 513,178 516,128 519,168 522,142 524,175 527,130 530,172 533,138 535,178 538,128 541,165 544,145 546,175 549,130 552,168 555,140 557,178 560,128 563,172 566,138 568,175 571,130 574,168 577,142 579,178 582,128 585,165 588,145 590,175 593,130 596,168 599,140 601,178 604,128 607,172 610,138 612,175 615,130 618,168 621,142 623,178 626,128 629,165 632,145 634,175 637,130 640,170 643,140 645,178 648,128 651,168 654,142 656,175 659,130 662,170 665,138 667,178 670,128 673,165 676,145 678,172 681,130 684,170 687,140 689,178 692,128 695,168 698,142 700,175 703,130 706,170 709,138 711,178 714,128 717,165 720,145 722,175 725,130 728,168 731,140 733,178 736,128 739,172 742,138 744,175 747,130 750,168 753,142 755,178 758,128 761,165 764,145 766,172 769,130 772,170 775,140 777,178 780,128 783,165 786,145 789,175 790,155"/>
    <!-- F4: Chaotic, different pattern from F3 (asynchronous) -->
    <polyline fill="none" stroke="#00ff88" stroke-width="1.3" points="
      95,195 98,210 101,178 104,218 107,182 110,215 112,175 115,212 118,185 121,220 123,178 126,210 129,188 132,222 134,175 137,215 140,182 143,218 145,178 148,220 151,175 154,210 156,188 159,222 162,178 165,215 167,185 170,218 173,175 176,212 178,188 181,222 184,175 187,215 189,182 192,220 195,178 198,210 200,185 203,218 206,175 209,215 211,188 214,222 217,175 220,212 222,185 225,220 228,178 231,210 233,188 236,218 239,178 242,215 244,185 247,222 250,172 253,215 256,188 258,220 261,178 264,212 267,188 269,222 272,175 275,210 278,185 280,218 283,178 286,215 289,185 291,222 294,172 297,215 300,182 302,220 305,175 308,212 311,188 313,222 316,175 319,215 322,185 324,220 327,178 330,212 333,185 335,222 338,172 341,215 344,182 346,218 349,178 352,212 355,185 357,222 360,175 363,210 366,188 368,220 371,178 374,215 376,185 379,222 382,175 385,215 387,185 390,218 393,178 396,212 398,185 401,222 404,172 407,215 409,182 412,220 415,178 418,212 420,188 423,218 426,178 429,212 431,188 434,222 437,172 440,215 442,185 445,220 448,178 451,212 453,185 456,218 459,178 462,212 464,188 467,222 470,172 473,210 476,188 478,220 481,175 484,215 486,185 489,222 492,172 495,215 497,185 500,220 503,175 506,210 509,188 511,222 514,175 517,215 519,182 522,218 525,178 528,212 530,188 533,222 536,172 539,215 541,182 544,220 547,178 550,212 552,185 555,218 558,175 561,212 563,188 566,222 569,172 572,215 574,182 577,220 580,175 583,212 585,188 588,220 591,175 594,215 596,182 599,222 602,175 605,210 607,188 610,220 613,175 616,212 618,188 621,222 624,172 627,215 629,185 632,220 635,175 638,212 640,188 643,222 646,172 649,215 651,182 654,220 657,175 660,212 662,188 665,218 668,178 671,212 673,188 676,222 679,172 682,215 684,185 687,220 690,175 693,210 695,188 698,218 701,178 704,212 706,185 709,222 712,175 715,215 717,182 720,220 723,175 726,212 728,188 731,220 734,175 737,215 739,182 742,222 745,175 748,210 750,188 753,218 756,178 759,212 761,188 764,222 767,172 770,215 772,182 775,218 778,178 781,212 783,188 786,220 789,175 790,195"/>
    <!-- C3: Very chaotic -->
    <polyline fill="none" stroke="#00ff88" stroke-width="1.3" points="
      95,235 98,215 101,260 104,208 107,255 110,218 113,262 115,205 118,252 121,220 124,258 126,210 129,260 132,205 135,250 137,222 140,265 143,205 146,255 148,218 151,258 154,210 157,265 159,212 162,252 165,218 168,262 170,205 173,255 176,218 178,265 181,205 184,250 187,222 189,260 192,208 195,252 198,218 200,265 203,205 206,258 209,218 211,255 214,210 217,265 220,212 222,252 225,218 228,265 230,205 233,250 236,222 238,258 241,208 244,255 247,218 249,265 252,205 255,252 258,220 260,262 263,208 266,258 269,215 271,265 274,208 277,250 280,222 282,260 285,210 288,255 291,218 293,265 296,205 299,252 302,218 304,260 307,208 310,258 313,215 315,265 318,205 321,252 324,220 326,262 329,208 332,255 335,218 337,265 340,205 343,250 346,222 348,260 351,208 354,252 357,218 359,265 362,205 365,258 368,215 370,262 373,208 376,252 379,220 381,265 384,205 387,250 390,222 392,258 395,208 398,255 401,218 403,265 406,205 409,252 412,220 414,262 417,208 420,255 423,215 425,265 428,205 431,250 434,222 436,260 439,208 442,252 445,218 447,265 450,205 453,258 456,215 458,262 461,208 464,252 467,220 469,265 472,205 475,250 478,218 480,260 483,208 486,255 489,215 491,265 494,205 497,250 500,222 502,258 505,208 508,255 511,218 513,265 516,205 519,252 522,220 524,262 527,208 530,258 533,215 535,265 538,205 541,250 544,222 546,260 549,208 552,252 555,218 557,265 560,205 563,258 566,215 568,262 571,208 574,252 577,220 579,265 582,205 585,250 588,222 590,260 593,208 596,252 599,218 601,265 604,205 607,258 610,215 612,262 615,208 618,252 621,220 623,265 626,205 629,250 632,222 634,260 637,208 640,255 643,218 645,265 648,205 651,252 654,220 656,262 659,208 662,255 665,215 667,265 670,205 673,250 676,222 678,258 681,208 684,255 687,218 689,265 692,205 695,252 698,220 700,262 703,208 706,255 709,215 711,265 714,205 717,250 720,222 722,260 725,208 728,252 731,218 733,265 736,205 739,258 742,215 744,262 747,208 750,252 753,220 755,265 758,205 761,250 764,222 766,258 769,208 772,255 775,218 777,265 780,205 783,250 786,222 789,260 790,235"/>
    <!-- C4: Different chaotic pattern -->
    <polyline fill="none" stroke="#00ff88" stroke-width="1.3" points="
      95,275 98,295 101,255 104,298 107,258 110,292 112,250 115,295 118,260 121,298 123,252 126,290 129,262 132,300 134,248 137,295 140,258 143,298 145,252 148,300 151,248 154,290 156,262 159,300 162,252 165,295 167,258 170,298 173,248 176,292 178,262 181,300 184,248 187,295 189,255 192,300 195,252 198,290 200,258 203,298 206,248 209,295 211,262 214,300 217,248 220,292 222,258 225,300 228,252 231,290 233,262 236,298 239,252 242,295 244,258 247,300 250,245 253,295 256,262 258,300 261,252 264,292 267,262 269,300 272,248 275,290 278,258 280,298 283,252 286,295 289,258 291,300 294,245 297,295 300,255 302,300 305,248 308,292 311,262 313,300 316,248 319,295 322,258 324,300 327,252 330,292 333,258 335,300 338,245 341,295 344,255 346,298 349,252 352,292 355,258 357,300 360,248 363,290 366,262 368,300 371,252 374,295 376,258 379,300 382,248 385,295 387,258 390,298 393,252 396,292 398,258 401,300 404,245 407,295 409,255 412,300 415,252 418,292 420,262 423,298 426,252 429,292 431,262 434,300 437,245 440,295 442,258 445,300 448,252 451,292 453,258 456,298 459,252 462,292 464,262 467,300 470,245 473,290 476,262 478,300 481,248 484,295 486,258 489,300 492,245 495,295 497,258 500,300 503,248 506,290 509,262 511,300 514,248 517,295 519,255 522,298 525,252 528,292 530,262 533,300 536,245 539,295 541,255 544,300 547,252 550,292 552,258 555,298 558,248 561,292 563,262 566,300 569,245 572,295 574,255 577,300 580,248 583,292 585,262 588,300 591,248 594,295 596,255 599,300 602,248 605,290 607,262 610,300 613,248 616,292 618,262 621,300 624,245 627,295 629,258 632,300 635,248 638,292 640,262 643,300 646,245 649,295 651,255 654,300 657,248 660,292 662,262 665,298 668,252 671,292 673,262 676,300 679,245 682,295 684,258 687,300 690,248 693,290 695,262 698,298 701,252 704,292 706,258 709,300 712,248 715,295 717,255 720,300 723,248 726,292 728,262 731,300 734,248 737,295 739,255 742,300 745,248 748,290 750,262 753,298 756,252 759,292 761,262 764,300 767,245 770,295 772,255 775,298 778,252 781,292 783,262 786,300 789,248 790,275"/>
    <!-- O1: Chaotic -->
    <polyline fill="none" stroke="#00ff88" stroke-width="1.3" points="
      95,315 98,298 101,335 104,292 107,332 110,300 113,338 115,290 118,328 121,302 124,335 126,295 129,340 132,290 135,330 137,305 140,342 143,288 146,332 148,300 151,338 154,292 157,342 159,295 162,330 165,300 168,340 170,288 173,332 176,300 178,342 181,288 184,328 187,305 189,338 192,292 195,330 198,300 200,342 203,288 206,335 209,300 211,332 214,295 217,342 220,295 222,330 225,300 228,342 230,288 233,328 236,305 238,335 241,292 244,332 247,300 249,342 252,288 255,330 258,302 260,340 263,292 266,335 269,298 271,342 274,290 277,328 280,305 282,338 285,292 288,332 291,300 293,342 296,288 299,330 302,300 304,338 307,292 310,335 313,298 315,342 318,288 321,330 324,302 326,340 329,292 332,332 335,300 337,342 340,288 343,328 346,305 348,338 351,292 354,330 357,300 359,342 362,288 365,335 368,298 370,340 373,292 376,330 379,302 381,342 384,288 387,328 390,305 392,335 395,290 398,332 401,300 403,342 406,288 409,330 412,302 414,340 417,292 420,332 423,298 425,342 428,288 431,328 434,305 436,338 439,290 442,330 445,300 447,342 450,288 453,335 456,298 458,340 461,290 464,330 467,302 469,342 472,288 475,328 478,300 480,338 483,292 486,332 489,298 491,342 494,288 497,328 500,305 502,335 505,292 508,332 511,300 513,342 516,288 519,330 522,302 524,340 527,292 530,335 533,298 535,342 538,288 541,328 544,305 546,338 549,292 552,330 555,300 557,342 560,288 563,335 566,298 568,340 571,290 574,330 577,302 579,342 582,288 585,328 588,305 590,338 593,290 596,330 599,300 601,342 604,288 607,335 610,298 612,340 615,290 618,330 621,302 623,342 626,288 629,328 632,305 634,338 637,290 640,332 643,300 645,342 648,288 651,330 654,302 656,340 659,290 662,332 665,298 667,342 670,288 673,328 676,305 678,335 681,290 684,332 687,300 689,342 692,288 695,330 698,302 700,340 703,290 706,332 709,298 711,342 714,288 717,328 720,305 722,338 725,290 728,330 731,300 733,342 736,288 739,335 742,298 744,340 747,290 750,330 753,302 755,342 758,288 761,328 764,305 766,335 769,290 772,332 775,300 777,342 780,288 783,328 786,305 789,338 790,315"/>
    <!-- O2: Different chaotic pattern -->
    <polyline fill="none" stroke="#00ff88" stroke-width="1.3" points="
      95,355 98,370 101,338 104,375 107,340 110,368 112,335 115,372 118,342 121,378 123,335 126,368 129,345 132,380 134,332 137,372 140,340 143,378 145,335 148,380 151,332 154,368 156,345 159,380 162,335 165,372 167,340 170,378 173,332 176,370 178,345 181,380 184,332 187,372 189,338 192,380 195,335 198,368 200,342 203,378 206,332 209,372 211,345 214,380 217,332 220,370 222,340 225,380 228,335 231,368 233,345 236,378 239,335 242,372 244,340 247,380 250,330 253,372 256,345 258,380 261,335 264,370 267,345 269,380 272,332 275,368 278,340 280,378 283,335 286,372 289,340 291,380 294,330 297,372 300,338 302,380 305,332 308,370 311,345 313,380 316,332 319,372 322,340 324,380 327,335 330,370 333,340 335,380 338,330 341,372 344,338 346,378 349,335 352,370 355,340 357,380 360,332 363,368 366,345 368,380 371,335 374,372 376,340 379,380 382,332 385,372 387,340 390,378 393,335 396,370 398,340 401,380 404,330 407,372 409,338 412,380 415,335 418,370 420,345 423,378 426,335 429,370 431,345 434,380 437,330 440,372 442,340 445,380 448,335 451,370 453,340 456,378 459,335 462,370 464,345 467,380 470,330 473,368 476,345 478,380 481,332 484,372 486,340 489,380 492,330 495,372 497,340 500,380 503,332 506,368 509,345 511,380 514,332 517,372 519,338 522,378 525,335 528,370 530,345 533,380 536,330 539,372 541,338 544,380 547,335 550,370 552,340 555,378 558,332 561,370 563,345 566,380 569,330 572,372 574,338 577,380 580,332 583,370 585,345 588,380 591,332 594,372 596,338 599,380 602,332 605,368 607,345 610,380 613,332 616,370 618,345 621,380 624,330 627,372 629,340 632,380 635,332 638,370 640,345 643,380 646,330 649,372 651,338 654,380 657,332 660,370 662,345 665,378 668,335 671,370 673,345 676,380 679,330 682,372 684,340 687,380 690,332 693,368 695,345 698,378 701,335 704,370 706,340 709,380 712,332 715,372 717,338 720,380 723,332 726,370 728,345 731,380 734,332 737,372 739,338 742,380 745,332 748,368 750,345 753,378 756,335 759,370 761,345 764,380 767,330 770,372 772,338 775,378 778,335 781,370 783,345 786,380 789,332 790,355"/>
  </g>
  <!-- Annotations -->
  <rect x="600" y="47" width="185" height="42" fill="#0d0d1a" stroke="#ff4444" stroke-width="1" rx="4"/>
  <text x="692" y="62" text-anchor="middle" fill="#ff6666" font-family="Consolas, monospace" font-size="10" font-weight="bold">Amplitude >300 uV</text>
  <text x="692" y="78" text-anchor="middle" fill="#ff6666" font-family="Consolas, monospace" font-size="9">Chaotic | Asynchronous</text>
  <!-- Voltage scale - larger to show high amplitude -->
  <line x1="88" y1="48" x2="88" y2="98" stroke="#ffbb33" stroke-width="2"/>
  <line x1="85" y1="48" x2="91" y2="48" stroke="#ffbb33" stroke-width="2"/>
  <line x1="85" y1="98" x2="91" y2="98" stroke="#ffbb33" stroke-width="2"/>
  <text x="78" y="76" text-anchor="end" fill="#ffbb33" font-family="Consolas, monospace" font-size="8">300uV</text>
  <!-- Time scale -->
  <line x1="720" y1="396" x2="780" y2="396" stroke="#ffbb33" stroke-width="2"/>
  <text x="750" y="393" text-anchor="middle" fill="#ffbb33" font-family="Consolas, monospace" font-size="9">1 sec</text>
  <!-- Clinical note -->
  <text x="15" y="396" fill="#667788" font-family="Consolas, monospace" font-size="9">No discernible normal background | Multifocal spikes + high-amplitude slow waves</text>
</svg>