<svg xmlns="http://www.w3.org/2000/svg" viewBox="0 0 800 400" width="800" height="400">
  <defs>
    <filter id="glow">
      <feGaussianBlur stdDeviation="1" result="coloredBlur"/>
      <feMerge><feMergeNode in="coloredBlur"/><feMergeNode in="SourceGraphic"/></feMerge>
    </filter>
    <clipPath id="traceClip"><rect x="95" y="55" width="700" height="335"/></clipPath>
  </defs>
  <rect width="800" height="400" fill="#1a1a2e"/>
  <rect x="0" y="0" width="800" height="40" fill="#0d0d1a" stroke="#333355" stroke-width="1"/>
  <text x="400" y="27" text-anchor="middle" fill="#00ff88" font-family="Consolas, monospace" font-size="14" font-weight="bold">Trace Alternant -- Normal Neonatal Quiet Sleep</text>
  <!-- Channel labels (6 channels for neonatal montage) -->
  <g font-family="Consolas, monospace" font-size="11" fill="#aabbcc">
    <text x="88" y="103" text-anchor="end">Fp1</text>
    <text x="88" y="158" text-anchor="end">C3</text>
    <text x="88" y="213" text-anchor="end">O1</text>
    <text x="88" y="268" text-anchor="end">Fp2</text>
    <text x="88" y="323" text-anchor="end">C4</text>
    <text x="88" y="378" text-anchor="end">O2</text>
  </g>
  <!-- Baselines -->
  <g stroke="#222244" stroke-width="0.5">
    <line x1="95" y1="100" x2="790" y2="100"/>
    <line x1="95" y1="155" x2="790" y2="155"/>
    <line x1="95" y1="210" x2="790" y2="210"/>
    <line x1="95" y1="265" x2="790" y2="265"/>
    <line x1="95" y1="320" x2="790" y2="320"/>
    <line x1="95" y1="375" x2="790" y2="375"/>
  </g>

  <!-- Phase labels at top -->
  <!-- Burst 1: x=95 to x=260 (3-8 sec) -->
  <rect x="95" y="42" width="165" height="14" fill="#ff4444" fill-opacity="0.12" stroke="#ff4444" stroke-width="0.5"/>
  <text x="178" y="53" text-anchor="middle" fill="#ff6666" font-family="Consolas, monospace" font-size="8" font-weight="bold">Burst (3-8 sec)</text>
  <!-- Interburst 1: x=260 to x=430 -->
  <rect x="260" y="42" width="170" height="14" fill="#334455" fill-opacity="0.3" stroke="#445566" stroke-width="0.5"/>
  <text x="345" y="53" text-anchor="middle" fill="#667788" font-family="Consolas, monospace" font-size="8" font-weight="bold">Interburst Interval (4-8 sec)</text>
  <!-- Burst 2: x=430 to x=595 -->
  <rect x="430" y="42" width="165" height="14" fill="#ff4444" fill-opacity="0.12" stroke="#ff4444" stroke-width="0.5"/>
  <text x="513" y="53" text-anchor="middle" fill="#ff6666" font-family="Consolas, monospace" font-size="8" font-weight="bold">Burst (3-8 sec)</text>
  <!-- Interburst 2: x=595 to x=790 -->
  <rect x="595" y="42" width="195" height="14" fill="#334455" fill-opacity="0.3" stroke="#445566" stroke-width="0.5"/>
  <text x="693" y="53" text-anchor="middle" fill="#667788" font-family="Consolas, monospace" font-size="8" font-weight="bold">Interburst Interval</text>

  <!-- Vertical phase boundaries -->
  <line x1="260" y1="56" x2="260" y2="395" stroke="#445566" stroke-width="0.5" stroke-dasharray="3,5"/>
  <line x1="430" y1="56" x2="430" y2="395" stroke="#445566" stroke-width="0.5" stroke-dasharray="3,5"/>
  <line x1="595" y1="56" x2="595" y2="395" stroke="#445566" stroke-width="0.5" stroke-dasharray="3,5"/>

  <g clip-path="url(#traceClip)" filter="url(#glow)">
    <!-- NEONATAL TRACE ALTERNANT PATTERN -->
    <!-- High-amplitude bursts (200-300 uV equivalent, large deflections) alternating with low-amplitude interburst intervals (20-50 uV, near-flat) -->

    <!-- Fp1: y=100, Burst1 (95-260), IBI (260-430), Burst2 (430-595), IBI (595-790) -->
    <polyline fill="none" stroke="#00ff88" stroke-width="1.3" points="
      95,100 98,78 101,122 104,65 107,130 110,72 113,118 116,60 119,135 122,68 125,125 128,58 131,132 134,70 137,120 140,62 143,130 146,75 149,118 152,58 155,135 158,65 161,128 164,72 167,120 170,60 173,132 176,68 179,125 182,62 185,130 188,75 191,118 194,58 197,135 200,65 203,128 206,72 209,120 212,60 215,132 218,68 221,125 224,62 227,130 230,75 233,118 236,60 239,135 242,68 245,128 248,72 251,120 254,65 257,132 260,100
      262,101 265,99 268,101 271,99 274,101 277,100 280,99 283,101 286,100 289,99 292,101 295,100 298,99 301,101 304,100 307,99 310,101 313,100 316,99 319,101 322,100 325,99 328,101 331,100 334,99 337,101 340,100 343,99 346,101 349,100 352,99 355,101 358,100 361,99 364,101 367,100 370,99 373,101 376,100 379,99 382,101 385,100 388,99 391,101 394,100 397,99 400,101 403,100 406,99 409,101 412,100 415,99 418,101 421,100 424,99 427,101 430,100
      432,78 435,122 438,65 441,130 444,72 447,118 450,60 453,135 456,68 459,125 462,58 465,132 468,70 471,120 474,62 477,130 480,75 483,118 486,58 489,135 492,65 495,128 498,72 501,120 504,60 507,132 510,68 513,125 516,62 519,130 522,75 525,118 528,60 531,135 534,68 537,128 540,72 543,120 546,60 549,132 552,68 555,125 558,62 561,130 564,75 567,118 570,58 573,135 576,65 579,128 582,72 585,120 588,60 591,132 594,100
      596,101 599,99 602,101 605,99 608,101 611,100 614,99 617,101 620,100 623,99 626,101 629,100 632,99 635,101 638,100 641,99 644,101 647,100 650,99 653,101 656,100 659,99 662,101 665,100 668,99 671,101 674,100 677,99 680,101 683,100 686,99 689,101 692,100 695,99 698,101 701,100 704,99 707,101 710,100 713,99 716,101 719,100 722,99 725,101 728,100 731,99 734,101 737,100 740,99 743,101 746,100 749,99 752,101 755,100 758,99 761,101 764,100 767,99 770,101 773,100 776,99 779,101 782,100 785,99 788,101 790,100"/>

    <!-- C3: y=155 -->
    <polyline fill="none" stroke="#00ff88" stroke-width="1.3" points="
      95,155 98,130 101,180 104,118 107,188 110,125 113,175 116,115 119,190 122,122 125,182 128,112 131,188 134,125 137,175 140,118 143,185 146,130 149,172 152,112 155,190 158,120 161,182 164,128 167,175 170,115 173,188 176,122 179,180 182,118 185,185 188,130 191,172 194,112 197,190 200,120 203,182 206,128 209,175 212,115 215,188 218,122 221,180 224,118 227,185 230,130 233,172 236,115 239,190 242,122 245,182 248,128 251,175 254,120 257,188 260,155
      262,156 265,154 268,156 271,154 274,156 277,155 280,154 283,156 286,155 289,154 292,156 295,155 298,154 301,156 304,155 307,154 310,156 313,155 316,154 319,156 322,155 325,154 328,156 331,155 334,154 337,156 340,155 343,154 346,156 349,155 352,154 355,156 358,155 361,154 364,156 367,155 370,154 373,156 376,155 379,154 382,156 385,155 388,154 391,156 394,155 397,154 400,156 403,155 406,154 409,156 412,155 415,154 418,156 421,155 424,154 427,156 430,155
      432,130 435,180 438,118 441,188 444,125 447,175 450,115 453,190 456,122 459,182 462,112 465,188 468,125 471,175 474,118 477,185 480,130 483,172 486,112 489,190 492,120 495,182 498,128 501,175 504,115 507,188 510,122 513,180 516,118 519,185 522,130 525,172 528,115 531,190 534,122 537,182 540,128 543,175 546,115 549,188 552,122 555,180 558,118 561,185 564,130 567,172 570,112 573,190 576,120 579,182 582,128 585,175 588,115 591,188 594,155
      596,156 599,154 602,156 605,154 608,156 611,155 614,154 617,156 620,155 623,154 626,156 629,155 632,154 635,156 638,155 641,154 644,156 647,155 650,154 653,156 656,155 659,154 662,156 665,155 668,154 671,156 674,155 677,154 680,156 683,155 686,154 689,156 692,155 695,154 698,156 701,155 704,154 707,156 710,155 713,154 716,156 719,155 722,154 725,156 728,155 731,154 734,156 737,155 740,154 743,156 746,155 749,154 752,156 755,155 758,154 761,156 764,155 767,154 770,156 773,155 776,154 779,156 782,155 785,154 788,156 790,155"/>

    <!-- O1: y=210 -->
    <polyline fill="none" stroke="#00ff88" stroke-width="1.3" points="
      95,210 98,188 101,232 104,178 107,240 110,185 113,228 116,175 119,242 122,182 125,235 128,172 131,240 134,185 137,228 140,178 143,238 146,188 149,225 152,172 155,242 158,180 161,235 164,188 167,228 170,175 173,240 176,182 179,232 182,178 185,238 188,188 191,225 194,172 197,242 200,180 203,235 206,188 209,228 212,175 215,240 218,182 221,232 224,178 227,238 230,188 233,225 236,175 239,242 242,182 245,235 248,188 251,228 254,180 257,240 260,210
      262,211 265,209 268,211 271,209 274,211 277,210 280,209 283,211 286,210 289,209 292,211 295,210 298,209 301,211 304,210 307,209 310,211 313,210 316,209 319,211 322,210 325,209 328,211 331,210 334,209 337,211 340,210 343,209 346,211 349,210 352,209 355,211 358,210 361,209 364,211 367,210 370,209 373,211 376,210 379,209 382,211 385,210 388,209 391,211 394,210 397,209 400,211 403,210 406,209 409,211 412,210 415,209 418,211 421,210 424,209 427,211 430,210
      432,188 435,232 438,178 441,240 444,185 447,228 450,175 453,242 456,182 459,235 462,172 465,240 468,185 471,228 474,178 477,238 480,188 483,225 486,172 489,242 492,180 495,235 498,188 501,228 504,175 507,240 510,182 513,232 516,178 519,238 522,188 525,225 528,175 531,242 534,182 537,235 540,188 543,228 546,175 549,240 552,182 555,232 558,178 561,238 564,188 567,225 570,172 573,242 576,180 579,235 582,188 585,228 588,175 591,240 594,210
      596,211 599,209 602,211 605,209 608,211 611,210 614,209 617,211 620,210 623,209 626,211 629,210 632,209 635,211 638,210 641,209 644,211 647,210 650,209 653,211 656,210 659,209 662,211 665,210 668,209 671,211 674,210 677,209 680,211 683,210 686,209 689,211 692,210 695,209 698,211 701,210 704,209 707,211 710,210 713,209 716,211 719,210 722,209 725,211 728,210 731,209 734,211 737,210 740,209 743,211 746,210 749,209 752,211 755,210 758,209 761,211 764,210 767,209 770,211 773,210 776,209 779,211 782,210 785,209 788,211 790,210"/>

    <!-- Fp2: y=265 -->
    <polyline fill="none" stroke="#00ff88" stroke-width="1.3" points="
      95,265 98,243 101,287 104,230 107,295 110,237 113,283 116,225 119,300 122,233 125,290 128,223 131,297 134,235 137,285 140,227 143,295 146,240 149,283 152,223 155,300 158,230 161,293 164,237 167,285 170,225 173,297 176,233 179,290 182,227 185,295 188,240 191,283 194,223 197,300 200,230 203,293 206,237 209,285 212,225 215,297 218,233 221,290 224,227 227,295 230,240 233,283 236,225 239,300 242,233 245,293 248,237 251,285 254,230 257,297 260,265
      262,266 265,264 268,266 271,264 274,266 277,265 280,264 283,266 286,265 289,264 292,266 295,265 298,264 301,266 304,265 307,264 310,266 313,265 316,264 319,266 322,265 325,264 328,266 331,265 334,264 337,266 340,265 343,264 346,266 349,265 352,264 355,266 358,265 361,264 364,266 367,265 370,264 373,266 376,265 379,264 382,266 385,265 388,264 391,266 394,265 397,264 400,266 403,265 406,264 409,266 412,265 415,264 418,266 421,265 424,264 427,266 430,265
      432,243 435,287 438,230 441,295 444,237 447,283 450,225 453,300 456,233 459,290 462,223 465,297 468,235 471,285 474,227 477,295 480,240 483,283 486,223 489,300 492,230 495,293 498,237 501,285 504,225 507,297 510,233 513,290 516,227 519,295 522,240 525,283 528,225 531,300 534,233 537,293 540,237 543,285 546,225 549,297 552,233 555,290 558,227 561,295 564,240 567,283 570,223 573,300 576,230 579,293 582,237 585,285 588,225 591,297 594,265
      596,266 599,264 602,266 605,264 608,266 611,265 614,264 617,266 620,265 623,264 626,266 629,265 632,264 635,266 638,265 641,264 644,266 647,265 650,264 653,266 656,265 659,264 662,266 665,265 668,264 671,266 674,265 677,264 680,266 683,265 686,264 689,266 692,265 695,264 698,266 701,265 704,264 707,266 710,265 713,264 716,266 719,265 722,264 725,266 728,265 731,264 734,266 737,265 740,264 743,266 746,265 749,264 752,266 755,265 758,264 761,266 764,265 767,264 770,266 773,265 776,264 779,266 782,265 785,264 788,266 790,265"/>

    <!-- C4: y=320 -->
    <polyline fill="none" stroke="#00ff88" stroke-width="1.3" points="
      95,320 98,295 101,345 104,283 107,353 110,290 113,340 116,280 119,355 122,287 125,347 128,277 131,353 134,290 137,340 140,283 143,350 146,295 149,337 152,277 155,355 158,285 161,347 164,293 167,340 170,280 173,353 176,287 179,345 182,283 185,350 188,295 191,337 194,277 197,355 200,285 203,347 206,293 209,340 212,280 215,353 218,287 221,345 224,283 227,350 230,295 233,337 236,280 239,355 242,287 245,347 248,293 251,340 254,285 257,353 260,320
      262,321 265,319 268,321 271,319 274,321 277,320 280,319 283,321 286,320 289,319 292,321 295,320 298,319 301,321 304,320 307,319 310,321 313,320 316,319 319,321 322,320 325,319 328,321 331,320 334,319 337,321 340,320 343,319 346,321 349,320 352,319 355,321 358,320 361,319 364,321 367,320 370,319 373,321 376,320 379,319 382,321 385,320 388,319 391,321 394,320 397,319 400,321 403,320 406,319 409,321 412,320 415,319 418,321 421,320 424,319 427,321 430,320
      432,295 435,345 438,283 441,353 444,290 447,340 450,280 453,355 456,287 459,347 462,277 465,353 468,290 471,340 474,283 477,350 480,295 483,337 486,277 489,355 492,285 495,347 498,293 501,340 504,280 507,353 510,287 513,345 516,283 519,350 522,295 525,337 528,280 531,355 534,287 537,347 540,293 543,340 546,280 549,353 552,287 555,345 558,283 561,350 564,295 567,337 570,277 573,355 576,285 579,347 582,293 585,340 588,280 591,353 594,320
      596,321 599,319 602,321 605,319 608,321 611,320 614,319 617,321 620,320 623,319 626,321 629,320 632,319 635,321 638,320 641,319 644,321 647,320 650,319 653,321 656,320 659,319 662,321 665,320 668,319 671,321 674,320 677,319 680,321 683,320 686,319 689,321 692,320 695,319 698,321 701,320 704,319 707,321 710,320 713,319 716,321 719,320 722,319 725,321 728,320 731,319 734,321 737,320 740,319 743,321 746,320 749,319 752,321 755,320 758,319 761,321 764,320 767,319 770,321 773,320 776,319 779,321 782,320 785,319 788,321 790,320"/>

    <!-- O2: y=375 -->
    <polyline fill="none" stroke="#00ff88" stroke-width="1.3" points="
      95,375 98,353 101,397 104,343 107,405 110,350 113,393 116,340 119,407 122,347 125,400 128,337 131,405 134,350 137,393 140,343 143,403 146,353 149,390 152,337 155,407 158,345 161,400 164,353 167,393 170,340 173,405 176,347 179,397 182,343 185,403 188,353 191,390 194,337 197,407 200,345 203,400 206,353 209,393 212,340 215,405 218,347 221,397 224,343 227,403 230,353 233,390 236,340 239,407 242,347 245,400 248,353 251,393 254,345 257,405 260,375
      262,376 265,374 268,376 271,374 274,376 277,375 280,374 283,376 286,375 289,374 292,376 295,375 298,374 301,376 304,375 307,374 310,376 313,375 316,374 319,376 322,375 325,374 328,376 331,375 334,374 337,376 340,375 343,374 346,376 349,375 352,374 355,376 358,375 361,374 364,376 367,375 370,374 373,376 376,375 379,374 382,376 385,375 388,374 391,376 394,375 397,374 400,376 403,375 406,374 409,376 412,375 415,374 418,376 421,375 424,374 427,376 430,375
      432,353 435,397 438,343 441,405 444,350 447,393 450,340 453,407 456,347 459,400 462,337 465,405 468,350 471,393 474,343 477,403 480,353 483,390 486,337 489,407 492,345 495,400 498,353 501,393 504,340 507,405 510,347 513,397 516,343 519,403 522,353 525,390 528,340 531,407 534,347 537,400 540,353 543,393 546,340 549,405 552,347 555,397 558,343 561,403 564,353 567,390 570,337 573,407 576,345 579,400 582,353 585,393 588,340 591,405 594,375
      596,376 599,374 602,376 605,374 608,376 611,375 614,374 617,376 620,375 623,374 626,376 629,375 632,374 635,376 638,375 641,374 644,376 647,375 650,374 653,376 656,375 659,374 662,376 665,375 668,374 671,376 674,375 677,374 680,376 683,375 686,374 689,376 692,375 695,374 698,376 701,375 704,374 707,376 710,375 713,374 716,376 719,375 722,374 725,376 728,375 731,374 734,376 737,375 740,374 743,376 746,375 749,374 752,376 755,375 758,374 761,376 764,375 767,374 770,376 773,375 776,374 779,376 782,375 785,374 788,376 790,375"/>
  </g>

  <!-- Amplitude annotations -->
  <!-- Burst amplitude marker (left side) -->
  <line x1="88" y1="65" x2="88" y2="135" stroke="#ffbb33" stroke-width="1.5"/>
  <line x1="85" y1="65" x2="91" y2="65" stroke="#ffbb33" stroke-width="1.5"/>
  <line x1="85" y1="135" x2="91" y2="135" stroke="#ffbb33" stroke-width="1.5"/>
  <text x="78" y="98" text-anchor="end" fill="#ffbb33" font-family="Consolas, monospace" font-size="7">200-300</text>
  <text x="78" y="108" text-anchor="end" fill="#ffbb33" font-family="Consolas, monospace" font-size="7">uV</text>

  <!-- IBI amplitude annotation -->
  <text x="345" y="92" text-anchor="middle" fill="#667788" font-family="Consolas, monospace" font-size="8">20-50 uV</text>

  <!-- Clinical note box -->
  <rect x="260" y="58" width="170" height="16" fill="#0d0d1a" fill-opacity="0.8" stroke="#333355" stroke-width="0.5" rx="2"/>
  <text x="345" y="70" text-anchor="middle" fill="#667788" font-family="Consolas, monospace" font-size="8">Near-isoelectric</text>

  <!-- Bottom annotation -->
  <text x="400" y="396" text-anchor="middle" fill="#667788" font-family="Consolas, monospace" font-size="9">Discontinuous pattern: High-amplitude bursts alternating with low-amplitude intervals | Normal &lt;34 wk GA</text>

  <!-- Scale bars -->
  <line x1="720" y1="48" x2="780" y2="48" stroke="#ffbb33" stroke-width="2"/>
  <text x="750" y="43" text-anchor="middle" fill="#ffbb33" font-family="Consolas, monospace" font-size="9">2 sec</text>
</svg>