<svg xmlns="http://www.w3.org/2000/svg" viewBox="0 0 800 400" width="800" height="400">
  <defs>
    <filter id="glow">
      <feGaussianBlur stdDeviation="1" result="coloredBlur"/>
      <feMerge><feMergeNode in="coloredBlur"/><feMergeNode in="SourceGraphic"/></feMerge>
    </filter>
    <clipPath id="traceArea"><rect x="100" y="45" width="680" height="340"/></clipPath>
  </defs>
  <!-- Background -->
  <rect width="800" height="400" fill="#1a1a2e"/>
  <!-- Title bar -->
  <rect x="0" y="0" width="800" height="40" fill="#0d0d1a" stroke="#333355" stroke-width="1"/>
  <text x="400" y="27" text-anchor="middle" fill="#00ff88" font-family="Consolas, monospace" font-size="16" font-weight="bold">Normal Posterior Dominant Rhythm (PDR) - 10 Hz Alpha</text>
  <!-- Grid lines -->
  <g stroke="#1f1f3a" stroke-width="0.5">
    <line x1="100" y1="45" x2="100" y2="385"/><line x1="244" y1="45" x2="244" y2="385"/>
    <line x1="388" y1="45" x2="388" y2="385"/><line x1="532" y1="45" x2="532" y2="385"/>
    <line x1="676" y1="45" x2="676" y2="385"/><line x1="780" y1="45" x2="780" y2="385"/>
  </g>
  <!-- Eyes Open marker -->
  <rect x="388" y="42" width="144" height="14" fill="#ff4444" fill-opacity="0.15" stroke="#ff4444" stroke-width="1"/>
  <text x="460" y="53" text-anchor="middle" fill="#ff6666" font-family="Consolas, monospace" font-size="10" font-weight="bold">Eyes Open</text>
  <rect x="100" y="42" width="288" height="14" fill="#00ff88" fill-opacity="0.05" stroke="#00ff88" stroke-width="0.5" stroke-dasharray="3,3"/>
  <text x="244" y="53" text-anchor="middle" fill="#00aa66" font-family="Consolas, monospace" font-size="10">Eyes Closed</text>
  <rect x="532" y="42" width="248" height="14" fill="#00ff88" fill-opacity="0.05" stroke="#00ff88" stroke-width="0.5" stroke-dasharray="3,3"/>
  <text x="656" y="53" text-anchor="middle" fill="#00aa66" font-family="Consolas, monospace" font-size="10">Eyes Closed</text>
  <!-- Channel labels and traces -->
  <g font-family="Consolas, monospace" font-size="11" fill="#aabbcc">
    <text x="90" y="85" text-anchor="end">Fp1</text>
    <text x="90" y="127" text-anchor="end">Fp2</text>
    <text x="90" y="169" text-anchor="end">F3</text>
    <text x="90" y="211" text-anchor="end">F4</text>
    <text x="90" y="253" text-anchor="end">C3</text>
    <text x="90" y="295" text-anchor="end">C4</text>
    <text x="90" y="337" text-anchor="end">O1</text>
    <text x="90" y="379" text-anchor="end">O2</text>
  </g>
  <!-- Horizontal baselines -->
  <g stroke="#222244" stroke-width="0.5">
    <line x1="100" y1="82" x2="780" y2="82"/>
    <line x1="100" y1="124" x2="780" y2="124"/>
    <line x1="100" y1="166" x2="780" y2="166"/>
    <line x1="100" y1="208" x2="780" y2="208"/>
    <line x1="100" y1="250" x2="780" y2="250"/>
    <line x1="100" y1="292" x2="780" y2="292"/>
    <line x1="100" y1="334" x2="780" y2="334"/>
    <line x1="100" y1="376" x2="780" y2="376"/>
  </g>
  <g clip-path="url(#traceArea)" filter="url(#glow)">
    <!-- Fp1: Low amplitude mixed activity (beta/theta mix) -->
    <polyline fill="none" stroke="#00ff88" stroke-width="1.2" points="
      100,82 105,80 110,84 115,79 120,83 125,81 130,85 135,80 140,82 145,84 150,79 155,83 160,81 165,84 170,80 175,82 180,85 185,79 190,83 195,81 200,84 205,80 210,82 215,85 220,79 225,83 230,80 235,84 240,81 245,83 250,79 255,82 260,85 265,80 270,83 275,81 280,84 285,80 290,82 295,85 300,79 305,83 310,81 315,84 320,80 325,82 330,85 335,80 340,83 345,81 350,84 355,79 360,82 365,85 370,80 375,83 380,81 385,84 390,82 395,83 400,81 405,83 410,82 415,83 420,81 425,82 430,83 435,82 440,81 445,83 450,82 455,83 460,81 465,82 470,83 475,82 480,81 485,83 490,82 495,81 500,83 505,82 510,83 515,81 520,82 525,83 530,82 535,81 540,83 545,80 550,84 555,80 560,82 565,85 570,79 575,83 580,81 585,84 590,80 595,82 600,85 605,79 610,83 615,81 620,84 625,80 630,82 635,85 640,79 645,83 650,81 655,84 660,80 665,82 670,85 675,79 680,83 685,81 690,84 695,80 700,82 705,85 710,79 715,83 720,81 725,84 730,80 735,82 740,85 745,79 750,83 755,81 760,84 765,80 770,82 775,85 780,82"/>
    <!-- Fp2: Low amplitude mixed -->
    <polyline fill="none" stroke="#00ff88" stroke-width="1.2" points="
      100,124 105,122 110,126 115,121 120,125 125,123 130,127 135,122 140,124 145,126 150,121 155,125 160,123 165,126 170,122 175,124 180,127 185,121 190,125 195,123 200,126 205,122 210,124 215,127 220,121 225,125 230,122 235,126 240,123 245,125 250,121 255,124 260,127 265,122 270,125 275,123 280,126 285,122 290,124 295,127 300,121 305,125 310,123 315,126 320,122 325,124 330,127 335,122 340,125 345,123 350,126 355,121 360,124 365,127 370,122 375,125 380,123 385,126 390,124 395,125 400,123 405,125 410,124 415,125 420,123 425,124 430,125 435,124 440,123 445,125 450,124 455,125 460,123 465,124 470,125 475,124 480,123 485,125 490,124 495,123 500,125 505,124 510,125 515,123 520,124 525,125 530,124 535,123 540,125 545,122 550,126 555,122 560,124 565,127 570,121 575,125 580,123 585,126 590,122 595,124 600,127 605,121 610,125 615,123 620,126 625,122 630,124 635,127 640,121 645,125 650,123 655,126 660,122 665,124 670,127 675,121 680,125 685,123 690,126 695,122 700,124 705,127 710,121 715,125 720,123 725,126 730,122 735,124 740,127 745,121 750,125 755,123 760,126 765,122 770,124 775,127 780,124"/>
    <!-- F3: Moderate mixed activity -->
    <polyline fill="none" stroke="#00ff88" stroke-width="1.2" points="
      100,166 105,163 110,170 115,162 120,168 125,164 130,170 135,162 140,167 145,169 150,161 155,168 160,164 165,170 170,162 175,167 180,171 185,161 190,168 195,164 200,170 205,162 210,167 215,171 220,161 225,168 230,163 235,170 240,164 245,168 250,161 255,166 260,171 265,163 270,168 275,164 280,170 285,162 290,167 295,171 300,161 305,168 310,164 315,170 320,162 325,167 330,171 335,163 340,168 345,164 350,170 355,161 360,166 365,171 370,163 375,168 380,164 385,170 390,167 395,168 400,166 405,167 410,166 415,168 420,165 425,167 430,166 435,167 440,165 445,168 450,166 455,167 460,165 465,167 470,166 475,167 480,165 485,168 490,166 495,165 500,168 505,166 510,167 515,165 520,167 525,166 530,167 535,164 540,170 545,162 550,169 555,162 560,167 565,171 570,161 575,168 580,164 585,170 590,162 595,167 600,171 605,161 610,168 615,164 620,170 625,162 630,167 635,171 640,161 645,168 650,164 655,170 660,162 665,167 670,171 675,161 680,168 685,164 690,170 695,162 700,167 705,171 710,161 715,168 720,164 725,170 730,162 735,167 740,171 745,161 750,168 755,164 760,170 765,162 770,167 775,171 780,166"/>
    <!-- F4: Moderate mixed -->
    <polyline fill="none" stroke="#00ff88" stroke-width="1.2" points="
      100,208 105,205 110,212 115,204 120,210 125,206 130,212 135,204 140,209 145,211 150,203 155,210 160,206 165,212 170,204 175,209 180,213 185,203 190,210 195,206 200,212 205,204 210,209 215,213 220,203 225,210 230,205 235,212 240,206 245,210 250,203 255,208 260,213 265,205 270,210 275,206 280,212 285,204 290,209 295,213 300,203 305,210 310,206 315,212 320,204 325,209 330,213 335,205 340,210 345,206 350,212 355,203 360,208 365,213 370,205 375,210 380,206 385,212 390,209 395,210 400,208 405,210 410,209 415,210 420,207 425,209 430,210 435,209 440,207 445,210 450,208 455,210 460,207 465,209 470,210 475,209 480,207 485,210 490,208 495,207 500,210 505,209 510,210 515,207 520,209 525,210 530,209 535,206 540,212 545,204 550,211 555,204 560,209 565,213 570,203 575,210 580,206 585,212 590,204 595,209 600,213 605,203 610,210 615,206 620,212 625,204 630,209 635,213 640,203 645,210 650,206 655,212 660,204 665,209 670,213 675,203 680,210 685,206 690,212 695,204 700,209 705,213 710,203 715,210 720,206 725,212 730,204 735,209 740,213 745,203 750,210 755,206 760,212 765,204 770,209 775,213 780,208"/>
    <!-- C3: Moderate activity with some mu rhythm -->
    <polyline fill="none" stroke="#00ff88" stroke-width="1.2" points="
      100,250 105,246 110,254 115,245 120,255 125,247 130,254 135,245 140,252 145,255 150,244 155,253 160,247 165,255 170,244 175,251 180,256 185,244 190,253 195,247 200,255 205,244 210,251 215,256 220,244 225,253 230,246 235,255 240,247 245,253 250,244 255,250 260,256 265,246 270,253 275,247 280,255 285,245 290,251 295,256 300,244 305,253 310,247 315,255 320,244 325,251 330,256 335,246 340,253 345,247 350,255 355,244 360,250 365,256 370,246 375,253 380,247 385,255 390,251 395,252 400,250 405,252 410,251 415,252 420,249 425,252 430,251 435,252 440,249 445,253 450,250 455,252 460,249 465,252 470,251 475,252 480,249 485,253 490,250 495,249 500,253 505,251 510,252 515,249 520,252 525,251 530,252 535,247 540,255 545,245 550,254 555,245 560,251 565,256 570,244 575,253 580,247 585,255 590,244 595,251 600,256 605,244 610,253 615,247 620,255 625,244 630,251 635,256 640,244 645,253 650,247 655,255 660,244 665,251 670,256 675,244 680,253 685,247 690,255 695,244 700,251 705,256 710,244 715,253 720,247 725,255 730,244 735,251 740,256 745,244 750,253 755,247 760,255 765,244 770,251 775,256 780,250"/>
    <!-- C4: Moderate -->
    <polyline fill="none" stroke="#00ff88" stroke-width="1.2" points="
      100,292 105,288 110,296 115,287 120,297 125,289 130,296 135,287 140,294 145,297 150,286 155,295 160,289 165,297 170,286 175,293 180,298 185,286 190,295 195,289 200,297 205,286 210,293 215,298 220,286 225,295 230,288 235,297 240,289 245,295 250,286 255,292 260,298 265,288 270,295 275,289 280,297 285,287 290,293 295,298 300,286 305,295 310,289 315,297 320,286 325,293 330,298 335,288 340,295 345,289 350,297 355,286 360,292 365,298 370,288 375,295 380,289 385,297 390,293 395,294 400,292 405,294 410,293 415,294 420,291 425,294 430,293 435,294 440,291 445,295 450,292 455,294 460,291 465,294 470,293 475,294 480,291 485,295 490,292 495,291 500,295 505,293 510,294 515,291 520,294 525,293 530,294 535,289 540,297 545,287 550,296 555,287 560,293 565,298 570,286 575,295 580,289 585,297 590,286 595,293 600,298 605,286 610,295 615,289 620,297 625,286 630,293 635,298 640,286 645,295 650,289 655,297 660,286 665,293 670,298 675,286 680,295 685,289 690,297 695,286 700,293 705,298 710,286 715,295 720,289 725,297 730,286 735,293 740,298 745,286 750,295 755,289 760,297 765,286 770,293 775,298 780,292"/>
    <!-- O1: Strong 10 Hz alpha, attenuates with eyes open -->
    <polyline fill="none" stroke="#00ff88" stroke-width="1.5" points="
      100,334 104,322 108,346 112,318 116,350 120,320 124,348 128,318 132,350 136,320 140,348 144,318 148,350 152,320 156,348 160,318 164,350 168,320 172,348 176,318 180,350 184,320 188,348 192,318 196,350 200,320 204,348 208,318 212,350 216,320 220,348 224,318 228,350 232,320 236,348 240,318 244,350 248,320 252,348 256,318 260,350 264,320 268,348 272,318 276,350 280,320 284,348 288,318 292,350 296,320 300,348 304,318 308,350 312,320 316,348 320,318 324,350 328,320 332,348 336,318 340,350 344,320 348,348 352,318 356,350 360,320 364,348 368,318 372,350 376,320 380,348 384,318 388,340
      392,332 396,336 400,333 404,335 408,333 412,335 416,333 420,335 424,334 428,336 432,333 436,335 440,333 444,335 448,333 452,336 456,333 460,335 464,333 468,336 472,333 476,335 480,333 484,336 488,333 492,335 496,333 500,335 504,333 508,336 512,333 516,335 520,333 524,336 528,333 532,340
      536,320 540,348 544,318 548,350 552,320 556,348 560,318 564,350 568,320 572,348 576,318 580,350 584,320 588,348 592,318 596,350 600,320 604,348 608,318 612,350 616,320 620,348 624,318 628,350 632,320 636,348 640,318 644,350 648,320 652,348 656,318 660,350 664,320 668,348 672,318 676,350 680,320 684,348 688,318 692,350 696,320 700,348 704,318 708,350 712,320 716,348 720,318 724,350 728,320 732,348 736,318 740,350 744,320 748,348 752,318 756,350 760,320 764,348 768,318 772,350 776,320 780,334"/>
    <!-- O2: Strong 10 Hz alpha, attenuates with eyes open -->
    <polyline fill="none" stroke="#00ff88" stroke-width="1.5" points="
      100,376 104,364 108,388 112,360 116,392 120,362 124,390 128,360 132,392 136,362 140,390 144,360 148,392 152,362 156,390 160,360 164,392 168,362 172,390 176,360 180,392 184,362 188,390 192,360 196,392 200,362 204,390 208,360 212,392 216,362 220,390 224,360 228,392 232,362 236,390 240,360 244,392 248,362 252,390 256,360 260,392 264,362 268,390 272,360 276,392 280,362 284,390 288,360 292,392 296,362 300,390 304,360 308,392 312,362 316,390 320,360 324,392 328,362 332,390 336,360 340,392 344,362 348,390 352,360 356,392 360,362 364,390 368,360 372,392 376,362 380,390 384,360 388,382
      392,374 396,378 400,375 404,377 408,375 412,377 416,375 420,377 424,376 428,378 432,375 436,377 440,375 444,377 448,375 452,378 456,375 460,377 464,375 468,378 472,375 476,377 480,375 484,378 488,375 492,377 496,375 500,377 504,375 508,378 512,375 516,377 520,375 524,378 528,375 532,382
      536,362 540,390 544,360 548,392 552,362 556,390 560,360 564,392 568,362 572,390 576,360 580,392 584,362 588,390 592,360 596,392 600,362 604,390 608,360 612,392 616,362 620,390 624,360 628,392 632,362 636,390 640,360 644,392 648,362 652,390 656,360 660,392 664,362 668,390 672,360 676,392 680,362 684,390 688,360 692,392 696,362 700,390 704,360 708,392 712,362 716,390 720,360 724,392 728,362 732,390 736,360 740,392 744,362 748,390 752,360 756,392 760,362 764,390 768,360 772,392 776,362 780,376"/>
  </g>
  <!-- Alpha reactivity annotation -->
  <line x1="388" y1="330" x2="388" y2="385" stroke="#ff6666" stroke-width="1" stroke-dasharray="3,3"/>
  <line x1="532" y1="330" x2="532" y2="385" stroke="#ff6666" stroke-width="1" stroke-dasharray="3,3"/>
  <text x="460" y="365" text-anchor="middle" fill="#ff6666" font-family="Consolas, monospace" font-size="9">Alpha Attenuation</text>
  <!-- Scale bars -->
  <line x1="720" y1="60" x2="780" y2="60" stroke="#ffbb33" stroke-width="2"/>
  <text x="750" y="73" text-anchor="middle" fill="#ffbb33" font-family="Consolas, monospace" font-size="9">1 sec</text>
  <!-- Voltage scale -->
  <line x1="88" y1="60" x2="88" y2="80" stroke="#ffbb33" stroke-width="2"/>
  <line x1="85" y1="60" x2="91" y2="60" stroke="#ffbb33" stroke-width="2"/>
  <line x1="85" y1="80" x2="91" y2="80" stroke="#ffbb33" stroke-width="2"/>
  <text x="80" y="73" text-anchor="end" fill="#ffbb33" font-family="Consolas, monospace" font-size="8">50uV</text>
  <!-- Label for alpha -->
  <text x="150" y="320" fill="#00ddaa" font-family="Consolas, monospace" font-size="10">10 Hz Alpha</text>
  <line x1="150" y1="322" x2="150" y2="334" stroke="#00ddaa" stroke-width="0.5"/>
</svg>