<svg xmlns="http://www.w3.org/2000/svg" viewBox="0 0 800 400" width="800" height="400">
  <defs>
    <filter id="glow">
      <feGaussianBlur stdDeviation="1" result="coloredBlur"/>
      <feMerge><feMergeNode in="coloredBlur"/><feMergeNode in="SourceGraphic"/></feMerge>
    </filter>
    <clipPath id="traceClip"><rect x="95" y="40" width="700" height="355"/></clipPath>
    <marker id="arrowDown" markerWidth="8" markerHeight="8" refX="4" refY="0" orient="auto">
      <path d="M0,0 L4,6 L8,0" fill="none" stroke="#ffbb33" stroke-width="1.2"/>
    </marker>
  </defs>
  <rect width="800" height="400" fill="#1a1a2e"/>
  <rect x="0" y="0" width="800" height="40" fill="#0d0d1a" stroke="#333355" stroke-width="1"/>
  <text x="400" y="27" text-anchor="middle" fill="#00ff88" font-family="Consolas, monospace" font-size="15" font-weight="bold">Normal Sleep EEG -- Stage N2 Features</text>
  <!-- Channel labels -->
  <g font-family="Consolas, monospace" font-size="11" fill="#aabbcc">
    <text x="88" y="78" text-anchor="end">Fp1</text>
    <text x="88" y="118" text-anchor="end">F3</text>
    <text x="88" y="158" text-anchor="end">C3</text>
    <text x="88" y="198" text-anchor="end">P3</text>
    <text x="88" y="238" text-anchor="end">O1</text>
    <text x="88" y="278" text-anchor="end">Fp2</text>
    <text x="88" y="318" text-anchor="end">F4</text>
    <text x="88" y="358" text-anchor="end">C4</text>
  </g>
  <!-- Baselines -->
  <g stroke="#222244" stroke-width="0.5">
    <line x1="95" y1="75" x2="790" y2="75"/>
    <line x1="95" y1="115" x2="790" y2="115"/>
    <line x1="95" y1="155" x2="790" y2="155"/>
    <line x1="95" y1="195" x2="790" y2="195"/>
    <line x1="95" y1="235" x2="790" y2="235"/>
    <line x1="95" y1="275" x2="790" y2="275"/>
    <line x1="95" y1="315" x2="790" y2="315"/>
    <line x1="95" y1="355" x2="790" y2="355"/>
  </g>

  <!-- Feature region markers -->
  <!-- Vertex wave region -->
  <rect x="155" y="42" width="60" height="14" fill="#66bbff" fill-opacity="0.12" stroke="#66bbff" stroke-width="0.5"/>
  <text x="185" y="53" text-anchor="middle" fill="#66bbff" font-family="Consolas, monospace" font-size="8" font-weight="bold">V-Wave</text>
  <!-- K-complex region -->
  <rect x="310" y="42" width="100" height="14" fill="#ff6666" fill-opacity="0.12" stroke="#ff6666" stroke-width="0.5"/>
  <text x="360" y="53" text-anchor="middle" fill="#ff6666" font-family="Consolas, monospace" font-size="8" font-weight="bold">K-Complex</text>
  <!-- Sleep spindle region -->
  <rect x="530" y="42" width="90" height="14" fill="#ffbb33" fill-opacity="0.12" stroke="#ffbb33" stroke-width="0.5"/>
  <text x="575" y="53" text-anchor="middle" fill="#ffbb33" font-family="Consolas, monospace" font-size="8" font-weight="bold">Spindle</text>

  <g clip-path="url(#traceClip)" filter="url(#glow)">
    <!-- Fp1: Mixed theta/delta sleep background, vertex wave ~x175, K-complex ~x340, sleep spindle effect mild -->
    <polyline fill="none" stroke="#00ff88" stroke-width="1.2" points="
      95,75 100,72 105,78 110,71 115,79 120,73 125,77 130,72 135,78 140,74 145,76 150,72
      155,73 160,70 165,68 170,58 175,50 180,72 185,82 190,78 195,74
      200,73 205,77 210,72 215,78 220,74 225,76 230,71 235,79 240,73 245,77 250,72 255,78 260,74 265,76 270,73 275,77 280,72 285,78 290,73 295,77 300,72 305,76 310,74
      315,70 320,66 325,55 330,42 335,68 340,85 345,90 350,82 355,70 358,68 360,72 362,68 364,72 366,68 368,72 370,68 372,72 374,68 376,72 378,68 380,72 382,68 384,72 386,68 388,72 390,70 395,74 400,76
      405,73 410,77 415,72 420,78 425,74 430,76 435,73 440,77 445,72 450,78 455,74 460,76 465,73 470,77 475,72 480,78 485,74 490,76 495,73 500,77 505,72 510,78 515,74 520,76 525,73
      530,74 532,72 534,76 536,72 538,76 540,72 542,76 544,72 546,76 548,73 550,77 552,73 554,77 556,73 558,77 560,73 562,77 564,73 566,77 568,73 570,76 572,73 574,77 576,73 578,76 580,73 582,76 584,73 586,77 588,73 590,76 592,72 594,77 596,73 598,76 600,72 602,78 604,73 606,76 608,72 610,77 612,74 614,76 616,73 618,77 620,74
      625,73 630,77 635,72 640,78 645,74 650,76 655,73 660,77 665,72 670,78 675,74 680,76 685,73 690,77 695,72 700,78 705,74 710,76 715,73 720,77 725,72 730,78 735,74 740,76 745,73 750,77 755,72 760,78 765,74 770,76 775,73 780,77 785,72 790,75"/>

    <!-- F3: Slightly larger vertex wave, K-complex visible, mild spindle -->
    <polyline fill="none" stroke="#00ff88" stroke-width="1.2" points="
      95,115 100,112 105,118 110,111 115,119 120,113 125,117 130,112 135,118 140,114 145,116 150,112
      155,112 160,108 165,104 170,92 175,82 180,112 185,124 190,118 195,114
      200,113 205,117 210,112 215,118 220,114 225,116 230,111 235,119 240,113 245,117 250,112 255,118 260,114 265,116 270,113 275,117 280,112 285,118 290,113 295,117 300,112 305,116 310,114
      315,110 320,104 325,88 330,72 335,108 340,130 345,135 350,125 355,110 358,106 360,112 362,106 364,112 366,106 368,112 370,106 372,112 374,106 376,112 378,106 380,112 382,106 384,112 386,106 388,112 390,110 395,114 400,116
      405,113 410,117 415,112 420,118 425,114 430,116 435,113 440,117 445,112 450,118 455,114 460,116 465,113 470,117 475,112 480,118 485,114 490,116 495,113 500,117 505,112 510,118 515,114 520,116 525,113
      530,114 532,110 534,118 536,110 538,118 540,110 542,118 544,110 546,118 548,111 550,119 552,111 554,119 556,111 558,119 560,111 562,119 564,111 566,119 568,112 570,118 572,112 574,117 576,112 578,118 580,112 582,117 584,112 586,118 588,112 590,117 592,112 594,118 596,112 598,117 600,112 602,118 604,113 606,117 608,112 610,118 612,114 614,116 616,113 618,117 620,114
      625,113 630,117 635,112 640,118 645,114 650,116 655,113 660,117 665,112 670,118 675,114 680,116 685,113 690,117 695,112 700,118 705,114 710,116 715,113 720,117 725,112 730,118 735,114 740,116 745,113 750,117 755,112 760,118 765,114 770,116 775,113 780,117 785,112 790,115"/>

    <!-- C3: Large vertex wave (sharp neg transient), prominent K-complex, prominent sleep spindle 12-14Hz -->
    <polyline fill="none" stroke="#00ff88" stroke-width="1.3" points="
      95,155 100,152 105,158 110,151 115,159 120,153 125,157 130,152 135,158 140,154 145,156 150,152
      155,150 160,142 165,130 170,112 175,100 178,118 180,152 183,165 186,162 190,158 195,154
      200,153 205,157 210,152 215,158 220,154 225,156 230,151 235,159 240,153 245,157 250,152 255,158 260,154 265,156 270,153 275,157 280,152 285,158 290,153 295,157 300,152 305,156 310,154
      315,148 320,138 325,118 330,95 333,108 336,140 340,170 343,178 346,172 349,158
      352,152 354,158 356,148 358,158 360,148 362,158 364,148 366,158 368,148 370,158 372,148 374,158 376,148 378,158 380,148 382,158 384,148 386,158 388,150 390,156 395,154 400,156
      405,153 410,157 415,152 420,158 425,154 430,156 435,153 440,157 445,152 450,158 455,154 460,156 465,153 470,157 475,152 480,158 485,154 490,156 495,153 500,157 505,152 510,158 515,154 520,156 525,153
      530,152 532,144 534,162 536,142 538,164 540,140 542,166 544,138 546,168 548,140 550,166 552,140 554,168 556,138 558,166 560,140 562,164 564,142 566,162 568,144 570,160 572,146 574,158 576,148 578,156 580,150 582,155 584,152 586,157 588,152 590,156 592,152 594,158 596,152 598,156 600,152 602,158 604,153 606,157 608,152 610,158 612,154 614,156 616,153 618,157 620,154
      625,153 630,157 635,152 640,158 645,154 650,156 655,153 660,157 665,152 670,158 675,154 680,156 685,153 690,157 695,152 700,158 705,154 710,156 715,153 720,157 725,152 730,158 735,154 740,156 745,153 750,157 755,152 760,158 765,154 770,156 775,153 780,157 785,152 790,155"/>

    <!-- P3: Moderate vertex wave, K-complex moderate, mild spindle -->
    <polyline fill="none" stroke="#00ff88" stroke-width="1.2" points="
      95,195 100,192 105,198 110,191 115,199 120,193 125,197 130,192 135,198 140,194 145,196 150,192
      155,191 160,186 165,178 170,168 175,160 178,174 180,192 183,202 186,199 190,198 195,194
      200,193 205,197 210,192 215,198 220,194 225,196 230,191 235,199 240,193 245,197 250,192 255,198 260,194 265,196 270,193 275,197 280,192 285,198 290,193 295,197 300,192 305,196 310,194
      315,190 320,182 325,168 330,150 333,162 336,182 340,206 343,212 346,208 349,198
      352,194 354,198 356,190 358,198 360,190 362,198 364,190 366,198 368,190 370,198 372,190 374,198 376,190 378,198 380,192 382,196 384,192 386,198 388,192 390,196 395,194 400,196
      405,193 410,197 415,192 420,198 425,194 430,196 435,193 440,197 445,192 450,198 455,194 460,196 465,193 470,197 475,192 480,198 485,194 490,196 495,193 500,197 505,192 510,198 515,194 520,196 525,193
      530,192 532,188 534,200 536,186 538,202 540,186 542,200 544,188 546,198 548,190 550,196 552,190 554,198 556,190 558,196 560,192 562,196 564,192 566,198 568,192 570,196 572,193 574,197 576,193 578,197 580,193 582,196 584,193 586,197 588,193 590,196 592,192 594,198 596,193 598,196 600,192 602,198 604,193 606,197 608,192 610,198 612,194 614,196 616,193 618,197 620,194
      625,193 630,197 635,192 640,198 645,194 650,196 655,193 660,197 665,192 670,198 675,194 680,196 685,193 690,197 695,192 700,198 705,194 710,196 715,193 720,197 725,192 730,198 735,194 740,196 745,193 750,197 755,192 760,198 765,194 770,196 775,193 780,197 785,192 790,195"/>

    <!-- O1: Sleep background, less vertex wave, K-complex moderate -->
    <polyline fill="none" stroke="#00ff88" stroke-width="1.2" points="
      95,235 100,232 105,238 110,231 115,239 120,233 125,237 130,232 135,238 140,234 145,236 150,232
      155,233 160,230 165,226 170,220 175,216 178,224 180,235 183,240 186,238 190,238 195,234
      200,233 205,237 210,232 215,238 220,234 225,236 230,231 235,239 240,233 245,237 250,232 255,238 260,234 265,236 270,233 275,237 280,232 285,238 290,233 295,237 300,232 305,236 310,234
      315,230 320,224 325,212 330,200 333,210 336,224 340,246 343,252 346,248 349,238
      352,234 354,238 356,232 358,238 360,232 362,238 364,232 366,238 368,232 370,238 372,232 374,238 376,232 378,238 380,234 382,236 384,233 386,237 388,234 390,236 395,234 400,236
      405,233 410,237 415,232 420,238 425,234 430,236 435,233 440,237 445,232 450,238 455,234 460,236 465,233 470,237 475,232 480,238 485,234 490,236 495,233 500,237 505,232 510,238 515,234 520,236 525,233
      530,233 532,230 534,238 536,230 538,238 540,231 542,237 544,232 546,236 548,233 550,237 552,233 554,237 556,233 558,236 560,234 562,236 564,234 566,237 568,234 570,236 572,234 574,237 576,234 578,236 580,234 582,236 584,234 586,237 588,234 590,236 592,233 594,237 596,234 598,236 600,233 602,238 604,233 606,237 608,232 610,238 612,234 614,236 616,233 618,237 620,234
      625,233 630,237 635,232 640,238 645,234 650,236 655,233 660,237 665,232 670,238 675,234 680,236 685,233 690,237 695,232 700,238 705,234 710,236 715,233 720,237 725,232 730,238 735,234 740,236 745,233 750,237 755,232 760,238 765,234 770,236 775,233 780,237 785,232 790,235"/>

    <!-- Fp2: Mirror of Fp1 with slight variation -->
    <polyline fill="none" stroke="#00ff88" stroke-width="1.2" points="
      95,275 100,272 105,278 110,271 115,279 120,273 125,277 130,272 135,278 140,274 145,276 150,272
      155,273 160,270 165,268 170,260 175,252 180,272 185,282 190,278 195,274
      200,273 205,277 210,272 215,278 220,274 225,276 230,271 235,279 240,273 245,277 250,272 255,278 260,274 265,276 270,273 275,277 280,272 285,278 290,273 295,277 300,272 305,276 310,274
      315,270 320,266 325,256 330,244 335,268 340,284 345,290 350,282 355,270 358,268 360,272 362,268 364,272 366,268 368,272 370,268 372,272 374,268 376,272 378,268 380,272 382,268 384,272 386,268 388,272 390,270 395,274 400,276
      405,273 410,277 415,272 420,278 425,274 430,276 435,273 440,277 445,272 450,278 455,274 460,276 465,273 470,277 475,272 480,278 485,274 490,276 495,273 500,277 505,272 510,278 515,274 520,276 525,273
      530,274 532,272 534,276 536,272 538,276 540,272 542,276 544,272 546,276 548,273 550,277 552,273 554,277 556,273 558,277 560,273 562,277 564,273 566,277 568,273 570,276 572,273 574,277 576,273 578,276 580,273 582,276 584,273 586,277 588,273 590,276 592,272 594,277 596,273 598,276 600,272 602,278 604,273 606,277 608,272 610,278 612,274 614,276 616,273 618,277 620,274
      625,273 630,277 635,272 640,278 645,274 650,276 655,273 660,277 665,272 670,278 675,274 680,276 685,273 690,277 695,272 700,278 705,274 710,276 715,273 720,277 725,272 730,278 735,274 740,276 745,273 750,277 755,272 760,278 765,274 770,276 775,273 780,277 785,272 790,275"/>

    <!-- F4: Mirror similar to F3 -->
    <polyline fill="none" stroke="#00ff88" stroke-width="1.2" points="
      95,315 100,312 105,318 110,311 115,319 120,313 125,317 130,312 135,318 140,314 145,316 150,312
      155,312 160,308 165,304 170,294 175,284 180,312 185,324 190,318 195,314
      200,313 205,317 210,312 215,318 220,314 225,316 230,311 235,319 240,313 245,317 250,312 255,318 260,314 265,316 270,313 275,317 280,312 285,318 290,313 295,317 300,312 305,316 310,314
      315,310 320,304 325,290 330,274 335,308 340,330 345,335 350,325 355,310 358,306 360,312 362,306 364,312 366,306 368,312 370,306 372,312 374,306 376,312 378,306 380,312 382,306 384,312 386,306 388,312 390,310 395,314 400,316
      405,313 410,317 415,312 420,318 425,314 430,316 435,313 440,317 445,312 450,318 455,314 460,316 465,313 470,317 475,312 480,318 485,314 490,316 495,313 500,317 505,312 510,318 515,314 520,316 525,313
      530,314 532,310 534,318 536,310 538,318 540,310 542,318 544,310 546,318 548,311 550,319 552,311 554,319 556,311 558,319 560,311 562,319 564,311 566,319 568,312 570,318 572,312 574,317 576,312 578,318 580,312 582,317 584,312 586,318 588,312 590,317 592,312 594,318 596,312 598,317 600,312 602,318 604,313 606,317 608,312 610,318 612,314 614,316 616,313 618,317 620,314
      625,313 630,317 635,312 640,318 645,314 650,316 655,313 660,317 665,312 670,318 675,314 680,316 685,313 690,317 695,312 700,318 705,314 710,316 715,313 720,317 725,312 730,318 735,314 740,316 745,313 750,317 755,312 760,318 765,314 770,316 775,313 780,317 785,312 790,315"/>

    <!-- C4: Prominent sleep spindle, prominent K-complex, large vertex wave -->
    <polyline fill="none" stroke="#00ff88" stroke-width="1.3" points="
      95,355 100,352 105,358 110,351 115,359 120,353 125,357 130,352 135,358 140,354 145,356 150,352
      155,350 160,342 165,330 170,312 175,300 178,318 180,352 183,365 186,362 190,358 195,354
      200,353 205,357 210,352 215,358 220,354 225,356 230,351 235,359 240,353 245,357 250,352 255,358 260,354 265,356 270,353 275,357 280,352 285,358 290,353 295,357 300,352 305,356 310,354
      315,348 320,338 325,318 330,295 333,308 336,340 340,370 343,378 346,372 349,358
      352,352 354,358 356,348 358,358 360,348 362,358 364,348 366,358 368,348 370,358 372,348 374,358 376,348 378,358 380,348 382,358 384,348 386,358 388,350 390,356 395,354 400,356
      405,353 410,357 415,352 420,358 425,354 430,356 435,353 440,357 445,352 450,358 455,354 460,356 465,353 470,357 475,352 480,358 485,354 490,356 495,353 500,357 505,352 510,358 515,354 520,356 525,353
      530,352 532,344 534,362 536,342 538,364 540,340 542,366 544,338 546,368 548,340 550,366 552,340 554,368 556,338 558,366 560,340 562,364 564,342 566,362 568,344 570,360 572,346 574,358 576,348 578,356 580,350 582,355 584,352 586,357 588,352 590,356 592,352 594,358 596,352 598,356 600,352 602,358 604,353 606,357 608,352 610,358 612,354 614,356 616,353 618,357 620,354
      625,353 630,357 635,352 640,358 645,354 650,356 655,353 660,357 665,352 670,358 675,354 680,356 685,353 690,357 695,352 700,358 705,354 710,356 715,353 720,357 725,352 730,358 735,354 740,356 745,353 750,357 755,352 760,358 765,354 770,356 775,353 780,357 785,352 790,355"/>
  </g>

  <!-- Annotation arrows and labels -->
  <!-- Vertex Wave annotation pointing to C3 vertex wave -->
  <line x1="175" y1="62" x2="175" y2="96" stroke="#66bbff" stroke-width="1" stroke-dasharray="2,2"/>
  <polygon points="175,96 172,90 178,90" fill="#66bbff"/>
  <text x="175" y="60" text-anchor="middle" fill="#66bbff" font-family="Consolas, monospace" font-size="8">Vertex Wave</text>

  <!-- K-complex annotation -->
  <line x1="330" y1="62" x2="330" y2="90" stroke="#ff6666" stroke-width="1" stroke-dasharray="2,2"/>
  <polygon points="330,90 327,84 333,84" fill="#ff6666"/>
  <text x="340" y="60" text-anchor="middle" fill="#ff6666" font-family="Consolas, monospace" font-size="8">K-Complex</text>

  <!-- K-complex + spindle detail annotation -->
  <line x1="365" y1="62" x2="365" y2="142" stroke="#ffbb33" stroke-width="0.8" stroke-dasharray="2,3"/>
  <text x="388" y="60" text-anchor="middle" fill="#ffbb33" font-family="Consolas, monospace" font-size="7">+ Spindle</text>

  <!-- Sleep Spindle annotation pointing to C3 spindle -->
  <line x1="550" y1="62" x2="550" y2="138" stroke="#ffbb33" stroke-width="1" stroke-dasharray="2,2"/>
  <polygon points="550,138 547,132 553,132" fill="#ffbb33"/>
  <text x="570" y="60" text-anchor="middle" fill="#ffbb33" font-family="Consolas, monospace" font-size="8">12-14 Hz</text>

  <!-- Clinical note box -->
  <rect x="620" y="62" width="168" height="52" fill="#0d0d1a" stroke="#333355" stroke-width="1" rx="4"/>
  <text x="704" y="78" text-anchor="middle" fill="#ffbb33" font-family="Consolas, monospace" font-size="10" font-weight="bold">Stage N2 Sleep</text>
  <text x="704" y="90" text-anchor="middle" fill="#667788" font-family="Consolas, monospace" font-size="8">Vertex waves (Cz/C3/C4)</text>
  <text x="704" y="100" text-anchor="middle" fill="#667788" font-family="Consolas, monospace" font-size="8">K-complexes + Spindles</text>
  <text x="704" y="110" text-anchor="middle" fill="#667788" font-family="Consolas, monospace" font-size="8">12-14 Hz | 0.5-1 sec</text>

  <!-- Scale bars -->
  <line x1="720" y1="48" x2="780" y2="48" stroke="#ffbb33" stroke-width="2"/>
  <text x="750" y="43" text-anchor="middle" fill="#ffbb33" font-family="Consolas, monospace" font-size="9">1 sec</text>
  <line x1="88" y1="55" x2="88" y2="95" stroke="#ffbb33" stroke-width="2"/>
  <line x1="85" y1="55" x2="91" y2="55" stroke="#ffbb33" stroke-width="2"/>
  <line x1="85" y1="95" x2="91" y2="95" stroke="#ffbb33" stroke-width="2"/>
  <text x="78" y="78" text-anchor="end" fill="#ffbb33" font-family="Consolas, monospace" font-size="8">100uV</text>
</svg>