<svg xmlns="http://www.w3.org/2000/svg" viewBox="0 0 800 500" width="800" height="500">
  <defs>
    <filter id="glow">
      <feGaussianBlur stdDeviation="1" result="coloredBlur"/>
      <feMerge><feMergeNode in="coloredBlur"/><feMergeNode in="SourceGraphic"/></feMerge>
    </filter>
  </defs>
  <rect width="800" height="500" fill="#1a1a2e"/>
  <rect x="0" y="0" width="800" height="40" fill="#0d0d1a" stroke="#333355" stroke-width="1"/>
  <text x="400" y="27" text-anchor="middle" fill="#00ff88" font-family="Consolas, monospace" font-size="16" font-weight="bold">PDR Maturation by Age (Occipital Rhythm)</text>
  <!-- Age label column -->
  <g font-family="Consolas, monospace" fill="#aabbcc">
    <!-- Row 1: 3 months -->
    <text x="15" y="95" font-size="12" fill="#ffbb33">3 months</text>
    <text x="15" y="108" font-size="10" fill="#667788">3-4 Hz (Delta-Theta)</text>
    <!-- Row 2: 1 year -->
    <text x="15" y="165" font-size="12" fill="#ffbb33">1 year</text>
    <text x="15" y="178" font-size="10" fill="#667788">5-6 Hz (Theta)</text>
    <!-- Row 3: 3 years -->
    <text x="15" y="235" font-size="12" fill="#ffbb33">3 years</text>
    <text x="15" y="248" font-size="10" fill="#667788">7-8 Hz (Theta-Alpha)</text>
    <!-- Row 4: 5 years -->
    <text x="15" y="305" font-size="12" fill="#ffbb33">5 years</text>
    <text x="15" y="318" font-size="10" fill="#667788">8 Hz (Alpha)</text>
    <!-- Row 5: 8 years -->
    <text x="15" y="375" font-size="12" fill="#ffbb33">8 years</text>
    <text x="15" y="388" font-size="10" fill="#667788">8-9 Hz (Alpha)</text>
    <!-- Row 6: 10+ years -->
    <text x="15" y="445" font-size="12" fill="#ffbb33">10+ years</text>
    <text x="15" y="458" font-size="10" fill="#667788">10 Hz (Alpha)</text>
  </g>
  <!-- Baselines -->
  <g stroke="#222244" stroke-width="0.5">
    <line x1="160" y1="95" x2="780" y2="95"/>
    <line x1="160" y1="165" x2="780" y2="165"/>
    <line x1="160" y1="235" x2="780" y2="235"/>
    <line x1="160" y1="305" x2="780" y2="305"/>
    <line x1="160" y1="375" x2="780" y2="375"/>
    <line x1="160" y1="445" x2="780" y2="445"/>
  </g>
  <!-- Separator lines -->
  <g stroke="#1a1a3e" stroke-width="1">
    <line x1="10" y1="130" x2="790" y2="130"/>
    <line x1="10" y1="200" x2="790" y2="200"/>
    <line x1="10" y1="270" x2="790" y2="270"/>
    <line x1="10" y1="340" x2="790" y2="340"/>
    <line x1="10" y1="410" x2="790" y2="410"/>
  </g>
  <g filter="url(#glow)">
    <!-- 3 months: 3.5 Hz - very slow, ~86ms per quarter cycle at 3.5Hz => period ~286ms. At 620px for ~2sec: 1px~3.2ms -->
    <!-- period = 286ms = ~90px, half=45px -->
    <polyline fill="none" stroke="#00ff88" stroke-width="1.5" points="
      160,95 170,80 190,110 210,80 230,110 250,80 270,110 290,80 310,110 330,80 350,110 370,80 390,110 410,80 430,110 450,80 470,110 490,80 510,110 530,80 550,110 570,80 590,110 610,80 630,110 650,80 670,110 690,80 710,110 730,80 750,110 770,80 780,95"/>
    <!-- 1 year: 5.5 Hz - period ~182ms = ~57px, half=28px -->
    <polyline fill="none" stroke="#00ff88" stroke-width="1.5" points="
      160,165 168,150 184,180 200,150 216,180 232,150 248,180 264,150 280,180 296,150 312,180 328,150 344,180 360,150 376,180 392,150 408,180 424,150 440,180 456,150 472,180 488,150 504,180 520,150 536,180 552,150 568,180 584,150 600,180 616,150 632,180 648,150 664,180 680,150 696,180 712,150 728,180 744,150 760,180 770,165 780,165"/>
    <!-- 3 years: 7.5 Hz - period ~133ms = ~42px, half=21px -->
    <polyline fill="none" stroke="#00ff88" stroke-width="1.5" points="
      160,235 166,220 178,250 190,220 202,250 214,220 226,250 238,220 250,250 262,220 274,250 286,220 298,250 310,220 322,250 334,220 346,250 358,220 370,250 382,220 394,250 406,220 418,250 430,220 442,250 454,220 466,250 478,220 490,250 502,220 514,250 526,220 538,250 550,220 562,250 574,220 586,250 598,220 610,250 622,220 634,250 646,220 658,250 670,220 682,250 694,220 706,250 718,220 730,250 742,220 754,250 766,220 778,250 780,235"/>
    <!-- 5 years: 8 Hz - period ~125ms = ~39px, half=19px -->
    <polyline fill="none" stroke="#00ff88" stroke-width="1.5" points="
      160,305 165,290 178,320 191,290 204,320 217,290 230,320 243,290 256,320 269,290 282,320 295,290 308,320 321,290 334,320 347,290 360,320 373,290 386,320 399,290 412,320 425,290 438,320 451,290 464,320 477,290 490,320 503,290 516,320 529,290 542,320 555,290 568,320 581,290 594,320 607,290 620,320 633,290 646,320 659,290 672,320 685,290 698,320 711,290 724,320 737,290 750,320 763,290 776,320 780,305"/>
    <!-- 8 years: 8.5 Hz - period ~118ms = ~37px, half=18px -->
    <polyline fill="none" stroke="#00ff88" stroke-width="1.5" points="
      160,375 165,360 177,390 189,360 201,390 213,360 225,390 237,360 249,390 261,360 273,390 285,360 297,390 309,360 321,390 333,360 345,390 357,360 369,390 381,360 393,390 405,360 417,390 429,360 441,390 453,360 465,390 477,360 489,390 501,360 513,390 525,360 537,390 549,360 561,390 573,360 585,390 597,360 609,390 621,360 633,390 645,360 657,390 669,360 681,390 693,360 705,390 717,360 729,390 741,360 753,390 765,360 777,390 780,375"/>
    <!-- 10+ years: 10 Hz - period ~100ms = ~31px, half=15px -->
    <polyline fill="none" stroke="#00ff88" stroke-width="1.5" points="
      160,445 164,430 172,460 180,430 188,460 196,430 204,460 212,430 220,460 228,430 236,460 244,430 252,460 260,430 268,460 276,430 284,460 292,430 300,460 308,430 316,460 324,430 332,460 340,430 348,460 356,430 364,460 372,430 380,460 388,430 396,460 404,430 412,460 420,430 428,460 436,430 444,460 452,430 460,460 468,430 476,460 484,430 492,460 500,430 508,460 516,430 524,460 532,430 540,460 548,430 556,460 564,430 572,460 580,430 588,460 596,430 604,460 612,430 620,460 628,430 636,460 644,430 652,460 660,430 668,460 676,430 684,460 692,430 700,460 708,430 716,460 724,430 732,460 740,430 748,460 756,430 764,460 772,430 780,445"/>
  </g>
  <!-- Maturation arrow -->
  <line x1="790" y1="90" x2="790" y2="460" stroke="#ffbb33" stroke-width="2" marker-end="url(#arrowhead)"/>
  <defs>
    <marker id="arrowhead" markerWidth="8" markerHeight="6" refX="0" refY="3" orient="auto">
      <polygon points="0 0, 8 3, 0 6" fill="#ffbb33"/>
    </marker>
  </defs>
  <text x="793" y="280" fill="#ffbb33" font-family="Consolas, monospace" font-size="11" transform="rotate(90 793 280)" text-anchor="middle">Maturation</text>
  <!-- Time scale -->
  <line x1="160" y1="480" x2="472" y2="480" stroke="#ffbb33" stroke-width="2"/>
  <line x1="160" y1="476" x2="160" y2="484" stroke="#ffbb33" stroke-width="2"/>
  <line x1="472" y1="476" x2="472" y2="484" stroke="#ffbb33" stroke-width="2"/>
  <text x="316" y="495" text-anchor="middle" fill="#ffbb33" font-family="Consolas, monospace" font-size="10">1 second</text>
  <!-- Frequency arrow annotation -->
  <text x="650" y="480" text-anchor="middle" fill="#667788" font-family="Consolas, monospace" font-size="10">Frequency increases with age</text>
  <text x="650" y="495" text-anchor="middle" fill="#667788" font-family="Consolas, monospace" font-size="10">Adult PDR (10 Hz) by age 10</text>
</svg>