<svg xmlns="http://www.w3.org/2000/svg" viewBox="0 0 800 400" width="800" height="400">
  <defs>
    <filter id="glow">
      <feGaussianBlur stdDeviation="1" result="coloredBlur"/>
      <feMerge><feMergeNode in="coloredBlur"/><feMergeNode in="SourceGraphic"/></feMerge>
    </filter>
    <clipPath id="traceClip"><rect x="95" y="40" width="700" height="355"/></clipPath>
  </defs>
  <rect width="800" height="400" fill="#1a1a2e"/>
  <rect x="0" y="0" width="800" height="40" fill="#0d0d1a" stroke="#333355" stroke-width="1"/>
  <text x="400" y="27" text-anchor="middle" fill="#00ff88" font-family="Consolas, monospace" font-size="15" font-weight="bold">Generalized Polyspike-and-Wave (JME Pattern)</text>
  <!-- Channel labels -->
  <g font-family="Consolas, monospace" font-size="11" fill="#aabbcc">
    <text x="88" y="78" text-anchor="end">Fp1</text>
    <text x="88" y="118" text-anchor="end">F3</text>
    <text x="88" y="158" text-anchor="end">C3</text>
    <text x="88" y="198" text-anchor="end">P3</text>
    <text x="88" y="238" text-anchor="end">O1</text>
    <text x="88" y="278" text-anchor="end">Fp2</text>
    <text x="88" y="318" text-anchor="end">F4</text>
    <text x="88" y="358" text-anchor="end">C4</text>
  </g>
  <!-- Baselines -->
  <g stroke="#222244" stroke-width="0.5">
    <line x1="95" y1="75" x2="790" y2="75"/>
    <line x1="95" y1="115" x2="790" y2="115"/>
    <line x1="95" y1="155" x2="790" y2="155"/>
    <line x1="95" y1="195" x2="790" y2="195"/>
    <line x1="95" y1="235" x2="790" y2="235"/>
    <line x1="95" y1="275" x2="790" y2="275"/>
    <line x1="95" y1="315" x2="790" y2="315"/>
    <line x1="95" y1="355" x2="790" y2="355"/>
  </g>

  <!-- Discharge onset/offset markers -->
  <line x1="160" y1="45" x2="160" y2="390" stroke="#ff444466" stroke-width="0.5" stroke-dasharray="3,5"/>
  <line x1="680" y1="45" x2="680" y2="390" stroke="#ff444466" stroke-width="0.5" stroke-dasharray="3,5"/>
  <text x="158" y="395" text-anchor="middle" fill="#ff6666" font-family="Consolas, monospace" font-size="9">Onset</text>
  <text x="682" y="395" text-anchor="middle" fill="#ff6666" font-family="Consolas, monospace" font-size="9">Offset</text>

  <!-- Component labels at top -->
  <rect x="195" y="44" width="70" height="13" fill="none" stroke="#ffbb33" stroke-width="0.8"/>
  <text x="230" y="54" text-anchor="middle" fill="#ffbb33" font-family="Consolas, monospace" font-size="8">Polyspike</text>
  <rect x="265" y="44" width="50" height="13" fill="none" stroke="#66bbff" stroke-width="0.8"/>
  <text x="290" y="54" text-anchor="middle" fill="#66bbff" font-family="Consolas, monospace" font-size="8">Slow Wave</text>

  <g clip-path="url(#traceClip)" filter="url(#glow)">
    <!-- Each channel: normal background -> polyspike-and-wave complexes (3-5 rapid spikes + slow wave) at irregular ~4-6 Hz -> normal -->
    <!-- Polyspike = 3-5 sharp rapid deflections; Slow wave = broad positive-then-negative -->

    <!-- Fp1: y=75 -->
    <polyline fill="none" stroke="#00ff88" stroke-width="1.3" points="
      95,75 100,73 105,77 110,74 115,76 120,73 125,77 130,74 135,76 140,73 145,77 150,74 155,76 160,75
      164,50 166,78 168,48 170,80 172,46 174,78 176,50
      182,98 195,92 210,78 218,72 222,75
      225,48 227,76 229,46 231,80 233,44 235,78 237,50 239,78
      245,100 258,92 275,80 285,72 290,75
      293,46 295,74 297,44 299,80 301,42 303,76 305,48 307,78
      314,102 328,94 345,82 358,72 363,75
      366,48 368,76 370,46 372,80 374,44 376,74 378,48
      385,100 398,93 415,82 428,72 433,75
      436,46 438,76 440,44 442,80 444,42 446,78 448,50
      455,102 468,94 485,82 498,74 505,75
      508,48 510,76 512,46 514,80 516,44 518,76 520,50 522,78
      528,100 542,92 558,82 572,72 578,75
      581,46 583,74 585,44 587,80 589,42 591,76 593,48 595,78
      602,102 618,94 635,82 650,72 658,75
      661,48 663,76 665,46 667,80 669,44 671,78 673,50 675,78
      680,75
      685,73 690,77 695,74 700,76 705,73 710,77 715,74 720,76 725,73 730,77 735,74 740,76 745,73 750,77 755,74 760,76 765,73 770,77 775,74 780,76 785,74 790,75"/>

    <!-- F3: y=115 -->
    <polyline fill="none" stroke="#00ff88" stroke-width="1.3" points="
      95,115 100,113 105,117 110,114 115,116 120,113 125,117 130,114 135,116 140,113 145,117 150,114 155,116 160,115
      164,88 166,118 168,86 170,120 172,84 174,118 176,88
      182,140 195,132 210,118 218,112 222,115
      225,86 227,116 229,84 231,120 233,82 235,118 237,88 239,118
      245,142 258,132 275,120 285,112 290,115
      293,84 295,114 297,82 299,120 301,80 303,116 305,86 307,118
      314,144 328,134 345,122 358,112 363,115
      366,86 368,116 370,84 372,120 374,82 376,114 378,86
      385,142 398,133 415,122 428,112 433,115
      436,84 438,116 440,82 442,120 444,80 446,118 448,88
      455,144 468,134 485,122 498,114 505,115
      508,86 510,116 512,84 514,120 516,82 518,116 520,88 522,118
      528,142 542,132 558,122 572,112 578,115
      581,84 583,114 585,82 587,120 589,80 591,116 593,86 595,118
      602,144 618,134 635,122 650,112 658,115
      661,86 663,116 665,84 667,120 669,82 671,118 673,88 675,118
      680,115
      685,113 690,117 695,114 700,116 705,113 710,117 715,114 720,116 725,113 730,117 735,114 740,116 745,113 750,117 755,114 760,116 765,113 770,117 775,114 780,116 785,114 790,115"/>

    <!-- C3: y=155 -->
    <polyline fill="none" stroke="#00ff88" stroke-width="1.3" points="
      95,155 100,153 105,157 110,154 115,156 120,153 125,157 130,154 135,156 140,153 145,157 150,154 155,156 160,155
      164,130 166,158 168,128 170,160 172,126 174,158 176,132
      182,178 195,170 210,158 218,152 222,155
      225,128 227,156 229,126 231,160 233,124 235,158 237,130 239,158
      245,180 258,170 275,160 285,152 290,155
      293,126 295,154 297,124 299,160 301,122 303,156 305,128 307,158
      314,182 328,172 345,162 358,152 363,155
      366,128 368,156 370,126 372,160 374,124 376,154 378,128
      385,180 398,171 415,162 428,152 433,155
      436,126 438,156 440,124 442,160 444,122 446,158 448,130
      455,182 468,172 485,162 498,154 505,155
      508,128 510,156 512,126 514,160 516,124 518,156 520,130 522,158
      528,180 542,170 558,162 572,152 578,155
      581,126 583,154 585,124 587,160 589,122 591,156 593,128 595,158
      602,182 618,172 635,162 650,152 658,155
      661,128 663,156 665,126 667,160 669,124 671,158 673,130 675,158
      680,155
      685,153 690,157 695,154 700,156 705,153 710,157 715,154 720,156 725,153 730,157 735,154 740,156 745,153 750,157 755,154 760,156 765,153 770,157 775,154 780,156 785,154 790,155"/>

    <!-- P3: y=195 -->
    <polyline fill="none" stroke="#00ff88" stroke-width="1.3" points="
      95,195 100,193 105,197 110,194 115,196 120,193 125,197 130,194 135,196 140,193 145,197 150,194 155,196 160,195
      164,172 166,198 168,170 170,200 172,168 174,198 176,174
      182,216 195,210 210,198 218,192 222,195
      225,170 227,196 229,168 231,200 233,166 235,198 237,172 239,198
      245,218 258,210 275,200 285,192 290,195
      293,168 295,194 297,166 299,200 301,164 303,196 305,170 307,198
      314,220 328,212 345,202 358,192 363,195
      366,170 368,196 370,168 372,200 374,166 376,194 378,170
      385,218 398,211 415,202 428,192 433,195
      436,168 438,196 440,166 442,200 444,164 446,198 448,172
      455,220 468,212 485,202 498,194 505,195
      508,170 510,196 512,168 514,200 516,166 518,196 520,172 522,198
      528,218 542,210 558,202 572,192 578,195
      581,168 583,194 585,166 587,200 589,164 591,196 593,170 595,198
      602,220 618,212 635,202 650,192 658,195
      661,170 663,196 665,168 667,200 669,166 671,198 673,172 675,198
      680,195
      685,193 690,197 695,194 700,196 705,193 710,197 715,194 720,196 725,193 730,197 735,194 740,196 745,193 750,197 755,194 760,196 765,193 770,197 775,194 780,196 785,194 790,195"/>

    <!-- O1: y=235 -->
    <polyline fill="none" stroke="#00ff88" stroke-width="1.3" points="
      95,235 100,233 105,237 110,234 115,236 120,233 125,237 130,234 135,236 140,233 145,237 150,234 155,236 160,235
      164,215 166,238 168,213 170,240 172,210 174,238 176,216
      182,254 195,248 210,238 218,232 222,235
      225,213 227,236 229,210 231,240 233,208 235,238 237,214 239,238
      245,256 258,248 275,240 285,232 290,235
      293,210 295,234 297,208 299,240 301,206 303,236 305,212 307,238
      314,258 328,250 345,240 358,232 363,235
      366,212 368,236 370,210 372,240 374,208 376,234 378,212
      385,256 398,249 415,240 428,232 433,235
      436,210 438,236 440,208 442,240 444,206 446,238 448,214
      455,258 468,250 485,240 498,234 505,235
      508,212 510,236 512,210 514,240 516,208 518,236 520,214 522,238
      528,256 542,248 558,240 572,232 578,235
      581,210 583,234 585,208 587,240 589,206 591,236 593,212 595,238
      602,258 618,250 635,240 650,232 658,235
      661,212 663,236 665,210 667,240 669,208 671,238 673,214 675,238
      680,235
      685,233 690,237 695,234 700,236 705,233 710,237 715,234 720,236 725,233 730,237 735,234 740,236 745,233 750,237 755,234 760,236 765,233 770,237 775,234 780,236 785,234 790,235"/>

    <!-- Fp2: y=275 -->
    <polyline fill="none" stroke="#00ff88" stroke-width="1.3" points="
      95,275 100,273 105,277 110,274 115,276 120,273 125,277 130,274 135,276 140,273 145,277 150,274 155,276 160,275
      164,250 166,278 168,248 170,280 172,246 174,278 176,252
      182,298 195,292 210,278 218,272 222,275
      225,248 227,276 229,246 231,280 233,244 235,278 237,250 239,278
      245,300 258,292 275,280 285,272 290,275
      293,246 295,274 297,244 299,280 301,242 303,276 305,248 307,278
      314,302 328,294 345,282 358,272 363,275
      366,248 368,276 370,246 372,280 374,244 376,274 378,248
      385,300 398,293 415,282 428,272 433,275
      436,246 438,276 440,244 442,280 444,242 446,278 448,250
      455,302 468,294 485,282 498,274 505,275
      508,248 510,276 512,246 514,280 516,244 518,276 520,250 522,278
      528,300 542,292 558,282 572,272 578,275
      581,246 583,274 585,244 587,280 589,242 591,276 593,248 595,278
      602,302 618,294 635,282 650,272 658,275
      661,248 663,276 665,246 667,280 669,244 671,278 673,250 675,278
      680,275
      685,273 690,277 695,274 700,276 705,273 710,277 715,274 720,276 725,273 730,277 735,274 740,276 745,273 750,277 755,274 760,276 765,273 770,277 775,274 780,276 785,274 790,275"/>

    <!-- F4: y=315 -->
    <polyline fill="none" stroke="#00ff88" stroke-width="1.3" points="
      95,315 100,313 105,317 110,314 115,316 120,313 125,317 130,314 135,316 140,313 145,317 150,314 155,316 160,315
      164,288 166,318 168,286 170,320 172,284 174,318 176,290
      182,340 195,332 210,318 218,312 222,315
      225,288 227,316 229,286 231,320 233,282 235,318 237,290 239,318
      245,342 258,332 275,320 285,312 290,315
      293,284 295,314 297,282 299,320 301,280 303,316 305,286 307,318
      314,344 328,334 345,322 358,312 363,315
      366,288 368,316 370,286 372,320 374,284 376,314 378,288
      385,342 398,333 415,322 428,312 433,315
      436,284 438,316 440,282 442,320 444,280 446,318 448,290
      455,344 468,334 485,322 498,314 505,315
      508,288 510,316 512,286 514,320 516,284 518,316 520,290 522,318
      528,342 542,332 558,322 572,312 578,315
      581,284 583,314 585,282 587,320 589,280 591,316 593,288 595,318
      602,344 618,334 635,322 650,312 658,315
      661,288 663,316 665,286 667,320 669,284 671,318 673,290 675,318
      680,315
      685,313 690,317 695,314 700,316 705,313 710,317 715,314 720,316 725,313 730,317 735,314 740,316 745,313 750,317 755,314 760,316 765,313 770,317 775,314 780,316 785,314 790,315"/>

    <!-- C4: y=355 -->
    <polyline fill="none" stroke="#00ff88" stroke-width="1.3" points="
      95,355 100,353 105,357 110,354 115,356 120,353 125,357 130,354 135,356 140,353 145,357 150,354 155,356 160,355
      164,330 166,358 168,328 170,360 172,326 174,358 176,332
      182,378 195,370 210,358 218,352 222,355
      225,328 227,356 229,326 231,360 233,324 235,358 237,330 239,358
      245,380 258,370 275,360 285,352 290,355
      293,326 295,354 297,324 299,360 301,322 303,356 305,328 307,358
      314,382 328,372 345,362 358,352 363,355
      366,328 368,356 370,326 372,360 374,324 376,354 378,328
      385,380 398,371 415,362 428,352 433,355
      436,326 438,356 440,324 442,360 444,322 446,358 448,330
      455,382 468,372 485,362 498,354 505,355
      508,328 510,356 512,326 514,360 516,324 518,356 520,330 522,358
      528,380 542,370 558,362 572,352 578,355
      581,326 583,354 585,324 587,360 589,322 591,356 593,328 595,358
      602,382 618,372 635,362 650,352 658,355
      661,328 663,356 665,326 667,360 669,324 671,358 673,330 675,358
      680,355
      685,353 690,357 695,354 700,356 705,353 710,357 715,354 720,356 725,353 730,357 735,354 740,356 745,353 750,357 755,354 760,356 765,353 770,357 775,354 780,356 785,354 790,355"/>
  </g>

  <!-- Annotations -->
  <rect x="620" y="62" width="168" height="52" fill="#0d0d1a" stroke="#333355" stroke-width="1" rx="4"/>
  <text x="704" y="78" text-anchor="middle" fill="#ffbb33" font-family="Consolas, monospace" font-size="10" font-weight="bold">Polyspike-and-Wave</text>
  <text x="704" y="90" text-anchor="middle" fill="#667788" font-family="Consolas, monospace" font-size="9">Irregular 4-6 Hz</text>
  <text x="704" y="100" text-anchor="middle" fill="#667788" font-family="Consolas, monospace" font-size="9">Generalized | High Amp</text>
  <text x="704" y="110" text-anchor="middle" fill="#667788" font-family="Consolas, monospace" font-size="9">JME: Juvenile Myoclonic</text>

  <!-- Scale bars -->
  <line x1="720" y1="48" x2="780" y2="48" stroke="#ffbb33" stroke-width="2"/>
  <text x="750" y="43" text-anchor="middle" fill="#ffbb33" font-family="Consolas, monospace" font-size="9">1 sec</text>
  <line x1="88" y1="55" x2="88" y2="95" stroke="#ffbb33" stroke-width="2"/>
  <line x1="85" y1="55" x2="91" y2="55" stroke="#ffbb33" stroke-width="2"/>
  <line x1="85" y1="95" x2="91" y2="95" stroke="#ffbb33" stroke-width="2"/>
  <text x="78" y="78" text-anchor="end" fill="#ffbb33" font-family="Consolas, monospace" font-size="8">100uV</text>
</svg>