<svg xmlns="http://www.w3.org/2000/svg" viewBox="0 0 800 400" width="800" height="400">
  <defs>
    <filter id="glow">
      <feGaussianBlur stdDeviation="1" result="coloredBlur"/>
      <feMerge><feMergeNode in="coloredBlur"/><feMergeNode in="SourceGraphic"/></feMerge>
    </filter>
    <clipPath id="traceClip"><rect x="95" y="40" width="700" height="355"/></clipPath>
  </defs>
  <rect width="800" height="400" fill="#1a1a2e"/>
  <rect x="0" y="0" width="800" height="40" fill="#0d0d1a" stroke="#333355" stroke-width="1"/>
  <text x="400" y="27" text-anchor="middle" fill="#00ff88" font-family="Consolas, monospace" font-size="15" font-weight="bold">Slow Spike-and-Wave (1.5-2.5 Hz) - Lennox-Gastaut Syndrome</text>
  <!-- Channel labels -->
  <g font-family="Consolas, monospace" font-size="11" fill="#aabbcc">
    <text x="88" y="78" text-anchor="end">Fp1</text>
    <text x="88" y="118" text-anchor="end">Fp2</text>
    <text x="88" y="158" text-anchor="end">F3</text>
    <text x="88" y="198" text-anchor="end">F4</text>
    <text x="88" y="238" text-anchor="end">C3</text>
    <text x="88" y="278" text-anchor="end">C4</text>
    <text x="88" y="318" text-anchor="end">O1</text>
    <text x="88" y="358" text-anchor="end">O2</text>
  </g>
  <!-- Baselines -->
  <g stroke="#222244" stroke-width="0.5">
    <line x1="95" y1="75" x2="790" y2="75"/>
    <line x1="95" y1="115" x2="790" y2="115"/>
    <line x1="95" y1="155" x2="790" y2="155"/>
    <line x1="95" y1="195" x2="790" y2="195"/>
    <line x1="95" y1="235" x2="790" y2="235"/>
    <line x1="95" y1="275" x2="790" y2="275"/>
    <line x1="95" y1="315" x2="790" y2="315"/>
    <line x1="95" y1="355" x2="790" y2="355"/>
  </g>
  <!-- Frequency annotation -->
  <line x1="145" y1="48" x2="355" y2="48" stroke="#ffbb33" stroke-width="1"/>
  <line x1="145" y1="45" x2="145" y2="51" stroke="#ffbb33" stroke-width="1"/>
  <line x1="355" y1="45" x2="355" y2="51" stroke="#ffbb33" stroke-width="1"/>
  <text x="250" y="57" text-anchor="middle" fill="#ffbb33" font-family="Consolas, monospace" font-size="9">~500ms (2 Hz) - Slow spike-and-wave</text>
  <g clip-path="url(#traceClip)" filter="url(#glow)">
    <!-- Slow spike-and-wave: 2 Hz = 500ms period. Each cycle: spike (sharp, narrow) + broad slow wave -->
    <!-- Abnormal slow disorganized background between discharges -->
    <!-- Fp1: FRONTAL MAXIMUM - highest amplitude. Abnormal background then SSW -->
    <polyline fill="none" stroke="#00ff88" stroke-width="1.3" points="
      95,75 100,68 105,82 108,65 112,85 115,70 118,80 122,72 125,83 128,68 132,80 135,72
      140,78 143,48 146,98 155,90 170,80 180,68 185,78
      188,48 191,98 200,90 215,80 225,68 230,78
      233,48 236,98 245,90 260,80 270,68 275,78
      278,48 281,98 290,90 305,80 315,68 320,78
      323,48 326,98 335,90 350,80 360,68 365,78
      368,48 371,98 380,90 395,80 405,68 410,78
      413,48 416,98 425,90 440,80 450,68 455,78
      458,48 461,98 470,90 485,80 495,68 500,78
      503,48 506,98 515,90 530,80 540,68 545,78
      548,48 551,98 560,90 575,80 585,68 590,78
      593,48 596,98 605,90 620,80 630,68 635,78
      638,48 641,98 650,90 665,80 675,68 680,78
      683,48 686,98 695,90 710,80 720,68 725,78
      728,72 732,80 735,68 740,85 743,70 748,82 750,72 755,80 758,68 763,82 768,72 773,80 778,68 783,82 788,72 790,75"/>
    <!-- Fp2: Same high amplitude -->
    <polyline fill="none" stroke="#00ff88" stroke-width="1.3" points="
      95,115 100,108 105,122 108,105 112,125 115,110 118,120 122,112 125,123 128,108 132,120 135,112
      140,118 143,88 146,138 155,130 170,120 180,108 185,118
      188,88 191,138 200,130 215,120 225,108 230,118
      233,88 236,138 245,130 260,120 270,108 275,118
      278,88 281,138 290,130 305,120 315,108 320,118
      323,88 326,138 335,130 350,120 360,108 365,118
      368,88 371,138 380,130 395,120 405,108 410,118
      413,88 416,138 425,130 440,120 450,108 455,118
      458,88 461,138 470,130 485,120 495,108 500,118
      503,88 506,138 515,130 530,120 540,108 545,118
      548,88 551,138 560,130 575,120 585,108 590,118
      593,88 596,138 605,130 620,120 630,108 635,118
      638,88 641,138 650,130 665,120 675,108 680,118
      683,88 686,138 695,130 710,120 720,108 725,118
      728,112 732,120 735,108 740,125 743,110 748,122 750,112 755,120 758,108 763,122 768,112 773,120 778,108 783,122 788,112 790,115"/>
    <!-- F3: High amplitude (frontal max) -->
    <polyline fill="none" stroke="#00ff88" stroke-width="1.3" points="
      95,155 100,148 105,162 108,145 112,165 115,150 118,160 122,152 125,163 128,148 132,160 135,152
      140,158 143,132 146,175 155,168 170,160 180,148 185,158
      188,132 191,175 200,168 215,160 225,148 230,158
      233,132 236,175 245,168 260,160 270,148 275,158
      278,132 281,175 290,168 305,160 315,148 320,158
      323,132 326,175 335,168 350,160 360,148 365,158
      368,132 371,175 380,168 395,160 405,148 410,158
      413,132 416,175 425,168 440,160 450,148 455,158
      458,132 461,175 470,168 485,160 495,148 500,158
      503,132 506,175 515,168 530,160 540,148 545,158
      548,132 551,175 560,168 575,160 585,148 590,158
      593,132 596,175 605,168 620,160 630,148 635,158
      638,132 641,175 650,168 665,160 675,148 680,158
      683,132 686,175 695,168 710,160 720,148 725,158
      728,152 732,160 735,148 740,165 743,150 748,162 750,152 755,160 758,148 763,162 768,152 773,160 778,148 783,162 788,152 790,155"/>
    <!-- F4 -->
    <polyline fill="none" stroke="#00ff88" stroke-width="1.3" points="
      95,195 100,188 105,202 108,185 112,205 115,190 118,200 122,192 125,203 128,188 132,200 135,192
      140,198 143,172 146,215 155,208 170,200 180,188 185,198
      188,172 191,215 200,208 215,200 225,188 230,198
      233,172 236,215 245,208 260,200 270,188 275,198
      278,172 281,215 290,208 305,200 315,188 320,198
      323,172 326,215 335,208 350,200 360,188 365,198
      368,172 371,215 380,208 395,200 405,188 410,198
      413,172 416,215 425,208 440,200 450,188 455,198
      458,172 461,215 470,208 485,200 495,188 500,198
      503,172 506,215 515,208 530,200 540,188 545,198
      548,172 551,215 560,208 575,200 585,188 590,198
      593,172 596,215 605,208 620,200 630,188 635,198
      638,172 641,215 650,208 665,200 675,188 680,198
      683,172 686,215 695,208 710,200 720,188 725,198
      728,192 732,200 735,188 740,205 743,190 748,202 750,192 755,200 758,188 763,202 768,192 773,200 778,188 783,202 788,192 790,195"/>
    <!-- C3: Moderate amplitude -->
    <polyline fill="none" stroke="#00ff88" stroke-width="1.3" points="
      95,235 100,230 105,240 108,228 112,242 115,232 118,240 122,233 125,241 128,230 132,240 135,232
      140,237 143,218 146,252 155,248 170,240 180,230 185,237
      188,218 191,252 200,248 215,240 225,230 230,237
      233,218 236,252 245,248 260,240 270,230 275,237
      278,218 281,252 290,248 305,240 315,230 320,237
      323,218 326,252 335,248 350,240 360,230 365,237
      368,218 371,252 380,248 395,240 405,230 410,237
      413,218 416,252 425,248 440,240 450,230 455,237
      458,218 461,252 470,248 485,240 495,230 500,237
      503,218 506,252 515,248 530,240 540,230 545,237
      548,218 551,252 560,248 575,240 585,230 590,237
      593,218 596,252 605,248 620,240 630,230 635,237
      638,218 641,252 650,248 665,240 675,230 680,237
      683,218 686,252 695,248 710,240 720,230 725,237
      728,232 732,240 735,230 740,242 743,232 748,240 750,232 755,240 758,230 763,242 768,232 773,240 778,230 783,242 788,232 790,235"/>
    <!-- C4 -->
    <polyline fill="none" stroke="#00ff88" stroke-width="1.3" points="
      95,275 100,270 105,280 108,268 112,282 115,272 118,280 122,273 125,281 128,270 132,280 135,272
      140,277 143,258 146,292 155,288 170,280 180,270 185,277
      188,258 191,292 200,288 215,280 225,270 230,277
      233,258 236,292 245,288 260,280 270,270 275,277
      278,258 281,292 290,288 305,280 315,270 320,277
      323,258 326,292 335,288 350,280 360,270 365,277
      368,258 371,292 380,288 395,280 405,270 410,277
      413,258 416,292 425,288 440,280 450,270 455,277
      458,258 461,292 470,288 485,280 495,270 500,277
      503,258 506,292 515,288 530,280 540,270 545,277
      548,258 551,292 560,288 575,280 585,270 590,277
      593,258 596,292 605,288 620,280 630,270 635,277
      638,258 641,292 650,288 665,280 675,270 680,277
      683,258 686,292 695,288 710,280 720,270 725,277
      728,272 732,280 735,270 740,282 743,272 748,280 750,272 755,280 758,270 763,282 768,272 773,280 778,270 783,282 788,272 790,275"/>
    <!-- O1: Lower amplitude -->
    <polyline fill="none" stroke="#00ff88" stroke-width="1.3" points="
      95,315 100,312 105,318 108,310 112,320 115,313 118,318 122,314 125,319 128,312 132,318 135,314
      140,316 143,302 146,328 155,325 170,318 180,312 185,316
      188,302 191,328 200,325 215,318 225,312 230,316
      233,302 236,328 245,325 260,318 270,312 275,316
      278,302 281,328 290,325 305,318 315,312 320,316
      323,302 326,328 335,325 350,318 360,312 365,316
      368,302 371,328 380,325 395,318 405,312 410,316
      413,302 416,328 425,325 440,318 450,312 455,316
      458,302 461,328 470,325 485,318 495,312 500,316
      503,302 506,328 515,325 530,318 540,312 545,316
      548,302 551,328 560,325 575,318 585,312 590,316
      593,302 596,328 605,325 620,318 630,312 635,316
      638,302 641,328 650,325 665,318 675,312 680,316
      683,302 686,328 695,325 710,318 720,312 725,316
      728,314 732,318 735,312 740,320 743,313 748,318 750,314 755,318 758,312 763,320 768,314 773,318 778,312 783,320 788,314 790,315"/>
    <!-- O2 -->
    <polyline fill="none" stroke="#00ff88" stroke-width="1.3" points="
      95,355 100,352 105,358 108,350 112,360 115,353 118,358 122,354 125,359 128,352 132,358 135,354
      140,356 143,342 146,368 155,365 170,358 180,352 185,356
      188,342 191,368 200,365 215,358 225,352 230,356
      233,342 236,368 245,365 260,358 270,352 275,356
      278,342 281,368 290,365 305,358 315,352 320,356
      323,342 326,368 335,365 350,358 360,352 365,356
      368,342 371,368 380,365 395,358 405,352 410,356
      413,342 416,368 425,365 440,358 450,352 455,356
      458,342 461,368 470,365 485,358 495,352 500,356
      503,342 506,368 515,365 530,358 540,352 545,356
      548,342 551,368 560,365 575,358 585,352 590,356
      593,342 596,368 605,365 620,358 630,352 635,356
      638,342 641,368 650,365 665,358 675,352 680,356
      683,342 686,368 695,365 710,358 720,352 725,356
      728,354 732,358 735,352 740,360 743,353 748,358 750,354 755,358 758,352 763,360 768,354 773,358 778,352 783,360 788,354 790,355"/>
  </g>
  <!-- Annotations -->
  <rect x="620" y="60" width="165" height="50" fill="#0d0d1a" stroke="#ff4444" stroke-width="1" rx="4"/>
  <text x="702" y="78" text-anchor="middle" fill="#ff6666" font-family="Consolas, monospace" font-size="10" font-weight="bold">Frontal Maximum</text>
  <text x="702" y="92" text-anchor="middle" fill="#ff6666" font-family="Consolas, monospace" font-size="9">Abnormal slow background</text>
  <text x="702" y="105" text-anchor="middle" fill="#ffbb33" font-family="Consolas, monospace" font-size="9">1.5-2.5 Hz SSW</text>
  <!-- Scale bars -->
  <line x1="720" y1="396" x2="780" y2="396" stroke="#ffbb33" stroke-width="2"/>
  <text x="750" y="393" text-anchor="middle" fill="#ffbb33" font-family="Consolas, monospace" font-size="9">1 sec</text>
  <line x1="88" y1="48" x2="88" y2="88" stroke="#ffbb33" stroke-width="2"/>
  <line x1="85" y1="48" x2="91" y2="48" stroke="#ffbb33" stroke-width="2"/>
  <line x1="85" y1="88" x2="91" y2="88" stroke="#ffbb33" stroke-width="2"/>
  <text x="78" y="72" text-anchor="end" fill="#ffbb33" font-family="Consolas, monospace" font-size="8">100uV</text>
</svg>