<svg xmlns="http://www.w3.org/2000/svg" viewBox="0 0 800 400" width="800" height="400">
  <defs>
    <filter id="glow">
      <feGaussianBlur stdDeviation="1" result="coloredBlur"/>
      <feMerge><feMergeNode in="coloredBlur"/><feMergeNode in="SourceGraphic"/></feMerge>
    </filter>
    <clipPath id="traceClip"><rect x="95" y="40" width="700" height="350"/></clipPath>
  </defs>
  <rect width="800" height="400" fill="#1a1a2e"/>
  <rect x="0" y="0" width="800" height="40" fill="#0d0d1a" stroke="#333355" stroke-width="1"/>
  <text x="400" y="27" text-anchor="middle" fill="#00ff88" font-family="Consolas, monospace" font-size="15" font-weight="bold">3 Hz Generalized Spike-and-Wave (Childhood Absence Epilepsy)</text>
  <!-- Channel labels -->
  <g font-family="Consolas, monospace" font-size="11" fill="#aabbcc">
    <text x="88" y="78" text-anchor="end">Fp1</text>
    <text x="88" y="118" text-anchor="end">Fp2</text>
    <text x="88" y="158" text-anchor="end">F3</text>
    <text x="88" y="198" text-anchor="end">F4</text>
    <text x="88" y="238" text-anchor="end">C3</text>
    <text x="88" y="278" text-anchor="end">C4</text>
    <text x="88" y="318" text-anchor="end">O1</text>
    <text x="88" y="358" text-anchor="end">O2</text>
  </g>
  <!-- Baselines -->
  <g stroke="#222244" stroke-width="0.5">
    <line x1="95" y1="75" x2="790" y2="75"/>
    <line x1="95" y1="115" x2="790" y2="115"/>
    <line x1="95" y1="155" x2="790" y2="155"/>
    <line x1="95" y1="195" x2="790" y2="195"/>
    <line x1="95" y1="235" x2="790" y2="235"/>
    <line x1="95" y1="275" x2="790" y2="275"/>
    <line x1="95" y1="315" x2="790" y2="315"/>
    <line x1="95" y1="355" x2="790" y2="355"/>
  </g>
  <!-- Onset/offset markers -->
  <line x1="200" y1="45" x2="200" y2="390" stroke="#ff4444" stroke-width="1" stroke-dasharray="4,3"/>
  <line x1="680" y1="45" x2="680" y2="390" stroke="#ff4444" stroke-width="1" stroke-dasharray="4,3"/>
  <text x="198" y="395" text-anchor="middle" fill="#ff6666" font-family="Consolas, monospace" font-size="9">Onset</text>
  <text x="682" y="395" fill="#ff6666" font-family="Consolas, monospace" font-size="9" text-anchor="middle">Offset</text>
  <!-- 3Hz marker -->
  <text x="440" y="395" text-anchor="middle" fill="#ffbb33" font-family="Consolas, monospace" font-size="10" font-weight="bold">3 Hz Spike-and-Wave | Duration ~10 sec</text>
  <!-- 3Hz bracket -->
  <line x1="200" y1="48" x2="360" y2="48" stroke="#ffbb33" stroke-width="1"/>
  <line x1="200" y1="45" x2="200" y2="51" stroke="#ffbb33" stroke-width="1"/>
  <line x1="360" y1="45" x2="360" y2="51" stroke="#ffbb33" stroke-width="1"/>
  <text x="280" y="57" text-anchor="middle" fill="#ffbb33" font-family="Consolas, monospace" font-size="9">~333ms (3 Hz)</text>
  <!-- Spike-and-wave pattern generator: 3Hz = 333ms period, ~53px per cycle at our scale -->
  <!-- Each cycle: sharp spike up (narrow) then broad slow wave down -->
  <!-- Fp1 - HIGHEST amplitude (bifrontal maximum) -->
  <g clip-path="url(#traceClip)" filter="url(#glow)">
    <!-- Fp1: Normal before onset, spike-wave during, normal after -->
    <polyline fill="none" stroke="#00ff88" stroke-width="1.3" points="
      95,75 100,73 105,77 110,74 115,76 120,73 125,77 130,74 135,76 140,73 145,77 150,74 155,76 160,73 165,77 170,74 175,76 180,73 185,77 190,74 195,76 200,75
      203,50 206,95 215,85 230,65 240,75
      243,50 246,95 255,85 270,65 280,75
      283,50 286,95 295,85 310,65 320,75
      323,50 326,95 335,85 350,65 360,75
      363,50 366,95 375,85 390,65 400,75
      403,50 406,95 415,85 430,65 440,75
      443,50 446,95 455,85 470,65 480,75
      483,50 486,95 495,85 510,65 520,75
      523,50 526,95 535,85 550,65 560,75
      563,50 566,95 575,85 590,65 600,75
      603,50 606,95 615,85 630,65 640,75
      643,50 646,95 655,85 670,65 680,75
      685,73 690,77 695,74 700,76 705,73 710,77 715,74 720,76 725,73 730,77 735,74 740,76 745,73 750,77 755,74 760,76 765,73 770,77 775,74 780,76 785,75 790,75"/>
    <!-- Fp2: Same as Fp1 (bifrontal max) -->
    <polyline fill="none" stroke="#00ff88" stroke-width="1.3" points="
      95,115 100,113 105,117 110,114 115,116 120,113 125,117 130,114 135,116 140,113 145,117 150,114 155,116 160,113 165,117 170,114 175,116 180,113 185,117 190,114 195,116 200,115
      203,90 206,135 215,125 230,105 240,115
      243,90 246,135 255,125 270,105 280,115
      283,90 286,135 295,125 310,105 320,115
      323,90 326,135 335,125 350,105 360,115
      363,90 366,135 375,125 390,105 400,115
      403,90 406,135 415,125 430,105 440,115
      443,90 446,135 455,125 470,105 480,115
      483,90 486,135 495,125 510,105 520,115
      523,90 526,135 535,125 550,105 560,115
      563,90 566,135 575,125 590,105 600,115
      603,90 606,135 615,125 630,105 640,115
      643,90 646,135 655,125 670,105 680,115
      685,113 690,117 695,114 700,116 705,113 710,117 715,114 720,116 725,113 730,117 735,114 740,116 745,113 750,117 755,114 760,116 765,113 770,117 775,114 780,116 785,115 790,115"/>
    <!-- F3: High amplitude (frontal max) -->
    <polyline fill="none" stroke="#00ff88" stroke-width="1.3" points="
      95,155 100,153 105,157 110,154 115,156 120,153 125,157 130,154 135,156 140,153 145,157 150,154 155,156 160,153 165,157 170,154 175,156 180,153 185,157 190,154 195,156 200,155
      203,133 206,172 215,165 230,148 240,155
      243,133 246,172 255,165 270,148 280,155
      283,133 286,172 295,165 310,148 320,155
      323,133 326,172 335,165 350,148 360,155
      363,133 366,172 375,165 390,148 400,155
      403,133 406,172 415,165 430,148 440,155
      443,133 446,172 455,165 470,148 480,155
      483,133 486,172 495,165 510,148 520,155
      523,133 526,172 535,165 550,148 560,155
      563,133 566,172 575,165 590,148 600,155
      603,133 606,172 615,165 630,148 640,155
      643,133 646,172 655,165 670,148 680,155
      685,153 690,157 695,154 700,156 705,153 710,157 715,154 720,156 725,153 730,157 735,154 740,156 745,153 750,157 755,154 760,156 765,153 770,157 775,154 780,156 785,155 790,155"/>
    <!-- F4: High amplitude -->
    <polyline fill="none" stroke="#00ff88" stroke-width="1.3" points="
      95,195 100,193 105,197 110,194 115,196 120,193 125,197 130,194 135,196 140,193 145,197 150,194 155,196 160,193 165,197 170,194 175,196 180,193 185,197 190,194 195,196 200,195
      203,173 206,212 215,205 230,188 240,195
      243,173 246,212 255,205 270,188 280,195
      283,173 286,212 295,205 310,188 320,195
      323,173 326,212 335,205 350,188 360,195
      363,173 366,212 375,205 390,188 400,195
      403,173 406,212 415,205 430,188 440,195
      443,173 446,212 455,205 470,188 480,195
      483,173 486,212 495,205 510,188 520,195
      523,173 526,212 535,205 550,188 560,195
      563,173 566,212 575,205 590,188 600,195
      603,173 606,212 615,205 630,188 640,195
      643,173 646,212 655,205 670,188 680,195
      685,193 690,197 695,194 700,196 705,193 710,197 715,194 720,196 725,193 730,197 735,194 740,196 745,193 750,197 755,194 760,196 765,193 770,197 775,194 780,196 785,195 790,195"/>
    <!-- C3: Moderate amplitude -->
    <polyline fill="none" stroke="#00ff88" stroke-width="1.3" points="
      95,235 100,233 105,237 110,234 115,236 120,233 125,237 130,234 135,236 140,233 145,237 150,234 155,236 160,233 165,237 170,234 175,236 180,233 185,237 190,234 195,236 200,235
      203,217 206,250 215,245 230,228 240,235
      243,217 246,250 255,245 270,228 280,235
      283,217 286,250 295,245 310,228 320,235
      323,217 326,250 335,245 350,228 360,235
      363,217 366,250 375,245 390,228 400,235
      403,217 406,250 415,245 430,228 440,235
      443,217 446,250 455,245 470,228 480,235
      483,217 486,250 495,245 510,228 520,235
      523,217 526,250 535,245 550,228 560,235
      563,217 566,250 575,245 590,228 600,235
      603,217 606,250 615,245 630,228 640,235
      643,217 646,250 655,245 670,228 680,235
      685,233 690,237 695,234 700,236 705,233 710,237 715,234 720,236 725,233 730,237 735,234 740,236 745,233 750,237 755,234 760,236 765,233 770,237 775,234 780,236 785,235 790,235"/>
    <!-- C4 -->
    <polyline fill="none" stroke="#00ff88" stroke-width="1.3" points="
      95,275 100,273 105,277 110,274 115,276 120,273 125,277 130,274 135,276 140,273 145,277 150,274 155,276 160,273 165,277 170,274 175,276 180,273 185,277 190,274 195,276 200,275
      203,257 206,290 215,285 230,268 240,275
      243,257 246,290 255,285 270,268 280,275
      283,257 286,290 295,285 310,268 320,275
      323,257 326,290 335,285 350,268 360,275
      363,257 366,290 375,285 390,268 400,275
      403,257 406,290 415,285 430,268 440,275
      443,257 446,290 455,285 470,268 480,275
      483,257 486,290 495,285 510,268 520,275
      523,257 526,290 535,285 550,268 560,275
      563,257 566,290 575,285 590,268 600,275
      603,257 606,290 615,285 630,268 640,275
      643,257 646,290 655,285 670,268 680,275
      685,273 690,277 695,274 700,276 705,273 710,277 715,274 720,276 725,273 730,277 735,274 740,276 745,273 750,277 755,274 760,276 765,273 770,277 775,274 780,276 785,275 790,275"/>
    <!-- O1: Lower amplitude -->
    <polyline fill="none" stroke="#00ff88" stroke-width="1.3" points="
      95,315 100,313 105,317 110,314 115,316 120,313 125,317 130,314 135,316 140,313 145,317 150,314 155,316 160,313 165,317 170,314 175,316 180,313 185,317 190,314 195,316 200,315
      203,302 206,325 215,322 230,310 240,315
      243,302 246,325 255,322 270,310 280,315
      283,302 286,325 295,322 310,310 320,315
      323,302 326,325 335,322 350,310 360,315
      363,302 366,325 375,322 390,310 400,315
      403,302 406,325 415,322 430,310 440,315
      443,302 446,325 455,322 470,310 480,315
      483,302 486,325 495,322 510,310 520,315
      523,302 526,325 535,322 550,310 560,315
      563,302 566,325 575,322 590,310 600,315
      603,302 606,325 615,322 630,310 640,315
      643,302 646,325 655,322 670,310 680,315
      685,313 690,317 695,314 700,316 705,313 710,317 715,314 720,316 725,313 730,317 735,314 740,316 745,313 750,317 755,314 760,316 765,313 770,317 775,314 780,316 785,315 790,315"/>
    <!-- O2 -->
    <polyline fill="none" stroke="#00ff88" stroke-width="1.3" points="
      95,355 100,353 105,357 110,354 115,356 120,353 125,357 130,354 135,356 140,353 145,357 150,354 155,356 160,353 165,357 170,354 175,356 180,353 185,357 190,354 195,356 200,355
      203,342 206,365 215,362 230,350 240,355
      243,342 246,365 255,362 270,350 280,355
      283,342 286,365 295,362 310,350 320,355
      323,342 326,365 335,362 350,350 360,355
      363,342 366,365 375,362 390,350 400,355
      403,342 406,365 415,362 430,350 440,355
      443,342 446,365 455,362 470,350 480,355
      483,342 486,365 495,362 510,350 520,355
      523,342 526,365 535,362 550,350 560,355
      563,342 566,365 575,362 590,350 600,355
      603,342 606,365 615,362 630,350 640,355
      643,342 646,365 655,362 670,350 680,355
      685,353 690,357 695,354 700,356 705,353 710,357 715,354 720,356 725,353 730,357 735,354 740,356 745,353 750,357 755,354 760,356 765,353 770,357 775,354 780,356 785,355 790,355"/>
  </g>
  <!-- Annotation: Bifrontal maximum -->
  <text x="790" y="78" text-anchor="end" fill="#ff6666" font-family="Consolas, monospace" font-size="9">Bifrontal</text>
  <text x="790" y="88" text-anchor="end" fill="#ff6666" font-family="Consolas, monospace" font-size="9">Maximum</text>
  <!-- Scale bars -->
  <line x1="720" y1="48" x2="780" y2="48" stroke="#ffbb33" stroke-width="2"/>
  <text x="750" y="43" text-anchor="middle" fill="#ffbb33" font-family="Consolas, monospace" font-size="9">1 sec</text>
  <!-- Voltage scale -->
  <line x1="88" y1="55" x2="88" y2="95" stroke="#ffbb33" stroke-width="2"/>
  <line x1="85" y1="55" x2="91" y2="55" stroke="#ffbb33" stroke-width="2"/>
  <line x1="85" y1="95" x2="91" y2="95" stroke="#ffbb33" stroke-width="2"/>
  <text x="78" y="78" text-anchor="end" fill="#ffbb33" font-family="Consolas, monospace" font-size="8">100uV</text>
</svg>