<svg xmlns="http://www.w3.org/2000/svg" viewBox="0 0 800 450" width="800" height="450">
  <defs>
    <filter id="shadowNGS" x="-2%" y="-2%" width="104%" height="104%">
      <feDropShadow dx="0" dy="1" stdDeviation="2" flood-opacity="0.08"/>
    </filter>
    <linearGradient id="bgGrad4" x1="0" y1="0" x2="0" y2="1">
      <stop offset="0%" stop-color="#f8fafc"/>
      <stop offset="100%" stop-color="#f1f5f9"/>
    </linearGradient>
    <!-- Genome bar pattern: dark exons, light introns -->
    <pattern id="genomePattern" x="0" y="0" width="40" height="16" patternUnits="userSpaceOnUse">
      <rect width="40" height="16" fill="#e2e8f0"/>
      <rect x="2" y="3" width="5" height="10" rx="1" fill="#475569"/>
      <rect x="18" y="3" width="3" height="10" rx="1" fill="#475569"/>
      <rect x="32" y="3" width="4" height="10" rx="1" fill="#475569"/>
    </pattern>
  </defs>

  <!-- Background -->
  <rect width="800" height="400" fill="url(#bgGrad4)" rx="8"/>
  <rect x="0" y="0" width="800" height="4" fill="#ea580c" rx="2"/>

  <!-- Title -->
  <text x="400" y="32" text-anchor="middle" font-family="Arial, Helvetica, sans-serif" font-size="18" font-weight="bold" fill="#1e293b">Next-Generation Sequencing: Coverage Comparison</text>

  <!-- Genome structure legend -->
  <rect x="155" y="44" width="490" height="24" rx="4" fill="#f8fafc" stroke="#e2e8f0" stroke-width="1"/>
  <rect x="175" y="50" width="18" height="12" rx="2" fill="#475569"/>
  <text x="198" y="61" font-family="Arial, Helvetica, sans-serif" font-size="10" fill="#475569">= Exons (~1.5% of genome)</text>
  <rect x="340" y="50" width="18" height="12" rx="2" fill="#e2e8f0"/>
  <text x="363" y="61" font-family="Arial, Helvetica, sans-serif" font-size="10" fill="#94a3b8">= Introns/Intergenic (~98.5%)</text>
  <rect x="530" y="50" width="18" height="12" rx="2" fill="#a78bfa" opacity="0.5"/>
  <text x="553" y="61" font-family="Arial, Helvetica, sans-serif" font-size="10" fill="#7c3aed">= Regulatory regions</text>

  <!-- ===== ROW 1: Gene Panel (amber) ===== -->
  <text x="30" y="100" font-family="Arial, Helvetica, sans-serif" font-size="14" font-weight="bold" fill="#d97706">Gene Panel</text>
  <text x="30" y="113" font-family="Arial, Helvetica, sans-serif" font-size="9" fill="#92400e">50-500 selected genes</text>

  <!-- Genome bar background -->
  <rect x="155" y="86" width="490" height="32" rx="4" fill="#f1f5f9" stroke="#e2e8f0" stroke-width="1"/>
  <!-- Scattered exon marks (dark) representing full genome -->
  <rect x="162" y="93" width="5" height="18" rx="1" fill="#e2e8f0"/>
  <rect x="178" y="93" width="3" height="18" rx="1" fill="#e2e8f0"/>
  <rect x="195" y="93" width="4" height="18" rx="1" fill="#e2e8f0"/>
  <rect x="215" y="93" width="5" height="18" rx="1" fill="#e2e8f0"/>
  <rect x="238" y="93" width="3" height="18" rx="1" fill="#e2e8f0"/>
  <rect x="255" y="93" width="5" height="18" rx="1" fill="#e2e8f0"/>
  <rect x="278" y="93" width="4" height="18" rx="1" fill="#e2e8f0"/>
  <rect x="298" y="93" width="3" height="18" rx="1" fill="#e2e8f0"/>
  <rect x="315" y="93" width="5" height="18" rx="1" fill="#e2e8f0"/>
  <rect x="335" y="93" width="4" height="18" rx="1" fill="#e2e8f0"/>
  <rect x="358" y="93" width="3" height="18" rx="1" fill="#e2e8f0"/>
  <rect x="375" y="93" width="5" height="18" rx="1" fill="#e2e8f0"/>
  <rect x="395" y="93" width="4" height="18" rx="1" fill="#e2e8f0"/>
  <rect x="415" y="93" width="3" height="18" rx="1" fill="#e2e8f0"/>
  <rect x="435" y="93" width="5" height="18" rx="1" fill="#e2e8f0"/>
  <rect x="458" y="93" width="4" height="18" rx="1" fill="#e2e8f0"/>
  <rect x="478" y="93" width="3" height="18" rx="1" fill="#e2e8f0"/>
  <rect x="498" y="93" width="5" height="18" rx="1" fill="#e2e8f0"/>
  <rect x="518" y="93" width="4" height="18" rx="1" fill="#e2e8f0"/>
  <rect x="538" y="93" width="3" height="18" rx="1" fill="#e2e8f0"/>
  <rect x="558" y="93" width="5" height="18" rx="1" fill="#e2e8f0"/>
  <rect x="578" y="93" width="4" height="18" rx="1" fill="#e2e8f0"/>
  <rect x="598" y="93" width="3" height="18" rx="1" fill="#e2e8f0"/>
  <rect x="618" y="93" width="5" height="18" rx="1" fill="#e2e8f0"/>
  <rect x="633" y="93" width="4" height="18" rx="1" fill="#e2e8f0"/>

  <!-- Only some exons highlighted in amber = targeted panel -->
  <rect x="195" y="93" width="4" height="18" rx="1" fill="#d97706"/>
  <rect x="238" y="93" width="3" height="18" rx="1" fill="#d97706"/>
  <rect x="298" y="93" width="3" height="18" rx="1" fill="#d97706"/>
  <rect x="375" y="93" width="5" height="18" rx="1" fill="#d97706"/>
  <rect x="435" y="93" width="5" height="18" rx="1" fill="#d97706"/>
  <rect x="518" y="93" width="4" height="18" rx="1" fill="#d97706"/>
  <rect x="598" y="93" width="3" height="18" rx="1" fill="#d97706"/>
  <rect x="633" y="93" width="4" height="18" rx="1" fill="#d97706"/>

  <!-- Coverage indicator -->
  <text x="655" y="107" font-family="Arial, Helvetica, sans-serif" font-size="9" fill="#d97706" font-weight="bold">~0.1-1%</text>

  <!-- ===== ROW 2: WES (blue) ===== -->
  <text x="30" y="154" font-family="Arial, Helvetica, sans-serif" font-size="14" font-weight="bold" fill="#3b82f6">WES</text>
  <text x="30" y="167" font-family="Arial, Helvetica, sans-serif" font-size="9" fill="#1d4ed8">All ~20,000 gene exons</text>

  <!-- Genome bar background -->
  <rect x="155" y="140" width="490" height="32" rx="4" fill="#f1f5f9" stroke="#e2e8f0" stroke-width="1"/>
  <!-- All exon marks highlighted in blue, introns remain light -->
  <rect x="162" y="147" width="5" height="18" rx="1" fill="#3b82f6"/>
  <rect x="178" y="147" width="3" height="18" rx="1" fill="#3b82f6"/>
  <rect x="195" y="147" width="4" height="18" rx="1" fill="#3b82f6"/>
  <rect x="215" y="147" width="5" height="18" rx="1" fill="#3b82f6"/>
  <rect x="238" y="147" width="3" height="18" rx="1" fill="#3b82f6"/>
  <rect x="255" y="147" width="5" height="18" rx="1" fill="#3b82f6"/>
  <rect x="278" y="147" width="4" height="18" rx="1" fill="#3b82f6"/>
  <rect x="298" y="147" width="3" height="18" rx="1" fill="#3b82f6"/>
  <rect x="315" y="147" width="5" height="18" rx="1" fill="#3b82f6"/>
  <rect x="335" y="147" width="4" height="18" rx="1" fill="#3b82f6"/>
  <rect x="358" y="147" width="3" height="18" rx="1" fill="#3b82f6"/>
  <rect x="375" y="147" width="5" height="18" rx="1" fill="#3b82f6"/>
  <rect x="395" y="147" width="4" height="18" rx="1" fill="#3b82f6"/>
  <rect x="415" y="147" width="3" height="18" rx="1" fill="#3b82f6"/>
  <rect x="435" y="147" width="5" height="18" rx="1" fill="#3b82f6"/>
  <rect x="458" y="147" width="4" height="18" rx="1" fill="#3b82f6"/>
  <rect x="478" y="147" width="3" height="18" rx="1" fill="#3b82f6"/>
  <rect x="498" y="147" width="5" height="18" rx="1" fill="#3b82f6"/>
  <rect x="518" y="147" width="4" height="18" rx="1" fill="#3b82f6"/>
  <rect x="538" y="147" width="3" height="18" rx="1" fill="#3b82f6"/>
  <rect x="558" y="147" width="5" height="18" rx="1" fill="#3b82f6"/>
  <rect x="578" y="147" width="4" height="18" rx="1" fill="#3b82f6"/>
  <rect x="598" y="147" width="3" height="18" rx="1" fill="#3b82f6"/>
  <rect x="618" y="147" width="5" height="18" rx="1" fill="#3b82f6"/>
  <rect x="633" y="147" width="4" height="18" rx="1" fill="#3b82f6"/>

  <!-- Regulatory regions partially highlighted -->
  <rect x="188" y="147" width="3" height="18" rx="1" fill="#93c5fd" opacity="0.4"/>
  <rect x="310" y="147" width="2" height="18" rx="1" fill="#93c5fd" opacity="0.4"/>

  <!-- Coverage indicator -->
  <text x="655" y="161" font-family="Arial, Helvetica, sans-serif" font-size="9" fill="#3b82f6" font-weight="bold">~1.5-2%</text>

  <!-- ===== ROW 3: WGS (red) ===== -->
  <text x="30" y="208" font-family="Arial, Helvetica, sans-serif" font-size="14" font-weight="bold" fill="#dc2626">WGS</text>
  <text x="30" y="221" font-family="Arial, Helvetica, sans-serif" font-size="9" fill="#b91c1c">Entire genome</text>

  <!-- Genome bar fully highlighted in red -->
  <rect x="155" y="194" width="490" height="32" rx="4" fill="#dc2626" filter="url(#shadowNGS)"/>
  <!-- Exon marks slightly darker -->
  <rect x="162" y="201" width="5" height="18" rx="1" fill="#991b1b"/>
  <rect x="178" y="201" width="3" height="18" rx="1" fill="#991b1b"/>
  <rect x="195" y="201" width="4" height="18" rx="1" fill="#991b1b"/>
  <rect x="215" y="201" width="5" height="18" rx="1" fill="#991b1b"/>
  <rect x="238" y="201" width="3" height="18" rx="1" fill="#991b1b"/>
  <rect x="255" y="201" width="5" height="18" rx="1" fill="#991b1b"/>
  <rect x="278" y="201" width="4" height="18" rx="1" fill="#991b1b"/>
  <rect x="298" y="201" width="3" height="18" rx="1" fill="#991b1b"/>
  <rect x="315" y="201" width="5" height="18" rx="1" fill="#991b1b"/>
  <rect x="335" y="201" width="4" height="18" rx="1" fill="#991b1b"/>
  <rect x="358" y="201" width="3" height="18" rx="1" fill="#991b1b"/>
  <rect x="375" y="201" width="5" height="18" rx="1" fill="#991b1b"/>
  <rect x="395" y="201" width="4" height="18" rx="1" fill="#991b1b"/>
  <rect x="415" y="201" width="3" height="18" rx="1" fill="#991b1b"/>
  <rect x="435" y="201" width="5" height="18" rx="1" fill="#991b1b"/>
  <rect x="458" y="201" width="4" height="18" rx="1" fill="#991b1b"/>
  <rect x="478" y="201" width="3" height="18" rx="1" fill="#991b1b"/>
  <rect x="498" y="201" width="5" height="18" rx="1" fill="#991b1b"/>
  <rect x="518" y="201" width="4" height="18" rx="1" fill="#991b1b"/>
  <rect x="538" y="201" width="3" height="18" rx="1" fill="#991b1b"/>
  <rect x="558" y="201" width="5" height="18" rx="1" fill="#991b1b"/>
  <rect x="578" y="201" width="4" height="18" rx="1" fill="#991b1b"/>
  <rect x="598" y="201" width="3" height="18" rx="1" fill="#991b1b"/>
  <rect x="618" y="201" width="5" height="18" rx="1" fill="#991b1b"/>
  <rect x="633" y="201" width="4" height="18" rx="1" fill="#991b1b"/>
  <!-- Regulatory regions visible -->
  <rect x="188" y="201" width="3" height="18" rx="1" fill="#fca5a5"/>
  <rect x="310" y="201" width="2" height="18" rx="1" fill="#fca5a5"/>
  <rect x="450" y="201" width="3" height="18" rx="1" fill="#fca5a5"/>
  <rect x="570" y="201" width="2" height="18" rx="1" fill="#fca5a5"/>

  <text x="400" y="216" text-anchor="middle" font-family="Arial, Helvetica, sans-serif" font-size="10" fill="white" font-weight="bold">Exons + Introns + Intergenic + Regulatory</text>

  <!-- Coverage indicator -->
  <text x="655" y="215" font-family="Arial, Helvetica, sans-serif" font-size="9" fill="#dc2626" font-weight="bold">~100%</text>

  <!-- ===== Comparison Table ===== -->
  <text x="400" y="258" text-anchor="middle" font-family="Arial, Helvetica, sans-serif" font-size="14" font-weight="bold" fill="#1e293b">Feature Comparison</text>
  <line x1="50" y1="265" x2="750" y2="265" stroke="#e2e8f0" stroke-width="1"/>

  <!-- Table header -->
  <rect x="50" y="272" width="700" height="26" rx="4" fill="#f1f5f9"/>
  <text x="160" y="289" text-anchor="middle" font-family="Arial, Helvetica, sans-serif" font-size="11" font-weight="bold" fill="#475569">Feature</text>
  <text x="340" y="289" text-anchor="middle" font-family="Arial, Helvetica, sans-serif" font-size="11" font-weight="bold" fill="#d97706">Gene Panel</text>
  <text x="500" y="289" text-anchor="middle" font-family="Arial, Helvetica, sans-serif" font-size="11" font-weight="bold" fill="#3b82f6">WES</text>
  <text x="660" y="289" text-anchor="middle" font-family="Arial, Helvetica, sans-serif" font-size="11" font-weight="bold" fill="#dc2626">WGS</text>

  <!-- Vertical separators -->
  <line x1="240" y1="272" x2="240" y2="418" stroke="#e2e8f0" stroke-width="0.8"/>
  <line x1="420" y1="272" x2="420" y2="418" stroke="#e2e8f0" stroke-width="0.8"/>
  <line x1="580" y1="272" x2="580" y2="418" stroke="#e2e8f0" stroke-width="0.8"/>

  <!-- Row 1: Genes covered -->
  <rect x="50" y="300" width="700" height="24" rx="0" fill="white"/>
  <line x1="50" y1="324" x2="750" y2="324" stroke="#f1f5f9" stroke-width="1"/>
  <text x="160" y="316" text-anchor="middle" font-family="Arial, Helvetica, sans-serif" font-size="10" fill="#64748b">Genes covered</text>
  <text x="340" y="316" text-anchor="middle" font-family="Arial, Helvetica, sans-serif" font-size="10" font-weight="bold" fill="#1e293b">50-500</text>
  <text x="500" y="316" text-anchor="middle" font-family="Arial, Helvetica, sans-serif" font-size="10" font-weight="bold" fill="#1e293b">~20,000</text>
  <text x="660" y="316" text-anchor="middle" font-family="Arial, Helvetica, sans-serif" font-size="10" font-weight="bold" fill="#1e293b">All + non-coding</text>

  <!-- Row 2: Approximate cost -->
  <rect x="50" y="326" width="700" height="24" rx="0" fill="#fafafa"/>
  <line x1="50" y1="350" x2="750" y2="350" stroke="#f1f5f9" stroke-width="1"/>
  <text x="160" y="342" text-anchor="middle" font-family="Arial, Helvetica, sans-serif" font-size="10" fill="#64748b">Approximate cost</text>
  <text x="340" y="342" text-anchor="middle" font-family="Arial, Helvetica, sans-serif" font-size="10" font-weight="bold" fill="#1e293b">$500-2,000</text>
  <text x="500" y="342" text-anchor="middle" font-family="Arial, Helvetica, sans-serif" font-size="10" font-weight="bold" fill="#1e293b">$2,000-5,000</text>
  <text x="660" y="342" text-anchor="middle" font-family="Arial, Helvetica, sans-serif" font-size="10" font-weight="bold" fill="#1e293b">$3,000-6,000</text>

  <!-- Row 3: VUS burden -->
  <rect x="50" y="352" width="700" height="24" rx="0" fill="white"/>
  <line x1="50" y1="376" x2="750" y2="376" stroke="#f1f5f9" stroke-width="1"/>
  <text x="160" y="368" text-anchor="middle" font-family="Arial, Helvetica, sans-serif" font-size="10" fill="#64748b">VUS burden</text>
  <text x="340" y="368" text-anchor="middle" font-family="Arial, Helvetica, sans-serif" font-size="10" font-weight="bold" fill="#16a34a">Fewer</text>
  <text x="500" y="368" text-anchor="middle" font-family="Arial, Helvetica, sans-serif" font-size="10" font-weight="bold" fill="#d97706">More</text>
  <text x="660" y="368" text-anchor="middle" font-family="Arial, Helvetica, sans-serif" font-size="10" font-weight="bold" fill="#dc2626">Most</text>

  <!-- Row 4: Diagnostic yield -->
  <rect x="50" y="378" width="700" height="24" rx="0" fill="#fafafa"/>
  <line x1="50" y1="402" x2="750" y2="402" stroke="#f1f5f9" stroke-width="1"/>
  <text x="160" y="394" text-anchor="middle" font-family="Arial, Helvetica, sans-serif" font-size="10" fill="#64748b">Diagnostic yield</text>
  <text x="340" y="394" text-anchor="middle" font-family="Arial, Helvetica, sans-serif" font-size="10" font-weight="bold" fill="#1e293b">15-25%</text>
  <text x="500" y="394" text-anchor="middle" font-family="Arial, Helvetica, sans-serif" font-size="10" font-weight="bold" fill="#1e293b">25-40%</text>
  <text x="660" y="394" text-anchor="middle" font-family="Arial, Helvetica, sans-serif" font-size="10" font-weight="bold" fill="#1e293b">30-45%</text>

  <!-- Row 5: Turnaround time -->
  <rect x="50" y="404" width="700" height="24" rx="0" fill="white"/>
  <text x="160" y="420" text-anchor="middle" font-family="Arial, Helvetica, sans-serif" font-size="10" fill="#64748b">Turnaround time</text>
  <text x="340" y="420" text-anchor="middle" font-family="Arial, Helvetica, sans-serif" font-size="10" font-weight="bold" fill="#1e293b">2-4 weeks</text>
  <text x="500" y="420" text-anchor="middle" font-family="Arial, Helvetica, sans-serif" font-size="10" font-weight="bold" fill="#1e293b">8-16 weeks</text>
  <text x="660" y="420" text-anchor="middle" font-family="Arial, Helvetica, sans-serif" font-size="10" font-weight="bold" fill="#1e293b">8-16 weeks</text>

  <!-- Table border -->
  <rect x="50" y="272" width="700" height="156" rx="4" fill="none" stroke="#e2e8f0" stroke-width="1.5"/>

  <!-- Bottom note -->
  <text x="400" y="445" text-anchor="middle" font-family="Arial, Helvetica, sans-serif" font-size="9" fill="#94a3b8">Costs and yields are approximate and vary by laboratory, region, and clinical indication. Yields based on neurodevelopmental disorder cohorts.</text>
</svg>